$MeshFormat
4 0 8
$EndMeshFormat
$PhysicalNames
10
1 27 "pml_left_interface"
1 28 "pml_up_interface"
1 29 "pml_right_interface"
1 30 "pml_down_interface"
1 31 "pml_down_outer_bound"
1 32 "pml_left_outer_bound"
1 33 "pml_up_outer_bound"
1 34 "pml_right_outer_bound"
2 25 "computation_domain"
2 26 "pml_domain"
$EndPhysicalNames
$Entities
16 24 9 0
1 -100 -100 0 -100 -100 0 0 
2 100 -100 0 100 -100 0 0 
3 100 100 0 100 100 0 0 
4 -100 100 0 -100 100 0 0 
5 -110 -110 0 -110 -110 0 0 
6 110 -110 0 110 -110 0 0 
7 110 110 0 110 110 0 0 
8 -110 110 0 -110 110 0 0 
9 -100 110 0 -100 110 0 0 
10 -110 100 0 -110 100 0 0 
11 100 110 0 100 110 0 0 
12 110 100 0 110 100 0 0 
13 110 -100 0 110 -100 0 0 
14 100 -110 0 100 -110 0 0 
15 -110 -100 0 -110 -100 0 0 
16 -100 -110 0 -100 -110 0 0 
1 -100 -100 0 -100 100 0 1 27 2 1 -4 
2 -100 100 0 100 100 0 1 28 2 4 -3 
3 100 -100 0 100 100 0 1 29 2 3 -2 
4 -100 -100 0 100 -100 0 1 30 2 2 -1 
5 -110 -110 0 -110 -100 0 1 32 2 5 -15 
6 -110 -100 0 -100 -100 0 0 2 15 -1 
7 -100 -110 0 -100 -100 0 0 2 1 -16 
8 -110 -110 0 -100 -110 0 1 31 2 16 -5 
9 -110 -100 0 -110 100 0 1 32 2 15 -10 
10 -110 100 0 -100 100 0 0 2 10 -4 
11 -110 100 0 -110 110 0 1 32 2 10 -8 
12 -110 110 0 -100 110 0 1 33 2 8 -9 
13 -100 100 0 -100 110 0 0 2 9 -4 
14 -100 110 0 100 110 0 1 33 2 9 -11 
15 100 100 0 100 110 0 0 2 11 -3 
16 100 110 0 110 110 0 1 33 2 11 -7 
17 110 100 0 110 110 0 1 34 2 7 -12 
18 100 100 0 110 100 0 0 2 12 -3 
19 110 -100 0 110 100 0 1 34 2 12 -13 
20 100 -100 0 110 -100 0 0 2 13 -2 
21 -100 -110 0 100 -110 0 1 31 2 16 -14 
22 100 -110 0 100 -100 0 0 2 14 -2 
23 110 -110 0 110 -100 0 1 34 2 6 -13 
24 100 -110 0 110 -110 0 1 31 2 14 -6 
1 -100 -100 0 100 100 0 1 25 4 1 2 3 4 
2 -110 -110 0 -100 -100 0 1 26 4 5 6 7 8 
3 -100 -110 0 100 -100 0 1 26 4 7 21 22 4 
4 100 -110 0 110 -100 0 1 26 4 22 -20 -23 -24 
5 100 -100 0 110 100 0 1 26 4 3 -20 -19 18 
6 100 100 0 110 110 0 1 26 4 15 -18 -17 -16 
7 -100 100 0 100 110 0 1 26 4 13 2 -15 -14 
8 -110 100 0 -100 110 0 1 26 4 11 12 13 -10 
9 -110 -100 0 -100 100 0 1 26 4 9 10 -1 -6 
$EndEntities
$Nodes
41 32
1 0 0 1
1 -100 -100 0
2 0 0 1
2 100 -100 0
3 0 0 1
3 100 100 0
4 0 0 1
4 -100 100 0
5 0 0 1
5 -110 -110 0
6 0 0 1
6 110 -110 0
7 0 0 1
7 110 110 0
8 0 0 1
8 -110 110 0
9 0 0 1
9 -100 110 0
10 0 0 1
10 -110 100 0
11 0 0 1
11 100 110 0
12 0 0 1
12 110 100 0
13 0 0 1
13 110 -100 0
14 0 0 1
14 100 -110 0
15 0 0 1
15 -110 -100 0
16 0 0 1
16 -100 -110 0
1 1 0 1
17 -100 -3.470290721452329e-10 0
2 1 0 1
18 -3.470290721452329e-10 100 0
3 1 0 1
19 100 3.470290721452329e-10 0
4 1 0 1
20 3.470290721452329e-10 -100 0
5 1 0 0
8 1 0 0
9 1 0 1
21 -110 -3.470290721452329e-10 0
11 1 0 0
12 1 0 0
14 1 0 1
22 -3.470290721452329e-10 110 0
16 1 0 0
17 1 0 0
19 1 0 1
23 110 3.470290721452329e-10 0
21 1 0 1
24 -3.470290721452329e-10 -110 0
23 1 0 0
24 1 0 0
1 2 0 4
25 -41.24999999992625 -41.25000000007375 0
26 -25.00000000008676 24.99999999991324 -0
27 29.5833333333637 -28.74999999994361 0
28 43.74999999984818 43.75000000015182 0
2 2 0 1
29 -105 -105 0
3 2 0 0
4 2 0 1
30 105 -105 0
5 2 0 0
6 2 0 1
31 105 105 0
7 2 0 0
8 2 0 1
32 -105 105 0
9 2 0 0
$EndNodes
$Elements
25 70
1 1 1 2
1 1 17 
2 17 4 
2 1 1 2
3 4 18 
4 18 3 
3 1 1 2
5 3 19 
6 19 2 
4 1 1 2
7 2 20 
8 20 1 
5 1 1 1
9 5 15 
8 1 1 1
10 16 5 
9 1 1 2
11 15 21 
12 21 10 
11 1 1 1
13 10 8 
12 1 1 1
14 8 9 
14 1 1 2
15 9 22 
16 22 11 
16 1 1 1
17 11 7 
17 1 1 1
18 7 12 
19 1 1 2
19 12 23 
20 23 13 
21 1 1 2
21 16 24 
22 24 14 
23 1 1 1
23 6 13 
24 1 1 1
24 14 6 
1 2 2 14
25 19 2 27 
26 17 4 26 
27 4 18 26 
28 2 20 27 
29 18 3 28 
30 3 19 28 
31 20 1 25 
32 1 17 25 
33 19 27 28 
34 25 17 26 
35 27 26 28 
36 26 18 28 
37 25 26 27 
38 20 25 27 
2 2 2 4
39 15 1 29 
40 1 16 29 
41 5 15 29 
42 16 5 29 
3 2 2 4
43 16 24 1 
44 24 20 1 
45 2 20 14 
46 20 24 14 
4 2 2 4
47 2 13 30 
48 14 2 30 
49 13 6 30 
50 6 14 30 
5 2 2 4
51 13 19 2 
52 19 12 3 
53 23 12 19 
54 13 23 19 
6 2 2 4
55 11 3 31 
56 3 12 31 
57 7 11 31 
58 12 7 31 
7 2 2 4
59 11 18 3 
60 18 9 4 
61 18 22 9 
62 18 11 22 
8 2 2 4
63 9 4 32 
64 4 10 32 
65 8 9 32 
66 10 8 32 
9 2 2 4
67 21 1 15 
68 17 1 21 
69 4 21 10 
70 4 17 21 
$EndElements
