ISO-10303-21;
HEADER;
FILE_DESCRIPTION(('Aspose.CAD STEP Model'),'2;1');
FILE_NAME('','2024',(''),(''),'','Aspose.CAD','');
FILE_SCHEMA(('AUTOMOTIVE_DESIGN'));
ENDSEC;
DATA;
#1=PRODUCT('Unnamed','Unnamed','',());
#2=PRODUCT_DEFINITION_FORMATION('','',#1);
#3=PRODUCT_DEFINITION('design','',#2,*);
#4=PRODUCT_DEFINITION_SHAPE('','',#3);
#5=CARTESIAN_POINT('',(0.0,0.0,0.0));
#6=DIRECTION('',(0.0,0.0,1.0));
#7=DIRECTION('',(1.0,0.0,0.0));
#8=AXIS2_PLACEMENT_3D('',#5,#6,#7);
#9=AXIS2_PLACEMENT_3D('',#5,#6,#7);
#10=SHAPE_REPRESENTATION('',(#8,#9),*);
#11=SHAPE_DEFINITION_REPRESENTATION(#4,#10);
#12=PRODUCT('Wireframe shape','Wireframe shape','',());
#13=PRODUCT_DEFINITION_FORMATION('','',#12);
#14=PRODUCT_DEFINITION('design','',#13,*);
#15=PRODUCT_DEFINITION_SHAPE('','',#14);
#16=CARTESIAN_POINT('',(5090.04740042744,-11869.0728381067,0.0));
#17=DIRECTION('',(-0.999688938083412,0.0249404705981997,0.0));
#18=VECTOR('',#17,1.0);
#19=LINE('',#16,#18);
#20=CARTESIAN_POINT('',(4571.06561991283,-11856.1251607394,0.0));
#21=TRIMMED_CURVE('',#19,(#16,PARAMETER_VALUE(0.0)),(#20,PARAMETER_VALUE(
519.143266213983)),.T.,.PARAMETER.);
#22=DIRECTION('',(-0.996884571425241,0.0788742749843965,0.0));
#23=VECTOR('',#22,1.0);
#24=LINE('',#20,#23);
#25=CARTESIAN_POINT('',(4080.13687143766,-11817.2825000995,0.0));
#26=TRIMMED_CURVE('',#24,(#20,PARAMETER_VALUE(0.0)),(#25,PARAMETER_VALUE(
492.462981720435)),.T.,.PARAMETER.);
#27=DIRECTION('',(-0.990360815876147,0.138511567665424,0.0));
#28=VECTOR('',#27,1.0);
#29=LINE('',#25,#28);
#30=CARTESIAN_POINT('',(3617.26126527969,-11752.5448561871,0.0));
#31=TRIMMED_CURVE('',#29,(#25,PARAMETER_VALUE(0.0)),(#30,PARAMETER_VALUE(
467.380775509051)),.T.,.PARAMETER.);
#32=DIRECTION('',(-0.978960211651711,0.204051228868726,0.0));
#33=VECTOR('',#32,1.0);
#34=LINE('',#30,#33);
#35=CARTESIAN_POINT('',(3182.43859829568,-11661.9118575401,0.0));
#36=TRIMMED_CURVE('',#34,(#30,PARAMETER_VALUE(0.0)),(#35,PARAMETER_VALUE(
444.167864851606)),.T.,.PARAMETER.);
#37=DIRECTION('',(-0.961331139336533,0.275395062668022,0.0));
#38=VECTOR('',#37,1.0);
#39=LINE('',#35,#38);
#40=CARTESIAN_POINT('',(2775.66901558793,-11545.3835041586,0.0));
#41=TRIMMED_CURVE('',#39,(#35,PARAMETER_VALUE(0.0)),(#40,PARAMETER_VALUE(
423.131599573979)),.T.,.PARAMETER.);
#42=DIRECTION('',(-0.935999883662007,0.352000309353144,0.0));
#43=VECTOR('',#42,1.0);
#44=LINE('',#40,#43);
#45=CARTESIAN_POINT('',(2396.95279575292,-11402.9601675046,0.0));
#46=TRIMMED_CURVE('',#44,(#40,PARAMETER_VALUE(0.0)),(#45,PARAMETER_VALUE(
404.611396267833)),.T.,.PARAMETER.);
#47=DIRECTION('',(-0.901523176687289,0.432730819211736,0.0));
#48=VECTOR('',#47,1.0);
#49=LINE('',#45,#48);
#50=CARTESIAN_POINT('',(2046.28938159772,-11234.6418475779,0.0));
#51=TRIMMED_CURVE('',#49,(#45,PARAMETER_VALUE(0.0)),(#50,PARAMETER_VALUE(
388.967719547414)),.T.,.PARAMETER.);
#52=DIRECTION('',(-0.856733474789483,0.515759394655238,0.0));
#53=VECTOR('',#52,1.0);
#54=LINE('',#50,#53);
#55=CARTESIAN_POINT('',(1723.67895885332,-11040.4281729167,0.0));
#56=TRIMMED_CURVE('',#54,(#50,PARAMETER_VALUE(0.0)),(#55,PARAMETER_VALUE(
376.55867575815)),.T.,.PARAMETER.);
#57=DIRECTION('',(-0.801055165759816,0.598590529000848,0.0));
#58=VECTOR('',#57,1.0);
#59=LINE('',#55,#58);
#60=CARTESIAN_POINT('',(1429.12171325067,-10820.3195149829,0.0));
#61=TRIMMED_CURVE('',#59,(#55,PARAMETER_VALUE(0.0)),(#60,PARAMETER_VALUE(
367.711561192236)),.T.,.PARAMETER.);
#62=DIRECTION('',(-0.734803837289028,0.678279677349483,0.0));
#63=VECTOR('',#62,1.0);
#64=LINE('',#60,#63);
#65=CARTESIAN_POINT('',(1162.61745905881,-10574.3158737765,0.0));
#66=TRIMMED_CURVE('',#64,(#60,PARAMETER_VALUE(0.0)),(#65,PARAMETER_VALUE(
362.687619018287)),.T.,.PARAMETER.);
#67=DIRECTION('',(-0.659348740408339,0.751837242042409,0.0));
#68=VECTOR('',#67,1.0);
#69=LINE('',#65,#68);
#70=CARTESIAN_POINT('',(924.166567739682,-10302.4168778356,0.0));
#71=TRIMMED_CURVE('',#69,(#65,PARAMETER_VALUE(0.0)),(#70,PARAMETER_VALUE(
361.646086062825)),.T.,.PARAMETER.);
#72=DIRECTION('',(-0.577031643932985,0.816721789779113,0.0));
#73=VECTOR('',#72,1.0);
#74=LINE('',#70,#73);
#75=CARTESIAN_POINT('',(713.768667831341,-10004.6228986221,0.0));
#76=TRIMMED_CURVE('',#74,(#70,PARAMETER_VALUE(0.0)),(#75,PARAMETER_VALUE(
364.621077752846)),.T.,.PARAMETER.);
#77=DIRECTION('',(-0.490812680381974,0.87126512197853,0.0));
#78=VECTOR('',#77,1.0);
#79=LINE('',#75,#78);
#80=CARTESIAN_POINT('',(531.423573602819,-9680.93337894312,0.0));
#81=TRIMMED_CURVE('',#79,(#75,PARAMETER_VALUE(0.0)),(#80,PARAMETER_VALUE(
371.516673299093)),.T.,.PARAMETER.);
#82=DIRECTION('',(-0.403779397322595,0.914856381241232,0.0));
#83=VECTOR('',#82,1.0);
#84=LINE('',#80,#83);
#85=CARTESIAN_POINT('',(377.131656516055,-9331.34906172251,0.0));
#86=TRIMMED_CURVE('',#84,(#80,PARAMETER_VALUE(0.0)),(#85,PARAMETER_VALUE(
382.119340684175)),.T.,.PARAMETER.);
#87=DIRECTION('',(-0.318677818688714,0.947863095534267,0.0));
#88=VECTOR('',#87,1.0);
#89=LINE('',#85,#88);
#90=CARTESIAN_POINT('',(250.892916571051,-8955.86938976737,0.0));
#91=TRIMMED_CURVE('',#89,(#85,PARAMETER_VALUE(0.0)),(#90,PARAMETER_VALUE(
396.132810449274)),.T.,.PARAMETER.);
#92=DIRECTION('',(-0.237617856101861,0.971358715646056,0.0));
#93=VECTOR('',#92,1.0);
#94=LINE('',#90,#93);
#95=CARTESIAN_POINT('',(152.706982305865,-8554.49482740513,0.0));
#96=TRIMMED_CURVE('',#94,(#90,PARAMETER_VALUE(0.0)),(#95,PARAMETER_VALUE(
413.209410588637)),.T.,.PARAMETER.);
#97=DIRECTION('',(-0.161974190213431,0.9867949947708,0.0));
#98=VECTOR('',#97,1.0);
#99=LINE('',#95,#98);
#100=CARTESIAN_POINT('',(82.5742251824381,-8127.22518890482,0.0));
#101=TRIMMED_CURVE('',#99,(#95,PARAMETER_VALUE(0.0)),(#100,PARAMETER_VALUE(
432.987237232141)),.T.,.PARAMETER.);
#102=DIRECTION('',(-0.0924592711045761,0.995716467267068,0.0));
#103=VECTOR('',#102,1.0);
#104=LINE('',#100,#103);
#105=CARTESIAN_POINT('',(40.4946452007698,-7674.05991707352,0.0));
#106=TRIMMED_CURVE('',#104,(#100,PARAMETER_VALUE(0.0)),(#105,PARAMETER_VALUE(
455.114770849472)),.T.,.PARAMETER.);
#107=DIRECTION('',(-0.0292664738163821,0.999571645011179,0.0));
#108=VECTOR('',#107,1.0);
#109=LINE('',#105,#108);
#110=CARTESIAN_POINT('',(26.4682423608601,-7194.99999860702,0.0));
#111=TRIMMED_CURVE('',#109,(#105,PARAMETER_VALUE(0.0)),(#110,PARAMETER_VALUE(
479.265214111935)),.T.,.PARAMETER.);
#112=DIRECTION('',(0.0292664610624212,0.999571645384603,0.0));
#113=VECTOR('',#112,1.0);
#114=LINE('',#110,#113);
#115=CARTESIAN_POINT('',(40.4946452007698,-6715.93987119318,0.0));
#116=TRIMMED_CURVE('',#114,(#110,PARAMETER_VALUE(0.0)),(#115,PARAMETER_VALUE(
479.265422969773)),.T.,.PARAMETER.);
#117=DIRECTION('',(0.0924593274606944,0.995716462034005,0.0));
#118=VECTOR('',#117,1.0);
#119=LINE('',#115,#118);
#120=CARTESIAN_POINT('',(82.5742251824381,-6262.77487795833,0.0));
#121=TRIMMED_CURVE('',#119,(#115,PARAMETER_VALUE(0.0)),(#120,PARAMETER_VALUE(
455.114493446395)),.T.,.PARAMETER.);
#122=DIRECTION('',(0.161974155932556,0.98679500039772,0.0));
#123=VECTOR('',#122,1.0);
#124=LINE('',#120,#123);
#125=CARTESIAN_POINT('',(152.706982305865,-5835.50514659253,0.0));
#126=TRIMMED_CURVE('',#124,(#120,PARAMETER_VALUE(0.0)),(#125,PARAMETER_VALUE(
432.987328871337)),.T.,.PARAMETER.);
#127=DIRECTION('',(0.237617700482432,0.971358753714322,0.0));
#128=VECTOR('',#127,1.0);
#129=LINE('',#125,#128);
#130=CARTESIAN_POINT('',(250.892916571051,-5434.13030563384,0.0));
#131=TRIMMED_CURVE('',#129,(#125,PARAMETER_VALUE(0.0)),(#130,PARAMETER_VALUE(
413.209681205735)),.T.,.PARAMETER.);
#132=DIRECTION('',(0.318677960314112,0.947863047918863,0.0));
#133=VECTOR('',#132,1.0);
#134=LINE('',#130,#133);
#135=CARTESIAN_POINT('',(377.131656516055,-5058.65081940967,0.0));
#136=TRIMMED_CURVE('',#134,(#130,PARAMETER_VALUE(0.0)),(#135,PARAMETER_VALUE(
396.132634401747)),.T.,.PARAMETER.);
#137=DIRECTION('',(0.403779397322595,0.914856381241232,0.0));
#138=VECTOR('',#137,1.0);
#139=LINE('',#135,#138);
#140=CARTESIAN_POINT('',(531.423573602819,-4709.06650218906,0.0));
#141=TRIMMED_CURVE('',#139,(#135,PARAMETER_VALUE(0.0)),(#140,PARAMETER_VALUE(
382.119340684175)),.T.,.PARAMETER.);
#142=DIRECTION('',(0.490812135172781,0.871265429112814,0.0));
#143=VECTOR('',#142,1.0);
#144=LINE('',#140,#143);
#145=CARTESIAN_POINT('',(713.768296369401,-4385.37716824104,0.0));
#146=TRIMMED_CURVE('',#144,(#140,PARAMETER_VALUE(0.0)),(#145,PARAMETER_VALUE(
371.516329160019)),.T.,.PARAMETER.);
#147=DIRECTION('',(0.577032083423472,0.816721479269382,0.0));
#148=VECTOR('',#147,1.0);
#149=LINE('',#145,#148);
#150=CARTESIAN_POINT('',(924.166567739682,-4087.58300329658,0.0));
#151=TRIMMED_CURVE('',#149,(#145,PARAMETER_VALUE(0.0)),(#150,PARAMETER_VALUE(
364.621443788723)),.T.,.PARAMETER.);
#152=DIRECTION('',(0.65934903070899,0.751836987453474,0.0));
#153=VECTOR('',#152,1.0);
#154=LINE('',#150,#153);
#155=CARTESIAN_POINT('',(1162.61764478978,-3815.68400735567,0.0));
#156=TRIMMED_CURVE('',#154,(#150,PARAMETER_VALUE(0.0)),(#155,PARAMETER_VALUE(
361.646208524332)),.T.,.PARAMETER.);
#157=DIRECTION('',(0.73480332682906,0.678280230348007,0.0));
#158=VECTOR('',#157,1.0);
#159=LINE('',#155,#158);
#160=CARTESIAN_POINT('',(1429.12189898164,-3569.67999468735,0.0));
#161=TRIMMED_CURVE('',#159,(#155,PARAMETER_VALUE(0.0)),(#160,PARAMETER_VALUE(
362.687870973475)),.T.,.PARAMETER.);
#162=DIRECTION('',(0.801055469172071,0.598590122963547,0.0));
#163=VECTOR('',#162,1.0);
#164=LINE('',#160,#163);
#165=CARTESIAN_POINT('',(1723.67895885332,-3349.5717082155,0.0));
#166=TRIMMED_CURVE('',#164,(#160,PARAMETER_VALUE(0.0)),(#165,PARAMETER_VALUE(
367.711190057932)),.T.,.PARAMETER.);
#167=DIRECTION('',(0.856733343585737,0.515759612599129,0.0));
#168=VECTOR('',#167,1.0);
#169=LINE('',#165,#168);
#170=CARTESIAN_POINT('',(2046.28919586675,-3155.3580335543,0.0));
#171=TRIMMED_CURVE('',#169,(#165,PARAMETER_VALUE(0.0)),(#170,PARAMETER_VALUE(
376.558516636223)),.T.,.PARAMETER.);
#172=DIRECTION('',(0.901523266101416,0.432730632932122,0.0));
#173=VECTOR('',#172,1.0);
#174=LINE('',#170,#173);
#175=CARTESIAN_POINT('',(2396.95279575292,-2987.03971362763,0.0));
#176=TRIMMED_CURVE('',#174,(#170,PARAMETER_VALUE(0.0)),(#175,PARAMETER_VALUE(
388.967886988196)),.T.,.PARAMETER.);
#177=DIRECTION('',(0.935999883662007,0.352000309353144,0.0));
#178=VECTOR('',#177,1.0);
#179=LINE('',#175,#178);
#180=CARTESIAN_POINT('',(2775.66901558793,-2844.61637697355,0.0));
#181=TRIMMED_CURVE('',#179,(#175,PARAMETER_VALUE(0.0)),(#180,PARAMETER_VALUE(
404.611396267833)),.T.,.PARAMETER.);
#182=DIRECTION('',(0.961331189272333,0.275394888355325,0.0));
#183=VECTOR('',#182,1.0);
#184=LINE('',#180,#183);
#185=CARTESIAN_POINT('',(3182.43887689213,-2728.08802359205,0.0));
#186=TRIMMED_CURVE('',#184,(#180,PARAMETER_VALUE(0.0)),(#185,PARAMETER_VALUE(
423.131867397433)),.T.,.PARAMETER.);
#187=DIRECTION('',(0.978960185535673,0.204051354163505,0.0));
#188=VECTOR('',#187,1.0);
#189=LINE('',#185,#188);
#190=CARTESIAN_POINT('',(3617.26126527969,-2637.45502494508,0.0));
#191=TRIMMED_CURVE('',#189,(#185,PARAMETER_VALUE(0.0)),(#190,PARAMETER_VALUE(
444.167592116765)),.T.,.PARAMETER.);
#192=DIRECTION('',(0.990360810158109,0.138511608549516,0.0));
#193=VECTOR('',#192,1.0);
#194=LINE('',#190,#193);
#195=CARTESIAN_POINT('',(4080.13673213943,-2572.71738103264,0.0));
#196=TRIMMED_CURVE('',#194,(#190,PARAMETER_VALUE(0.0)),(#195,PARAMETER_VALUE(
467.380637553545)),.T.,.PARAMETER.);
#197=DIRECTION('',(0.996884575531242,0.0788742230890077,0.0));
#198=VECTOR('',#197,1.0);
#199=LINE('',#195,#198);
#200=CARTESIAN_POINT('',(4571.0658056438,-2533.87472039279,0.0));
#201=TRIMMED_CURVE('',#199,(#195,PARAMETER_VALUE(0.0)),(#200,PARAMETER_VALUE(
492.463305737028)),.T.,.PARAMETER.);
#202=DIRECTION('',(0.999688937860873,0.0249404795182411,0.0));
#203=VECTOR('',#202,1.0);
#204=LINE('',#200,#203);
#205=CARTESIAN_POINT('',(5090.04740042744,-2520.92704302552,0.0));
#206=TRIMMED_CURVE('',#204,(#200,PARAMETER_VALUE(0.0)),(#205,PARAMETER_VALUE(
519.143080540787)),.T.,.PARAMETER.);
#207=CARTESIAN_POINT('',(10153.6261870321,-7194.99999860702,0.0));
#208=DIRECTION('',(-0.0292664624795293,-0.999571645343111,0.0));
#209=VECTOR('',#208,1.0);
#210=LINE('',#207,#209);
#211=CARTESIAN_POINT('',(10139.5997841922,-7674.06010280449,0.0));
#212=TRIMMED_CURVE('',#210,(#207,PARAMETER_VALUE(0.0)),(#211,PARAMETER_VALUE(
479.265399763346)),.T.,.PARAMETER.);
#213=DIRECTION('',(-0.0924593274606974,-0.995716462034005,0.0));
#214=VECTOR('',#213,1.0);
#215=LINE('',#211,#214);
#216=CARTESIAN_POINT('',(10097.5202042105,-8127.22509603933,0.0));
#217=TRIMMED_CURVE('',#215,(#211,PARAMETER_VALUE(0.0)),(#216,PARAMETER_VALUE(
455.114493446395)),.T.,.PARAMETER.);
#218=DIRECTION('',(-0.161974155932552,-0.986795000397721,0.0));
#219=VECTOR('',#218,1.0);
#220=LINE('',#216,#219);
#221=CARTESIAN_POINT('',(10027.3874470871,-8554.49482740513,0.0));
#222=TRIMMED_CURVE('',#220,(#216,PARAMETER_VALUE(0.0)),(#221,PARAMETER_VALUE(
432.987328871336)),.T.,.PARAMETER.);
#223=DIRECTION('',(-0.237617752355554,-0.971358741024908,0.0));
#224=VECTOR('',#223,1.0);
#225=LINE('',#221,#224);
#226=CARTESIAN_POINT('',(9929.2015128219,-8955.86957549834,0.0));
#227=TRIMMED_CURVE('',#225,(#221,PARAMETER_VALUE(0.0)),(#226,PARAMETER_VALUE(
413.209591000034)),.T.,.PARAMETER.);
#228=DIRECTION('',(-0.31867796031411,-0.947863047918864,0.0));
#229=VECTOR('',#228,1.0);
#230=LINE('',#226,#229);
#231=CARTESIAN_POINT('',(9802.96277287689,-9331.34906172251,0.0));
#232=TRIMMED_CURVE('',#230,(#226,PARAMETER_VALUE(0.0)),(#231,PARAMETER_VALUE(
396.132634401747)),.T.,.PARAMETER.);
#233=DIRECTION('',(-0.403779397322597,-0.914856381241231,0.0));
#234=VECTOR('',#233,1.0);
#235=LINE('',#231,#234);
#236=CARTESIAN_POINT('',(9648.67085579013,-9680.93337894312,0.0));
#237=TRIMMED_CURVE('',#235,(#231,PARAMETER_VALUE(0.0)),(#236,PARAMETER_VALUE(
382.119340684175)),.T.,.PARAMETER.);
#238=DIRECTION('',(-0.49081213517278,-0.871265429112815,0.0));
#239=VECTOR('',#238,1.0);
#240=LINE('',#236,#239);
#241=CARTESIAN_POINT('',(9466.32613302355,-10004.6227128911,0.0));
#242=TRIMMED_CURVE('',#240,(#236,PARAMETER_VALUE(0.0)),(#241,PARAMETER_VALUE(
371.516329160018)),.T.,.PARAMETER.);
#243=DIRECTION('',(-0.577032083423474,-0.81672147926938,0.0));
#244=VECTOR('',#243,1.0);
#245=LINE('',#241,#244);
#246=CARTESIAN_POINT('',(9255.92786165326,-10302.4168778356,0.0));
#247=TRIMMED_CURVE('',#245,(#241,PARAMETER_VALUE(0.0)),(#246,PARAMETER_VALUE(
364.621443788724)),.T.,.PARAMETER.);
#248=DIRECTION('',(-0.659349030708986,-0.751836987453478,0.0));
#249=VECTOR('',#248,1.0);
#250=LINE('',#246,#249);
#251=CARTESIAN_POINT('',(9017.47678460317,-10574.3158737765,0.0));
#252=TRIMMED_CURVE('',#250,(#246,PARAMETER_VALUE(0.0)),(#251,PARAMETER_VALUE(
361.646208524332)),.T.,.PARAMETER.);
#253=DIRECTION('',(-0.734803326829062,-0.678280230348005,0.0));
#254=VECTOR('',#253,1.0);
#255=LINE('',#251,#254);
#256=CARTESIAN_POINT('',(8750.97253041131,-10820.3198864448,0.0));
#257=TRIMMED_CURVE('',#255,(#251,PARAMETER_VALUE(0.0)),(#256,PARAMETER_VALUE(
362.687870973475)),.T.,.PARAMETER.);
#258=DIRECTION('',(-0.801055469172074,-0.598590122963542,0.0));
#259=VECTOR('',#258,1.0);
#260=LINE('',#256,#259);
#261=CARTESIAN_POINT('',(8456.41547053963,-11040.4281729167,0.0));
#262=TRIMMED_CURVE('',#260,(#256,PARAMETER_VALUE(0.0)),(#261,PARAMETER_VALUE(
367.711190057932)),.T.,.PARAMETER.);
#263=DIRECTION('',(-0.856733081177742,-0.515760048487368,0.0));
#264=VECTOR('',#263,1.0);
#265=LINE('',#261,#264);
#266=CARTESIAN_POINT('',(8133.80560498813,-11234.6418475779,0.0));
#267=TRIMMED_CURVE('',#265,(#261,PARAMETER_VALUE(0.0)),(#266,PARAMETER_VALUE(
376.558198392441)),.T.,.PARAMETER.);
#268=DIRECTION('',(-0.901523355515426,-0.432730446652655,0.0));
#269=VECTOR('',#268,1.0);
#270=LINE('',#266,#269);
#271=CARTESIAN_POINT('',(7783.141819371,-11402.9601675046,0.0));
#272=TRIMMED_CURVE('',#270,(#266,PARAMETER_VALUE(0.0)),(#271,PARAMETER_VALUE(
388.968054428995)),.T.,.PARAMETER.);
#273=DIRECTION('',(-0.935999883662007,-0.352000309353144,0.0));
#274=VECTOR('',#273,1.0);
#275=LINE('',#271,#274);
#276=CARTESIAN_POINT('',(7404.42559953598,-11545.3835041586,0.0));
#277=TRIMMED_CURVE('',#275,(#271,PARAMETER_VALUE(0.0)),(#276,PARAMETER_VALUE(
404.611396267833)),.T.,.PARAMETER.);
#278=DIRECTION('',(-0.961331172627077,-0.275394946459534,0.0));
#279=VECTOR('',#278,1.0);
#280=LINE('',#276,#279);
#281=CARTESIAN_POINT('',(6997.65583109727,-11661.9118575401,0.0));
#282=TRIMMED_CURVE('',#280,(#276,PARAMETER_VALUE(0.0)),(#281,PARAMETER_VALUE(
423.131778122947)),.T.,.PARAMETER.);
#283=DIRECTION('',(-0.978960185535674,-0.204051354163503,0.0));
#284=VECTOR('',#283,1.0);
#285=LINE('',#281,#284);
#286=CARTESIAN_POINT('',(6562.83344270971,-11752.5448561871,0.0));
#287=TRIMMED_CURVE('',#285,(#281,PARAMETER_VALUE(0.0)),(#286,PARAMETER_VALUE(
444.167592116765)),.T.,.PARAMETER.);
#288=DIRECTION('',(-0.990360806584333,-0.138511634102087,0.0));
#289=VECTOR('',#288,1.0);
#290=LINE('',#286,#289);
#291=CARTESIAN_POINT('',(6099.95806291136,-11817.2825000995,0.0));
#292=TRIMMED_CURVE('',#290,(#286,PARAMETER_VALUE(0.0)),(#291,PARAMETER_VALUE(
467.380551331354)),.T.,.PARAMETER.);
#293=DIRECTION('',(-0.996884576044492,-0.0788742166020908,0.0));
#294=VECTOR('',#293,1.0);
#295=LINE('',#291,#294);
#296=CARTESIAN_POINT('',(5609.02894877834,-11856.1251607394,0.0));
#297=TRIMMED_CURVE('',#295,(#291,PARAMETER_VALUE(0.0)),(#296,PARAMETER_VALUE(
492.463346239103)),.T.,.PARAMETER.);
#298=DIRECTION('',(-0.999688937805238,-0.0249404817482503,0.0));
#299=VECTOR('',#298,1.0);
#300=LINE('',#296,#299);
#301=TRIMMED_CURVE('',#300,(#296,PARAMETER_VALUE(0.0)),(#16,PARAMETER_VALUE(
519.143034122487)),.T.,.PARAMETER.);
#302=DIRECTION('',(0.999688938027777,-0.0249404728282107,0.0));
#303=VECTOR('',#302,1.0);
#304=LINE('',#205,#303);
#305=CARTESIAN_POINT('',(5609.02913450931,-2533.87472039279,0.0));
#306=TRIMMED_CURVE('',#304,(#205,PARAMETER_VALUE(0.0)),(#305,PARAMETER_VALUE(
519.143219795684)),.T.,.PARAMETER.);
#307=DIRECTION('',(0.996884571351919,-0.0788742759110988,0.0));
#308=VECTOR('',#307,1.0);
#309=LINE('',#305,#308);
#310=CARTESIAN_POINT('',(6099.95787718039,-2572.71738103264,0.0));
#311=TRIMMED_CURVE('',#309,(#305,PARAMETER_VALUE(0.0)),(#310,PARAMETER_VALUE(
492.462975934423)),.T.,.PARAMETER.);
#312=DIRECTION('',(0.990360814208386,-0.138511579589948,0.0));
#313=VECTOR('',#312,1.0);
#314=LINE('',#310,#313);
#315=CARTESIAN_POINT('',(6562.83344270971,-2637.45502494508,0.0));
#316=TRIMMED_CURVE('',#314,(#310,PARAMETER_VALUE(0.0)),(#315,PARAMETER_VALUE(
467.380735272029)),.T.,.PARAMETER.);
#317=DIRECTION('',(0.97896020294637,-0.204051270633637,0.0));
#318=VECTOR('',#317,1.0);
#319=LINE('',#315,#318);
#320=CARTESIAN_POINT('',(6997.65601682824,-2728.08802359205,0.0));
#321=TRIMMED_CURVE('',#319,(#315,PARAMETER_VALUE(0.0)),(#320,PARAMETER_VALUE(
444.167773939991)),.T.,.PARAMETER.);
#322=DIRECTION('',(0.961331139336533,-0.275395062668022,0.0));
#323=VECTOR('',#322,1.0);
#324=LINE('',#320,#323);
#325=CARTESIAN_POINT('',(7404.42559953598,-2844.61637697355,0.0));
#326=TRIMMED_CURVE('',#324,(#320,PARAMETER_VALUE(0.0)),(#325,PARAMETER_VALUE(
423.131599573979)),.T.,.PARAMETER.);
#327=DIRECTION('',(0.935999883662007,-0.352000309353144,0.0));
#328=VECTOR('',#327,1.0);
#329=LINE('',#325,#328);
#330=CARTESIAN_POINT('',(7783.141819371,-2987.03971362763,0.0));
#331=TRIMMED_CURVE('',#329,(#325,PARAMETER_VALUE(0.0)),(#330,PARAMETER_VALUE(
404.611396267833)),.T.,.PARAMETER.);
#332=DIRECTION('',(0.901523176687289,-0.432730819211734,0.0));
#333=VECTOR('',#332,1.0);
#334=LINE('',#330,#333);
#335=CARTESIAN_POINT('',(8133.80523352619,-3155.3580335543,0.0));
#336=TRIMMED_CURVE('',#334,(#330,PARAMETER_VALUE(0.0)),(#335,PARAMETER_VALUE(
388.967719547414)),.T.,.PARAMETER.);
#337=DIRECTION('',(0.856733343585736,-0.515759612599131,0.0));
#338=VECTOR('',#337,1.0);
#339=LINE('',#335,#338);
#340=CARTESIAN_POINT('',(8456.41547053963,-3349.5717082155,0.0));
#341=TRIMMED_CURVE('',#339,(#335,PARAMETER_VALUE(0.0)),(#340,PARAMETER_VALUE(
376.558516636221)),.T.,.PARAMETER.);
#342=DIRECTION('',(0.801055346742264,-0.598590286803613,0.0));
#343=VECTOR('',#342,1.0);
#344=LINE('',#340,#343);
#345=CARTESIAN_POINT('',(8750.97290187325,-3569.68036614929,0.0));
#346=TRIMMED_CURVE('',#344,(#340,PARAMETER_VALUE(0.0)),(#345,PARAMETER_VALUE(
367.711709973007)),.T.,.PARAMETER.);
#347=DIRECTION('',(0.734803837289028,-0.678279677349484,0.0));
#348=VECTOR('',#347,1.0);
#349=LINE('',#345,#348);
#350=CARTESIAN_POINT('',(9017.47715606511,-3815.68400735567,0.0));
#351=TRIMMED_CURVE('',#349,(#345,PARAMETER_VALUE(0.0)),(#350,PARAMETER_VALUE(
362.687619018288)),.T.,.PARAMETER.);
#352=DIRECTION('',(0.659348450107396,-0.751837496631403,0.0));
#353=VECTOR('',#352,1.0);
#354=LINE('',#350,#353);
#355=CARTESIAN_POINT('',(9255.92786165326,-4087.58300329658,0.0));
#356=TRIMMED_CURVE('',#354,(#350,PARAMETER_VALUE(0.0)),(#355,PARAMETER_VALUE(
361.645963601369)),.T.,.PARAMETER.);
#357=DIRECTION('',(0.577031643932984,-0.816721789779113,0.0));
#358=VECTOR('',#357,1.0);
#359=LINE('',#355,#358);
#360=CARTESIAN_POINT('',(9466.32576156161,-4385.37698251007,0.0));
#361=TRIMMED_CURVE('',#359,(#355,PARAMETER_VALUE(0.0)),(#360,PARAMETER_VALUE(
364.621077752846)),.T.,.PARAMETER.);
#362=DIRECTION('',(0.490812680381978,-0.871265121978527,0.0));
#363=VECTOR('',#362,1.0);
#364=LINE('',#360,#363);
#365=CARTESIAN_POINT('',(9648.67085579013,-4709.06650218906,0.0));
#366=TRIMMED_CURVE('',#364,(#360,PARAMETER_VALUE(0.0)),(#365,PARAMETER_VALUE(
371.516673299093)),.T.,.PARAMETER.);
#367=DIRECTION('',(0.403779397322597,-0.914856381241231,0.0));
#368=VECTOR('',#367,1.0);
#369=LINE('',#365,#368);
#370=CARTESIAN_POINT('',(9802.96277287689,-5058.65081940967,0.0));
#371=TRIMMED_CURVE('',#369,(#365,PARAMETER_VALUE(0.0)),(#370,PARAMETER_VALUE(
382.119340684175)),.T.,.PARAMETER.);
#372=DIRECTION('',(0.318678519552729,-0.947862859898879,0.0));
#373=VECTOR('',#372,1.0);
#374=LINE('',#370,#373);
#375=CARTESIAN_POINT('',(9929.20188428384,-5434.13067709578,0.0));
#376=TRIMMED_CURVE('',#374,(#370,PARAMETER_VALUE(0.0)),(#375,PARAMETER_VALUE(
396.133104873595)),.T.,.PARAMETER.);
#377=DIRECTION('',(0.237617059764591,-0.971358910449084,0.0));
#378=VECTOR('',#377,1.0);
#379=LINE('',#375,#378);
#380=CARTESIAN_POINT('',(10027.3874470871,-5835.50514659253,0.0));
#381=TRIMMED_CURVE('',#379,(#375,PARAMETER_VALUE(0.0)),(#380,PARAMETER_VALUE(
413.209232117086)),.T.,.PARAMETER.);
#382=DIRECTION('',(0.161974190213427,-0.986794994770801,0.0));
#383=VECTOR('',#382,1.0);
#384=LINE('',#380,#383);
#385=CARTESIAN_POINT('',(10097.5202042105,-6262.77478509285,0.0));
#386=TRIMMED_CURVE('',#384,(#380,PARAMETER_VALUE(0.0)),(#385,PARAMETER_VALUE(
432.987237232142)),.T.,.PARAMETER.);
#387=DIRECTION('',(0.0924592617118993,-0.995716468139244,0.0));
#388=VECTOR('',#387,1.0);
#389=LINE('',#385,#388);
#390=CARTESIAN_POINT('',(10139.5997841922,-6715.94010335689,0.0));
#391=TRIMMED_CURVE('',#389,(#385,PARAMETER_VALUE(0.0)),(#390,PARAMETER_VALUE(
455.114817083318)),.T.,.PARAMETER.);
#392=DIRECTION('',(0.0292664752334913,-0.999571644969688,0.0));
#393=VECTOR('',#392,1.0);
#394=LINE('',#390,#393);
#395=TRIMMED_CURVE('',#394,(#390,PARAMETER_VALUE(0.0)),(#207,PARAMETER_VALUE(
479.265190905509)),.T.,.PARAMETER.);
#396=CARTESIAN_POINT('',(3220.41816711883,-8285.61702428461,0.0));
#397=DIRECTION('',(-0.999652021053085,0.0263787187801523,0.0));
#398=VECTOR('',#397,1.0);
#399=LINE('',#396,#398);
#400=CARTESIAN_POINT('',(3160.73881330363,-8284.04221139161,0.0));
#401=TRIMMED_CURVE('',#399,(#396,PARAMETER_VALUE(0.0)),(#400,PARAMETER_VALUE(
59.7001282029438)),.T.,.PARAMETER.);
#402=DIRECTION('',(-0.999996146067392,-0.00277630156189181,0.0));
#403=VECTOR('',#402,1.0);
#404=LINE('',#400,#403);
#405=CARTESIAN_POINT('',(3107.05281215317,-8284.19126049488,0.0));
#406=TRIMMED_CURVE('',#404,(#400,PARAMETER_VALUE(0.0)),(#405,PARAMETER_VALUE(
53.6862080534905)),.T.,.PARAMETER.);
#407=DIRECTION('',(-0.999229736839802,-0.0392419802642509,0.0));
#408=VECTOR('',#407,1.0);
#409=LINE('',#405,#408);
#410=CARTESIAN_POINT('',(3059.35997793647,-8286.06426445991,0.0));
#411=TRIMMED_CURVE('',#409,(#405,PARAMETER_VALUE(0.0)),(#410,PARAMETER_VALUE(
47.7295985681224)),.T.,.PARAMETER.);
#412=DIRECTION('',(-0.996300525311745,-0.0859375544423977,0.0));
#413=VECTOR('',#412,1.0);
#414=LINE('',#410,#413);
#415=CARTESIAN_POINT('',(3017.66040351903,-8289.66113042121,0.0));
#416=TRIMMED_CURVE('',#414,(#410,PARAMETER_VALUE(0.0)),(#415,PARAMETER_VALUE(
41.8544137617438)),.T.,.PARAMETER.);
#417=DIRECTION('',(-0.989079010460206,-0.14738626485212,0.0));
#418=VECTOR('',#417,1.0);
#419=LINE('',#415,#418);
#420=CARTESIAN_POINT('',(2981.95408890084,-8294.98185837879,0.0));
#421=TRIMMED_CURVE('',#419,(#415,PARAMETER_VALUE(0.0)),(#420,PARAMETER_VALUE(
36.1005685496995)),.T.,.PARAMETER.);
#422=DIRECTION('',(-0.973026220951883,-0.230694545536079,0.0));
#423=VECTOR('',#422,1.0);
#424=LINE('',#420,#423);
#425=CARTESIAN_POINT('',(2952.24094121642,-8302.02654119813,0.0));
#426=TRIMMED_CURVE('',#424,(#420,PARAMETER_VALUE(0.0)),(#425,PARAMETER_VALUE(
30.5368417054078)),.T.,.PARAMETER.);
#427=DIRECTION('',(-0.937961918055972,-0.346738287872515,0.0));
#428=VECTOR('',#427,1.0);
#429=LINE('',#425,#428);
#430=CARTESIAN_POINT('',(2928.52114619674,-8310.79508601374,0.0));
#431=TRIMMED_CURVE('',#429,(#425,PARAMETER_VALUE(0.0)),(#430,PARAMETER_VALUE(
25.2886546490522)),.T.,.PARAMETER.);
#432=DIRECTION('',(-0.860552485951907,-0.509361776070794,0.0));
#433=VECTOR('',#432,1.0);
#434=LINE('',#430,#433);
#435=CARTESIAN_POINT('',(2910.79451811083,-8321.28749282562,0.0));
#436=TRIMMED_CURVE('',#434,(#430,PARAMETER_VALUE(0.0)),(#435,PARAMETER_VALUE(
20.5991248358358)),.T.,.PARAMETER.);
#437=DIRECTION('',(-0.692702881410358,-0.721223070960564,0.0));
#438=VECTOR('',#437,1.0);
#439=LINE('',#435,#438);
#440=CARTESIAN_POINT('',(2899.06124268966,-8333.50385449927,0.0));
#441=TRIMMED_CURVE('',#439,(#435,PARAMETER_VALUE(0.0)),(#440,PARAMETER_VALUE(
16.9383955748598)),.T.,.PARAMETER.);
#442=DIRECTION('',(-0.380750734709259,-0.92467771575742,0.0));
#443=VECTOR('',#442,1.0);
#444=LINE('',#440,#443);
#445=CARTESIAN_POINT('',(2893.32113420225,-8347.44407816919,0.0));
#446=TRIMMED_CURVE('',#444,(#440,PARAMETER_VALUE(0.0)),(#445,PARAMETER_VALUE(
15.0757647041382)),.T.,.PARAMETER.);
#447=DIRECTION('',(0.0161591467194155,-0.99986943246471,0.0));
#448=VECTOR('',#447,1.0);
#449=LINE('',#445,#448);
#450=CARTESIAN_POINT('',(2893.5742855141,-8363.10816383538,0.0));
#451=TRIMMED_CURVE('',#449,(#445,PARAMETER_VALUE(0.0)),(#450,PARAMETER_VALUE(
15.6661311543248)),.T.,.PARAMETER.);
#452=DIRECTION('',(0.338084517273572,-0.941115752274871,0.0));
#453=VECTOR('',#452,1.0);
#454=LINE('',#450,#453);
#455=CARTESIAN_POINT('',(2899.8206966252,-8380.49611149785,0.0));
#456=TRIMMED_CURVE('',#454,(#450,PARAMETER_VALUE(0.0)),(#455,PARAMETER_VALUE(
18.4758863300671)),.T.,.PARAMETER.);
#457=DIRECTION('',(0.539303548523096,-0.842111443070569,0.0));
#458=VECTOR('',#457,1.0);
#459=LINE('',#455,#458);
#460=CARTESIAN_POINT('',(2912.06036753556,-8399.60810688756,0.0));
#461=TRIMMED_CURVE('',#459,(#455,PARAMETER_VALUE(0.0)),(#460,PARAMETER_VALUE(
22.6953279722965)),.T.,.PARAMETER.);
#462=DIRECTION('',(0.658536189525964,-0.752549059586565,0.0));
#463=VECTOR('',#462,1.0);
#464=LINE('',#460,#463);
#465=CARTESIAN_POINT('',(2930.29320537968,-8420.44387140806,0.0));
#466=TRIMMED_CURVE('',#464,(#460,PARAMETER_VALUE(0.0)),(#465,PARAMETER_VALUE(
27.6869185537836)),.T.,.PARAMETER.);
#467=DIRECTION('',(0.731830578566789,-0.681486613422889,0.0));
#468=VECTOR('',#467,1.0);
#469=LINE('',#465,#468);
#470=CARTESIAN_POINT('',(2954.51939588855,-8443.00349792483,0.0));
#471=TRIMMED_CURVE('',#469,(#465,PARAMETER_VALUE(0.0)),(#470,PARAMETER_VALUE(
33.1035504915721)),.T.,.PARAMETER.);
#472=DIRECTION('',(0.779507744258137,-0.626392589868041,0.0));
#473=VECTOR('',#472,1.0);
#474=LINE('',#470,#473);
#475=CARTESIAN_POINT('',(2984.73884619666,-8467.28707930337,0.0));
#476=TRIMMED_CURVE('',#474,(#470,PARAMETER_VALUE(0.0)),(#475,PARAMETER_VALUE(
38.767350973371)),.T.,.PARAMETER.);
#477=DIRECTION('',(0.812231901146836,-0.583334671316044,0.0));
#478=VECTOR('',#477,1.0);
#479=LINE('',#475,#478);
#480=CARTESIAN_POINT('',(3020.95146343855,-8493.29452267817,0.0));
#481=TRIMMED_CURVE('',#479,(#475,PARAMETER_VALUE(0.0)),(#480,PARAMETER_VALUE(
44.5840863806916)),.T.,.PARAMETER.);
#482=DIRECTION('',(0.835740851741363,-0.549124055865905,0.0));
#483=VECTOR('',#482,1.0);
#484=LINE('',#480,#483);
#485=CARTESIAN_POINT('',(3063.15734047968,-8521.02592091474,0.0));
#486=TRIMMED_CURVE('',#484,(#480,PARAMETER_VALUE(0.0)),(#485,PARAMETER_VALUE(
50.5011535013478)),.T.,.PARAMETER.);
#487=DIRECTION('',(0.853280004907306,-0.521453001933433,0.0));
#488=VECTOR('',#487,1.0);
#489=LINE('',#485,#488);
#490=CARTESIAN_POINT('',(3111.35647732007,-8550.48118114758,0.0));
#491=TRIMMED_CURVE('',#489,(#485,PARAMETER_VALUE(0.0)),(#490,PARAMETER_VALUE(
56.4868935908413)),.T.,.PARAMETER.);
#492=DIRECTION('',(0.895110046109661,-0.445845270641688,0.0));
#493=VECTOR('',#492,1.0);
#494=LINE('',#490,#493);
#495=CARTESIAN_POINT('',(3150.42123523607,-8569.93894239303,0.0));
#496=TRIMMED_CURVE('',#494,(#490,PARAMETER_VALUE(0.0)),(#495,PARAMETER_VALUE(
43.6424080880106)),.T.,.PARAMETER.);
#497=DIRECTION('',(0.910597688881575,-0.413293901483598,0.0));
#498=VECTOR('',#497,1.0);
#499=LINE('',#495,#498);
#500=CARTESIAN_POINT('',(3190.0633482965,-8587.93134866624,0.0));
#501=TRIMMED_CURVE('',#499,(#495,PARAMETER_VALUE(0.0)),(#500,PARAMETER_VALUE(
43.5341683209385)),.T.,.PARAMETER.);
#502=DIRECTION('',(0.923958999187953,-0.382491526467706,0.0));
#503=VECTOR('',#502,1.0);
#504=LINE('',#500,#503);
#505=CARTESIAN_POINT('',(3230.23461992424,-8604.56105952846,0.0));
#506=TRIMMED_CURVE('',#504,(#500,PARAMETER_VALUE(0.0)),(#505,PARAMETER_VALUE(
43.4773314216834)),.T.,.PARAMETER.);
#507=DIRECTION('',(0.935391459178084,-0.353613939341613,0.0));
#508=VECTOR('',#507,1.0);
#509=LINE('',#505,#508);
#510=CARTESIAN_POINT('',(3270.88774226642,-8619.929502972,0.0));
#511=TRIMMED_CURVE('',#509,(#505,PARAMETER_VALUE(0.0)),(#510,PARAMETER_VALUE(
43.4610792554151)),.T.,.PARAMETER.);
#512=DIRECTION('',(0.945074785729754,-0.326854171424903,0.0));
#513=VECTOR('',#512,1.0);
#514=LINE('',#510,#513);
#515=CARTESIAN_POINT('',(3311.97447843313,-8634.13935314376,0.0));
#516=TRIMMED_CURVE('',#514,(#510,PARAMETER_VALUE(0.0)),(#515,PARAMETER_VALUE(
43.4745871830501)),.T.,.PARAMETER.);
#517=DIRECTION('',(0.953208611241112,-0.302313320010531,0.0));
#518=VECTOR('',#517,1.0);
#519=LINE('',#515,#518);
#520=CARTESIAN_POINT('',(3353.44713577798,-8647.29254603745,0.0));
#521=TRIMMED_CURVE('',#519,(#515,PARAMETER_VALUE(0.0)),(#520,PARAMETER_VALUE(
43.5084795245969)),.T.,.PARAMETER.);
#522=DIRECTION('',(0.959976919760994,-0.280079120118214,0.0));
#523=VECTOR('',#522,1.0);
#524=LINE('',#520,#523);
#525=CARTESIAN_POINT('',(3395.25800217993,-8659.49112126586,0.0));
#526=TRIMMED_CURVE('',#524,(#520,PARAMETER_VALUE(0.0)),(#525,PARAMETER_VALUE(
43.5540329577466)),.T.,.PARAMETER.);
#527=DIRECTION('',(0.965548265725559,-0.260224031469742,0.0));
#528=VECTOR('',#527,1.0);
#529=LINE('',#525,#528);
#530=CARTESIAN_POINT('',(3437.35893483229,-8670.83770518334,0.0));
#531=TRIMMED_CURVE('',#529,(#525,PARAMETER_VALUE(0.0)),(#530,PARAMETER_VALUE(
43.6031363183369)),.T.,.PARAMETER.);
#532=DIRECTION('',(0.970086550926715,-0.242759312305647,0.0));
#533=VECTOR('',#532,1.0);
#534=LINE('',#530,#533);
#535=CARTESIAN_POINT('',(3479.70235901836,-8681.43393551583,0.0));
#536=TRIMMED_CURVE('',#534,(#530,PARAMETER_VALUE(0.0)),(#535,PARAMETER_VALUE(
43.6491199116378)),.T.,.PARAMETER.);
#537=DIRECTION('',(0.973727875545994,-0.227714787364997,0.0));
#538=VECTOR('',#537,1.0);
#539=LINE('',#535,#538);
#540=CARTESIAN_POINT('',(3522.24052560456,-8691.38185813604,0.0));
#541=TRIMMED_CURVE('',#539,(#535,PARAMETER_VALUE(0.0)),(#540,PARAMETER_VALUE(
43.6858876637901)),.T.,.PARAMETER.);
#542=DIRECTION('',(0.97658913089647,-0.215113154908937,0.0));
#543=VECTOR('',#542,1.0);
#544=LINE('',#540,#543);
#545=CARTESIAN_POINT('',(3564.92535144133,-8700.78403891196,0.0));
#546=TRIMMED_CURVE('',#544,(#540,PARAMETER_VALUE(0.0)),(#545,PARAMETER_VALUE(
43.7080697361272)),.T.,.PARAMETER.);
#547=DIRECTION('',(0.978774159379045,-0.204941808647829,0.0));
#548=VECTOR('',#547,1.0);
#549=LINE('',#545,#548);
#550=CARTESIAN_POINT('',(3607.70915594143,-8709.74237745315,0.0));
#551=TRIMMED_CURVE('',#549,(#545,PARAMETER_VALUE(0.0)),(#550,PARAMETER_VALUE(
43.711620387735)),.T.,.PARAMETER.);
#552=DIRECTION('',(0.9803613154442,-0.197209764414742,0.0));
#553=VECTOR('',#552,1.0);
#554=LINE('',#550,#553);
#555=CARTESIAN_POINT('',(3650.54414347619,-8718.35907587583,0.0));
#556=TRIMMED_CURVE('',#554,(#550,PARAMETER_VALUE(0.0)),(#555,PARAMETER_VALUE(
43.6930617925773)),.T.,.PARAMETER.);
#557=DIRECTION('',(0.981410773249342,-0.191918978087445,0.0));
#558=VECTOR('',#557,1.0);
#559=LINE('',#555,#558);
#560=CARTESIAN_POINT('',(3693.38235188368,-8726.73626655353,0.0));
#561=TRIMMED_CURVE('',#559,(#555,PARAMETER_VALUE(0.0)),(#560,PARAMETER_VALUE(
43.6496211119195)),.T.,.PARAMETER.);
#562=DIRECTION('',(0.981962679605259,-0.189074841960691,0.0));
#563=VECTOR('',#562,1.0);
#564=LINE('',#560,#563);
#565=CARTESIAN_POINT('',(3736.17607097017,-8734.97610686644,0.0));
#566=TRIMMED_CURVE('',#564,(#560,PARAMETER_VALUE(0.0)),(#565,PARAMETER_VALUE(
43.579781569389)),.T.,.PARAMETER.);
#567=DIRECTION('',(0.982036529353724,-0.188690898071136,0.0));
#568=VECTOR('',#567,1.0);
#569=LINE('',#565,#568);
#570=CARTESIAN_POINT('',(3778.87735465131,-8743.18083584113,0.0));
#571=TRIMMED_CURVE('',#569,(#565,PARAMETER_VALUE(0.0)),(#570,PARAMETER_VALUE(
43.4823781038409)),.T.,.PARAMETER.);
#572=DIRECTION('',(0.981634741272067,-0.190770109628638,0.0));
#573=VECTOR('',#572,1.0);
#574=LINE('',#570,#573);
#575=CARTESIAN_POINT('',(3821.43851583108,-8751.45213782629,0.0));
#576=TRIMMED_CURVE('',#574,(#570,PARAMETER_VALUE(0.0)),(#575,PARAMETER_VALUE(
43.3574316294257)),.T.,.PARAMETER.);
#577=DIRECTION('',(0.980732146356016,-0.195357255058324,0.0));
#578=VECTOR('',#577,1.0);
#579=LINE('',#575,#578);
#580=CARTESIAN_POINT('',(3863.81166376102,-8759.89267064509,0.0));
#581=TRIMMED_CURVE('',#579,(#575,PARAMETER_VALUE(0.0)),(#580,PARAMETER_VALUE(
43.2056276398965)),.T.,.PARAMETER.);
#582=DIRECTION('',(0.97928923729015,-0.202466268123053,0.0));
#583=VECTOR('',#582,1.0);
#584=LINE('',#580,#583);
#585=CARTESIAN_POINT('',(3905.94890147624,-8768.6044678796,0.0));
#586=TRIMMED_CURVE('',#584,(#580,PARAMETER_VALUE(0.0)),(#585,PARAMETER_VALUE(
43.0283884583687)),.T.,.PARAMETER.);
#587=CARTESIAN_POINT('',(3547.60332938058,-5465.59294618836,0.0));
#588=DIRECTION('',(-0.966094075301962,-0.258190312882663,0.0));
#589=VECTOR('',#588,1.0);
#590=LINE('',#587,#589);
#591=CARTESIAN_POINT('',(3524.09053152675,-5471.87678208988,0.0));
#592=TRIMMED_CURVE('',#590,(#587,PARAMETER_VALUE(0.0)),(#591,PARAMETER_VALUE(
24.3380002578732)),.T.,.PARAMETER.);
#593=DIRECTION('',(-0.952354740633259,-0.304992537602737,0.0));
#594=VECTOR('',#593,1.0);
#595=LINE('',#591,#594);
#596=CARTESIAN_POINT('',(3502.09692014047,-5478.92025765792,0.0));
#597=TRIMMED_CURVE('',#595,(#591,PARAMETER_VALUE(0.0)),(#596,PARAMETER_VALUE(
23.0939275544107)),.T.,.PARAMETER.);
#598=DIRECTION('',(-0.93443710075865,-0.356128213886191,0.0));
#599=VECTOR('',#598,1.0);
#600=LINE('',#596,#599);
#601=CARTESIAN_POINT('',(3481.62249522173,-5486.72337289246,0.0));
#602=TRIMMED_CURVE('',#600,(#596,PARAMETER_VALUE(0.0)),(#601,PARAMETER_VALUE(
21.9109717519939)),.T.,.PARAMETER.);
#603=DIRECTION('',(-0.91132867152958,-0.411679550680053,0.0));
#604=VECTOR('',#603,1.0);
#605=LINE('',#601,#604);
#606=CARTESIAN_POINT('',(3462.66725677054,-5495.28612779353,0.0));
#607=TRIMMED_CURVE('',#605,(#601,PARAMETER_VALUE(0.0)),(#606,PARAMETER_VALUE(
20.7995633665053)),.T.,.PARAMETER.);
#608=DIRECTION('',(-0.881869851064313,-0.471492911700491,0.0));
#609=VECTOR('',#608,1.0);
#610=LINE('',#606,#609);
#611=CARTESIAN_POINT('',(3445.23120478689,-5504.60833663014,0.0));
#612=TRIMMED_CURVE('',#610,(#606,PARAMETER_VALUE(0.0)),(#611,PARAMETER_VALUE(
19.7716839538216)),.T.,.PARAMETER.);
#613=DIRECTION('',(-0.844791076464829,-0.535096287714086,0.0));
#614=VECTOR('',#613,1.0);
#615=LINE('',#611,#614);
#616=CARTESIAN_POINT('',(3429.31433927079,-5514.69018513326,0.0));
#617=TRIMMED_CURVE('',#615,(#611,PARAMETER_VALUE(0.0)),(#616,PARAMETER_VALUE(
18.8411856606113)),.T.,.PARAMETER.);
#618=DIRECTION('',(-0.79885311674419,-0.601526140635712,0.0));
#619=VECTOR('',#618,1.0);
#620=LINE('',#616,#619);
#621=CARTESIAN_POINT('',(3414.91661378949,-5525.53148757193,0.0));
#622=TRIMMED_CURVE('',#620,(#616,PARAMETER_VALUE(0.0)),(#621,PARAMETER_VALUE(
18.0229946901602)),.T.,.PARAMETER.);
#623=DIRECTION('',(-0.742993302812362,-0.669298851019467,0.0));
#624=VECTOR('',#623,1.0);
#625=LINE('',#621,#624);
#626=CARTESIAN_POINT('',(3402.03812120848,-5537.13261540809,0.0));
#627=TRIMMED_CURVE('',#625,(#621,PARAMETER_VALUE(0.0)),(#626,PARAMETER_VALUE(
17.3332552692778)),.T.,.PARAMETER.);
#628=DIRECTION('',(-0.676656942868892,-0.736298432476483,0.0));
#629=VECTOR('',#628,1.0);
#630=LINE('',#626,#629);
#631=CARTESIAN_POINT('',(3390.67876866227,-5549.49319717979,0.0));
#632=TRIMMED_CURVE('',#630,(#626,PARAMETER_VALUE(0.0)),(#631,PARAMETER_VALUE(
16.787461749887)),.T.,.PARAMETER.);
#633=DIRECTION('',(-0.6,-0.8,0.0));
#634=VECTOR('',#633,1.0);
#635=LINE('',#631,#634);
#636=CARTESIAN_POINT('',(3380.83860258361,-5562.613418618,0.0));
#637=TRIMMED_CURVE('',#635,(#631,PARAMETER_VALUE(0.0)),(#636,PARAMETER_VALUE(
16.4002767977695)),.T.,.PARAMETER.);
#638=DIRECTION('',(-0.514183057905967,-0.85768046670218,0.0));
#639=VECTOR('',#638,1.0);
#640=LINE('',#636,#639);
#641=CARTESIAN_POINT('',(3372.51762297249,-5576.49318685725,0.0));
#642=TRIMMED_CURVE('',#640,(#636,PARAMETER_VALUE(0.0)),(#641,PARAMETER_VALUE(
16.1829128423716)),.T.,.PARAMETER.);
#643=DIRECTION('',(-0.421359927146799,-0.906893495287536,0.0));
#644=VECTOR('',#643,1.0);
#645=LINE('',#641,#644);
#646=CARTESIAN_POINT('',(3365.71587626166,-5591.13259476301,0.0));
#647=TRIMMED_CURVE('',#645,(#641,PARAMETER_VALUE(0.0)),(#646,PARAMETER_VALUE(
16.1423673031411)),.T.,.PARAMETER.);
#648=DIRECTION('',(-0.324488093614215,-0.945889780631238,0.0));
#649=VECTOR('',#648,1.0);
#650=LINE('',#646,#649);
#651=CARTESIAN_POINT('',(3360.4332231529,-5606.53164233529,0.0));
#652=TRIMMED_CURVE('',#650,(#646,PARAMETER_VALUE(0.0)),(#651,PARAMETER_VALUE(
16.2799597665599)),.T.,.PARAMETER.);
#653=DIRECTION('',(-0.226832709644881,-0.973933735854325,0.0));
#654=VECTOR('',#653,1.0);
#655=LINE('',#651,#654);
#656=CARTESIAN_POINT('',(3356.66984937716,-5622.69014384311,0.0));
#657=TRIMMED_CURVE('',#655,(#651,PARAMETER_VALUE(0.0)),(#656,PARAMETER_VALUE(
16.5909660102775)),.T.,.PARAMETER.);
#658=DIRECTION('',(-0.13150252389169,-0.991315835750703,0.0));
#659=VECTOR('',#658,1.0);
#660=LINE('',#656,#659);
#661=CARTESIAN_POINT('',(3354.42556920348,-5639.60837788293,0.0));
#662=TRIMMED_CURVE('',#660,(#656,PARAMETER_VALUE(0.0)),(#661,PARAMETER_VALUE(
17.0664418237707)),.T.,.PARAMETER.);
#663=DIRECTION('',(-0.0409829902839479,-0.999159844322912,0.0));
#664=VECTOR('',#663,1.0);
#665=LINE('',#661,#664);
#666=CARTESIAN_POINT('',(3353.70047549735,-5657.2860658583,0.0));
#667=TRIMMED_CURVE('',#665,(#661,PARAMETER_VALUE(0.0)),(#666,PARAMETER_VALUE(
17.6925524737709)),.T.,.PARAMETER.);
#668=DIRECTION('',(0.0430349713432498,-0.99907356648121,0.0));
#669=VECTOR('',#668,1.0);
#670=LINE('',#666,#669);
#671=CARTESIAN_POINT('',(3354.49466112425,-5675.72339350018,0.0));
#672=TRIMMED_CURVE('',#670,(#666,PARAMETER_VALUE(0.0)),(#671,PARAMETER_VALUE(
18.4544244392533)),.T.,.PARAMETER.);
#673=DIRECTION('',(0.119636845394118,-0.992817720039355,0.0));
#674=VECTOR('',#673,1.0);
#675=LINE('',#671,#674);
#676=CARTESIAN_POINT('',(3356.80794035321,-5694.92036080858,0.0));
#677=TRIMMED_CURVE('',#675,(#671,PARAMETER_VALUE(0.0)),(#676,PARAMETER_VALUE(
19.335842744262)),.T.,.PARAMETER.);
#678=DIRECTION('',(0.188594668080082,-0.982055014330543,0.0));
#679=VECTOR('',#678,1.0);
#680=LINE('',#676,#679);
#681=CARTESIAN_POINT('',(3360.64040604972,-5714.87687491801,0.0));
#682=TRIMMED_CURVE('',#680,(#676,PARAMETER_VALUE(0.0)),(#681,PARAMETER_VALUE(
20.3211773456829)),.T.,.PARAMETER.);
#683=DIRECTION('',(0.636880937230817,-0.770962172737415,0.0));
#684=VECTOR('',#683,1.0);
#685=LINE('',#681,#684);
#686=CARTESIAN_POINT('',(3381.62874856192,-5740.28385006743,0.0));
#687=TRIMMED_CURVE('',#685,(#681,PARAMETER_VALUE(0.0)),(#686,PARAMETER_VALUE(
32.9548920139699)),.T.,.PARAMETER.);
#688=DIRECTION('',(0.673885386269921,-0.73883589935238,0.0));
#689=VECTOR('',#688,1.0);
#690=LINE('',#686,#689);
#691=CARTESIAN_POINT('',(3403.47400733606,-5764.23460154806,0.0));
#692=TRIMMED_CURVE('',#690,(#686,PARAMETER_VALUE(0.0)),(#691,PARAMETER_VALUE(
32.4168756575461)),.T.,.PARAMETER.);
#693=DIRECTION('',(0.710350131106912,-0.703848485994246,0.0));
#694=VECTOR('',#693,1.0);
#695=LINE('',#691,#694);
#696=CARTESIAN_POINT('',(3426.17613593942,-5786.72894362895,0.0));
#697=TRIMMED_CURVE('',#695,(#691,PARAMETER_VALUE(0.0)),(#696,PARAMETER_VALUE(
31.9590686468703)),.T.,.PARAMETER.);
#698=DIRECTION('',(0.745887083331598,-0.666072412669284,0.0));
#699=VECTOR('',#698,1.0);
#700=LINE('',#696,#699);
#701=CARTESIAN_POINT('',(3449.73522723748,-5807.76706204105,0.0));
#702=TRIMMED_CURVE('',#700,(#696,PARAMETER_VALUE(0.0)),(#701,PARAMETER_VALUE(
31.5853321830218)),.T.,.PARAMETER.);
#703=DIRECTION('',(0.780103433779843,-0.625650567493467,0.0));
#704=VECTOR('',#703,1.0);
#705=LINE('',#701,#704);
#706=CARTESIAN_POINT('',(3474.151141932,-5827.34886391889,0.0));
#707=TRIMMED_CURVE('',#705,(#701,PARAMETER_VALUE(0.0)),(#706,PARAMETER_VALUE(
31.2983043494873)),.T.,.PARAMETER.);
#708=DIRECTION('',(0.812616166088499,-0.582799250695837,0.0));
#709=VECTOR('',#708,1.0);
#710=LINE('',#706,#709);
#711=CARTESIAN_POINT('',(3499.42397288847,-5845.47425639698,0.0));
#712=TRIMMED_CURVE('',#710,(#706,PARAMETER_VALUE(0.0)),(#711,PARAMETER_VALUE(
31.100576152851)),.T.,.PARAMETER.);
#713=DIRECTION('',(0.843060062993492,-0.537819421539804,0.0));
#714=VECTOR('',#713,1.0);
#715=LINE('',#711,#714);
#716=CARTESIAN_POINT('',(3525.55376653964,-5862.14342520629,0.0));
#717=TRIMMED_CURVE('',#715,(#711,PARAMETER_VALUE(0.0)),(#716,PARAMETER_VALUE(
30.9939882081331)),.T.,.PARAMETER.);
#718=DIRECTION('',(0.871122925747012,-0.491065014267934,0.0));
#719=VECTOR('',#718,1.0);
#720=LINE('',#716,#719);
#721=CARTESIAN_POINT('',(3552.54038358728,-5877.35618461585,0.0));
#722=TRIMMED_CURVE('',#720,(#716,PARAMETER_VALUE(0.0)),(#721,PARAMETER_VALUE(
30.9791147150604)),.T.,.PARAMETER.);
#723=DIRECTION('',(0.896545492065385,-0.442951668534205,0.0));
#724=VECTOR('',#723,1.0);
#725=LINE('',#721,#724);
#726=CARTESIAN_POINT('',(3580.38396332961,-5891.11272035663,0.0));
#727=TRIMMED_CURVE('',#725,(#721,PARAMETER_VALUE(0.0)),(#726,PARAMETER_VALUE(
31.0565163605772)),.T.,.PARAMETER.);
#728=DIRECTION('',(0.919144722356533,-0.393920016455284,0.0));
#729=VECTOR('',#728,1.0);
#730=LINE('',#726,#729);
#731=CARTESIAN_POINT('',(3609.08441290115,-5903.41293956314,0.0));
#732=TRIMMED_CURVE('',#730,(#726,PARAMETER_VALUE(0.0)),(#731,PARAMETER_VALUE(
31.2251693051742)),.T.,.PARAMETER.);
#733=DIRECTION('',(0.938812456487949,-0.344428761201882,0.0));
#734=VECTOR('',#733,1.0);
#735=LINE('',#731,#734);
#736=CARTESIAN_POINT('',(3638.6417323019,-5914.25684223539,0.0));
#737=TRIMMED_CURVE('',#735,(#731,PARAMETER_VALUE(0.0)),(#736,PARAMETER_VALUE(
31.4837315978126)),.T.,.PARAMETER.);
#738=DIRECTION('',(0.955520192625586,-0.294925688072036,0.0));
#739=VECTOR('',#738,1.0);
#740=LINE('',#736,#739);
#741=CARTESIAN_POINT('',(3669.0559679646,-5923.64433550789,0.0));
#742=TRIMMED_CURVE('',#740,(#736,PARAMETER_VALUE(0.0)),(#741,PARAMETER_VALUE(
31.8300292316473)),.T.,.PARAMETER.);
#743=DIRECTION('',(0.969309185333769,-0.245844876350079,0.0));
#744=VECTOR('',#743,1.0);
#745=LINE('',#741,#744);
#746=CARTESIAN_POINT('',(3700.32711988925,-5931.57560511161,0.0));
#747=TRIMMED_CURVE('',#745,(#741,PARAMETER_VALUE(0.0)),(#746,PARAMETER_VALUE(
32.2612767915603)),.T.,.PARAMETER.);
#748=DIRECTION('',(0.980290099096636,-0.197563462242153,0.0));
#749=VECTOR('',#748,1.0);
#750=LINE('',#746,#749);
#751=CARTESIAN_POINT('',(3732.45518807586,-5938.05055818106,0.0));
#752=TRIMMED_CURVE('',#750,(#746,PARAMETER_VALUE(0.0)),(#751,PARAMETER_VALUE(
32.7740412926881)),.T.,.PARAMETER.);
#753=DIRECTION('',(0.98862245027789,-0.1504182529035,0.0));
#754=VECTOR('',#753,1.0);
#755=LINE('',#751,#754);
#756=CARTESIAN_POINT('',(3765.44012609168,-5943.06919471624,0.0));
#757=TRIMMED_CURVE('',#755,(#751,PARAMETER_VALUE(0.0)),(#756,PARAMETER_VALUE(
33.3645447830408)),.T.,.PARAMETER.);
#758=DIRECTION('',(0.994505393107025,-0.104685352753108,0.0));
#759=VECTOR('',#758,1.0);
#760=LINE('',#756,#759);
#761=CARTESIAN_POINT('',(3799.28198036944,-5946.63151471716,0.0));
#762=TRIMMED_CURVE('',#760,(#756,PARAMETER_VALUE(0.0)),(#761,PARAMETER_VALUE(
34.0288293178986)),.T.,.PARAMETER.);
#763=DIRECTION('',(0.998163193953711,-0.0605824911680402,0.0));
#764=VECTOR('',#763,1.0);
#765=LINE('',#761,#764);
#766=CARTESIAN_POINT('',(3833.98070447642,-5948.73751818382,0.0));
#767=TRIMMED_CURVE('',#765,(#761,PARAMETER_VALUE(0.0)),(#766,PARAMETER_VALUE(
34.7625762171585)),.T.,.PARAMETER.);
#768=DIRECTION('',(0.99983310168366,-0.0182693398247395,0.0));
#769=VECTOR('',#768,1.0);
#770=LINE('',#766,#769);
#771=CARTESIAN_POINT('',(3869.53636806172,-5949.3872051162,0.0));
#772=TRIMMED_CURVE('',#770,(#766,PARAMETER_VALUE(0.0)),(#771,PARAMETER_VALUE(
35.5615987562605)),.T.,.PARAMETER.);
#773=DIRECTION('',(0.999754723061311,0.0221470927347266,0.0));
#774=VECTOR('',#773,1.0);
#775=LINE('',#771,#774);
#776=CARTESIAN_POINT('',(3905.94890147624,-5948.58057551433,0.0));
#777=TRIMMED_CURVE('',#775,(#771,PARAMETER_VALUE(0.0)),(#776,PARAMETER_VALUE(
36.421466760381)),.T.,.PARAMETER.);
#778=CARTESIAN_POINT('',(6554.59014507672,-5200.72888219088,0.0));
#779=DIRECTION('',(-0.999984206611609,-0.0056201892628263,0.0));
#780=VECTOR('',#779,1.0);
#781=LINE('',#778,#780);
#782=CARTESIAN_POINT('',(6448.39939428494,-5201.32570373413,0.0));
#783=TRIMMED_CURVE('',#781,(#778,PARAMETER_VALUE(0.0)),(#782,PARAMETER_VALUE(
106.192427930032)),.T.,.PARAMETER.);
#784=DIRECTION('',(-0.999996675295046,-0.00257864283176457,0.0));
#785=VECTOR('',#784,1.0);
#786=LINE('',#782,#785);
#787=CARTESIAN_POINT('',(6342.10113513298,-5201.59980988944,0.0));
#788=TRIMMED_CURVE('',#786,(#782,PARAMETER_VALUE(0.0)),(#787,PARAMETER_VALUE(
106.298612563484)),.T.,.PARAMETER.);
#789=DIRECTION('',(-0.999999847043205,-0.00055309453660093,0.0));
#790=VECTOR('',#789,1.0);
#791=LINE('',#787,#790);
#792=CARTESIAN_POINT('',(6235.71043035224,-5201.658654016,0.0));
#793=TRIMMED_CURVE('',#791,(#787,PARAMETER_VALUE(0.0)),(#792,PARAMETER_VALUE(
106.390721053929)),.T.,.PARAMETER.);
#794=DIRECTION('',(-0.999999901298551,0.0004443004475597,0.0));
#795=VECTOR('',#794,1.0);
#796=LINE('',#792,#795);
#797=CARTESIAN_POINT('',(6129.2403102415,-5201.61134928931,0.0));
#798=TRIMMED_CURVE('',#796,(#792,PARAMETER_VALUE(0.0)),(#797,PARAMETER_VALUE(
106.470130619492)),.T.,.PARAMETER.);
#799=DIRECTION('',(-0.999999906660556,0.00043206351267835,0.0));
#800=VECTOR('',#799,1.0);
#801=LINE('',#797,#800);
#802=CARTESIAN_POINT('',(6022.70593641543,-5201.56531966924,0.0));
#803=TRIMMED_CURVE('',#801,(#797,PARAMETER_VALUE(0.0)),(#802,PARAMETER_VALUE(
106.534383769928)),.T.,.PARAMETER.);
#804=DIRECTION('',(-0.999999821582736,-0.00059735625501239,0.0));
#805=VECTOR('',#804,1.0);
#806=LINE('',#802,#805);
#807=CARTESIAN_POINT('',(5916.1212226148,-5201.62898872608,0.0));
#808=TRIMMED_CURVE('',#806,(#802,PARAMETER_VALUE(0.0)),(#807,PARAMETER_VALUE(
106.584732817187)),.T.,.PARAMETER.);
#809=DIRECTION('',(-0.999996510579236,-0.00264174740509337,0.0));
#810=VECTOR('',#809,1.0);
#811=LINE('',#807,#810);
#812=CARTESIAN_POINT('',(5809.50011654309,-5201.91065573923,0.0));
#813=TRIMMED_CURVE('',#811,(#807,PARAMETER_VALUE(0.0)),(#812,PARAMETER_VALUE(
106.621478118911)),.T.,.PARAMETER.);
#814=DIRECTION('',(-0.999983792014307,-0.00569347948853912,0.0));
#815=VECTOR('',#814,1.0);
#816=LINE('',#812,#815);
#817=CARTESIAN_POINT('',(5702.85754898899,-5202.51783285132,0.0));
#818=TRIMMED_CURVE('',#816,(#812,PARAMETER_VALUE(0.0)),(#817,PARAMETER_VALUE(
106.644296043324)),.T.,.PARAMETER.);
#819=DIRECTION('',(-0.9999523222371,-0.00976489900776568,0.0));
#820=VECTOR('',#819,1.0);
#821=LINE('',#817,#820);
#822=CARTESIAN_POINT('',(5596.20718613692,-5203.55931252913,0.0));
#823=TRIMMED_CURVE('',#821,(#817,PARAMETER_VALUE(0.0)),(#822,PARAMETER_VALUE(
106.655447945231)),.T.,.PARAMETER.);
#824=DIRECTION('',(-0.999889702419913,-0.0148520367161119,0.0));
#825=VECTOR('',#824,1.0);
#826=LINE('',#822,#825);
#827=CARTESIAN_POINT('',(5489.56307091683,-5205.1433695616,0.0));
#828=TRIMMED_CURVE('',#826,(#822,PARAMETER_VALUE(0.0)),(#827,PARAMETER_VALUE(
106.655879105463)),.T.,.PARAMETER.);
#829=DIRECTION('',(-0.999780525682939,-0.0209499514354398,0.0));
#830=VECTOR('',#829,1.0);
#831=LINE('',#827,#830);
#832=CARTESIAN_POINT('',(5382.93999041389,-5207.37760827805,0.0));
#833=TRIMMED_CURVE('',#831,(#827,PARAMETER_VALUE(0.0)),(#832,PARAMETER_VALUE(
106.646486667763)),.T.,.PARAMETER.);
#834=DIRECTION('',(-0.999606020180212,-0.0280678538452423,0.0));
#835=VECTOR('',#834,1.0);
#836=LINE('',#832,#835);
#837=CARTESIAN_POINT('',(5276.35183802753,-5210.37048809511,0.0));
#838=TRIMMED_CURVE('',#836,(#832,PARAMETER_VALUE(0.0)),(#837,PARAMETER_VALUE(
106.630162518577)),.T.,.PARAMETER.);
#839=DIRECTION('',(-0.999344438970226,-0.036203484629017,0.0));
#840=VECTOR('',#839,1.0);
#841=LINE('',#837,#840);
#842=CARTESIAN_POINT('',(5169.81274643708,-5214.23010467411,0.0));
#843=TRIMMED_CURVE('',#841,(#837,PARAMETER_VALUE(0.0)),(#842,PARAMETER_VALUE(
106.608980283342)),.T.,.PARAMETER.);
#844=DIRECTION('',(-0.998970803770629,-0.0453578351981575,0.0));
#845=VECTOR('',#844,1.0);
#846=LINE('',#842,#845);
#847=CARTESIAN_POINT('',(5063.33726709021,-5219.06457754022,0.0));
#848=TRIMMED_CURVE('',#846,(#842,PARAMETER_VALUE(0.0)),(#847,PARAMETER_VALUE(
106.585176408537)),.T.,.PARAMETER.);
#849=DIRECTION('',(-0.998456972026775,-0.0555308473834563,0.0));
#850=VECTOR('',#849,1.0);
#851=LINE('',#847,#850);
#852=CARTESIAN_POINT('',(4956.93932969228,-5224.98207602948,0.0));
#853=TRIMMED_CURVE('',#851,(#847,PARAMETER_VALUE(0.0)),(#852,PARAMETER_VALUE(
106.562366109736)),.T.,.PARAMETER.);
#854=DIRECTION('',(-0.997771765669515,-0.0667195895726174,0.0));
#855=VECTOR('',#854,1.0);
#856=LINE('',#852,#855);
#857=CARTESIAN_POINT('',(4850.6334317256,-5232.09060137117,0.0));
#858=TRIMMED_CURVE('',#856,(#852,PARAMETER_VALUE(0.0)),(#857,PARAMETER_VALUE(
106.543301408555)),.T.,.PARAMETER.);
#859=DIRECTION('',(-0.996880411003876,-0.0789268405344049,0.0));
#860=VECTOR('',#859,1.0);
#861=LINE('',#857,#860);
#862=CARTESIAN_POINT('',(4744.43351279872,-5240.49885573487,0.0));
#863=TRIMMED_CURVE('',#861,(#857,PARAMETER_VALUE(0.0)),(#862,PARAMETER_VALUE(
106.532255779749)),.T.,.PARAMETER.);
#864=DIRECTION('',(-0.995746394671122,-0.0921364070249185,0.0));
#865=VECTOR('',#864,1.0);
#866=LINE('',#862,#865);
#867=CARTESIAN_POINT('',(4638.35387397147,-5250.31440398325,0.0));
#868=TRIMMED_CURVE('',#866,(#862,PARAMETER_VALUE(0.0)),(#867,PARAMETER_VALUE(
106.532787258834)),.T.,.PARAMETER.);
#869=DIRECTION('',(-0.99432918446436,-0.106346005672246,0.0));
#870=VECTOR('',#869,1.0);
#871=LINE('',#867,#870);
#872=CARTESIAN_POINT('',(4532.4089224065,-5261.64548286146,0.0));
#873=TRIMMED_CURVE('',#871,(#867,PARAMETER_VALUE(0.0)),(#872,PARAMETER_VALUE(
106.549172266364)),.T.,.PARAMETER.);
#874=DIRECTION('',(-0.993060162862241,-0.117607452723112,0.0));
#875=VECTOR('',#874,1.0);
#876=LINE('',#872,#875);
#877=CARTESIAN_POINT('',(4479.75673266785,-5267.88104657354,0.0));
#878=TRIMMED_CURVE('',#876,(#872,PARAMETER_VALUE(0.0)),(#877,PARAMETER_VALUE(
53.0201408813907)),.T.,.PARAMETER.);
#879=DIRECTION('',(-0.992099371598035,-0.125454521141266,0.0));
#880=VECTOR('',#879,1.0);
#881=LINE('',#877,#880);
#882=CARTESIAN_POINT('',(4427.14947627574,-5274.53342268441,0.0));
#883=TRIMMED_CURVE('',#881,(#877,PARAMETER_VALUE(0.0)),(#882,PARAMETER_VALUE(
53.0261966675432)),.T.,.PARAMETER.);
#884=DIRECTION('',(-0.991039162482158,-0.13357162283458,0.0));
#885=VECTOR('',#884,1.0);
#886=LINE('',#882,#885);
#887=CARTESIAN_POINT('',(4374.59542418253,-5281.61662412626,0.0));
#888=TRIMMED_CURVE('',#886,(#882,PARAMETER_VALUE(0.0)),(#887,PARAMETER_VALUE(
53.0292384829543)),.T.,.PARAMETER.);
#889=DIRECTION('',(-0.989868375311056,-0.141988026111536,0.0));
#890=VECTOR('',#889,1.0);
#891=LINE('',#887,#890);
#892=CARTESIAN_POINT('',(4322.10253875775,-5289.14627288792,0.0));
#893=TRIMMED_CURVE('',#891,(#887,PARAMETER_VALUE(0.0)),(#892,PARAMETER_VALUE(
53.0301671757963)),.T.,.PARAMETER.);
#894=DIRECTION('',(-0.988583471855373,-0.150674215360086,0.0));
#895=VECTOR('',#894,1.0);
#896=LINE('',#892,#895);
#897=CARTESIAN_POINT('',(4269.67912715577,-5297.13634821742,0.0));
#898=TRIMMED_CURVE('',#896,(#892,PARAMETER_VALUE(0.0)),(#897,PARAMETER_VALUE(
53.0288165789358)),.T.,.PARAMETER.);
#899=DIRECTION('',(-0.98717410366482,-0.159647389748656,0.0));
#900=VECTOR('',#899,1.0);
#901=LINE('',#897,#900);
#902=CARTESIAN_POINT('',(4217.33329898667,-5305.60180005657,0.0));
#903=TRIMMED_CURVE('',#901,(#897,PARAMETER_VALUE(0.0)),(#902,PARAMETER_VALUE(
53.0259332925823)),.T.,.PARAMETER.);
#904=DIRECTION('',(-0.985632359838022,-0.168904858545074,0.0));
#905=VECTOR('',#904,1.0);
#906=LINE('',#902,#905);
#907=CARTESIAN_POINT('',(4165.07312923591,-5314.55746845685,0.0));
#908=TRIMMED_CURVE('',#906,(#902,PARAMETER_VALUE(0.0)),(#907,PARAMETER_VALUE(
53.021970341299)),.T.,.PARAMETER.);
#909=DIRECTION('',(-0.983952200040876,-0.178432250545464,0.0));
#910=VECTOR('',#909,1.0);
#911=LINE('',#907,#910);
#912=CARTESIAN_POINT('',(4112.9068481943,-5324.01742690651,0.0));
#913=TRIMMED_CURVE('',#911,(#907,PARAMETER_VALUE(0.0)),(#912,PARAMETER_VALUE(
53.0170886750839)),.T.,.PARAMETER.);
#914=DIRECTION('',(-0.982121065284944,-0.188250400062172,0.0));
#915=VECTOR('',#914,1.0);
#916=LINE('',#912,#915);
#917=CARTESIAN_POINT('',(4060.84259701177,-5333.99696655848,0.0));
#918=TRIMMED_CURVE('',#916,(#912,PARAMETER_VALUE(0.0)),(#917,PARAMETER_VALUE(
53.0120501665716)),.T.,.PARAMETER.);
#919=DIRECTION('',(-0.980131490194612,-0.198348838990527,0.0));
#920=VECTOR('',#919,1.0);
#921=LINE('',#917,#920);
#922=CARTESIAN_POINT('',(4008.88848743945,-5344.51090006389,0.0));
#923=TRIMMED_CURVE('',#921,(#917,PARAMETER_VALUE(0.0)),(#922,PARAMETER_VALUE(
53.007285340878)),.T.,.PARAMETER.);
#924=DIRECTION('',(-0.977976689865323,-0.208714144417826,0.0));
#925=VECTOR('',#924,1.0);
#926=LINE('',#922,#925);
#927=CARTESIAN_POINT('',(3957.05271744885,-5355.57339111908,0.0));
#928=TRIMMED_CURVE('',#926,(#922,PARAMETER_VALUE(0.0)),(#927,PARAMETER_VALUE(
53.0030731077331)),.T.,.PARAMETER.);
#929=DIRECTION('',(-0.975644339378282,-0.219358435076281,0.0));
#930=VECTOR('',#929,1.0);
#931=LINE('',#927,#930);
#932=CARTESIAN_POINT('',(3905.34340261433,-5367.19942524151,0.0));
#933=TRIMMED_CURVE('',#931,(#927,PARAMETER_VALUE(0.0)),(#932,PARAMETER_VALUE(
53.000168962678)),.T.,.PARAMETER.);
#934=DIRECTION('',(-0.973126205145669,-0.230272423140048,0.0));
#935=VECTOR('',#934,1.0);
#936=LINE('',#932,#935);
#937=CARTESIAN_POINT('',(3853.76862179191,-5379.40364879453,0.0));
#938=TRIMMED_CURVE('',#936,(#932,PARAMETER_VALUE(0.0)),(#937,PARAMETER_VALUE(
52.9990668730272)),.T.,.PARAMETER.);
#939=DIRECTION('',(-0.970412444964119,-0.241453280488713,0.0));
#940=VECTOR('',#939,1.0);
#941=LINE('',#937,#940);
#942=CARTESIAN_POINT('',(3802.33667387116,-5392.20069464017,0.0));
#943=TRIMMED_CURVE('',#941,(#937,PARAMETER_VALUE(0.0)),(#942,PARAMETER_VALUE(
53.0000910310466)),.T.,.PARAMETER.);
#944=DIRECTION('',(-0.967493121331476,-0.252897331295286,0.0));
#945=VECTOR('',#944,1.0);
#946=LINE('',#942,#945);
#947=CARTESIAN_POINT('',(3751.05556809879,-5405.60529102413,0.0));
#948=TRIMMED_CURVE('',#946,(#942,PARAMETER_VALUE(0.0)),(#947,PARAMETER_VALUE(
53.0041037416282)),.T.,.PARAMETER.);
#949=DIRECTION('',(-0.964358972843663,-0.264597376207541,0.0));
#950=VECTOR('',#949,1.0);
#951=LINE('',#947,#950);
#952=CARTESIAN_POINT('',(3699.93352810869,-5419.63197406299,0.0));
#953=TRIMMED_CURVE('',#951,(#947,PARAMETER_VALUE(0.0)),(#952,PARAMETER_VALUE(
53.0114215035004)),.T.,.PARAMETER.);
#954=DIRECTION('',(-0.960996780955365,-0.276559554153217,0.0));
#955=VECTOR('',#954,1.0);
#956=LINE('',#952,#955);
#957=CARTESIAN_POINT('',(3648.97879277926,-5434.29593461309,0.0));
#958=TRIMMED_CURVE('',#956,(#952,PARAMETER_VALUE(0.0)),(#957,PARAMETER_VALUE(
53.0227950178733)),.T.,.PARAMETER.);
#959=DIRECTION('',(-0.957402019669003,-0.288758329288895,0.0));
#960=VECTOR('',#959,1.0);
#961=LINE('',#957,#960);
#962=CARTESIAN_POINT('',(3598.19929978768,-5449.61134157604,0.0));
#963=TRIMMED_CURVE('',#961,(#957,PARAMETER_VALUE(0.0)),(#962,PARAMETER_VALUE(
53.0388404749075)),.T.,.PARAMETER.);
#964=DIRECTION('',(-0.95356139549026,-0.301198713527579,0.0));
#965=VECTOR('',#964,1.0);
#966=LINE('',#962,#965);
#967=TRIMMED_CURVE('',#966,(#962,PARAMETER_VALUE(0.0)),(#587,PARAMETER_VALUE(
53.0600028969185)),.T.,.PARAMETER.);
#968=DIRECTION('',(0.985555773401524,-0.169351166263843,0.0));
#969=VECTOR('',#968,1.0);
#970=LINE('',#585,#969);
#971=CARTESIAN_POINT('',(3988.45136440525,-8782.78112707409,0.0));
#972=TRIMMED_CURVE('',#970,(#585,PARAMETER_VALUE(0.0)),(#971,PARAMETER_VALUE(
83.7116124278509)),.T.,.PARAMETER.);
#973=DIRECTION('',(0.98677836539886,-0.162075468781536,0.0));
#974=VECTOR('',#973,1.0);
#975=LINE('',#971,#974);
#976=CARTESIAN_POINT('',(4071.01802060071,-8796.3424595656,0.0));
#977=TRIMMED_CURVE('',#975,(#971,PARAMETER_VALUE(0.0)),(#976,PARAMETER_VALUE(
83.6729493578685)),.T.,.PARAMETER.);
#978=DIRECTION('',(0.987948914899658,-0.154780300906118,0.0));
#979=VECTOR('',#978,1.0);
#980=LINE('',#976,#979);
#981=CARTESIAN_POINT('',(4153.64885482687,-8809.28809389219,0.0));
#982=TRIMMED_CURVE('',#980,(#976,PARAMETER_VALUE(0.0)),(#981,PARAMETER_VALUE(
83.6387721874748)),.T.,.PARAMETER.);
#983=DIRECTION('',(0.989065726221253,-0.147475385113671,0.0));
#984=VECTOR('',#983,1.0);
#985=LINE('',#981,#984);
#986=CARTESIAN_POINT('',(4236.34390698686,-8821.61840151582,0.0));
#987=TRIMMED_CURVE('',#985,(#981,PARAMETER_VALUE(0.0)),(#986,PARAMETER_VALUE(
83.6092586848888)),.T.,.PARAMETER.);
#988=DIRECTION('',(0.990129502149622,-0.140155517097761,0.0));
#989=VECTOR('',#988,1.0);
#990=LINE('',#986,#989);
#991=CARTESIAN_POINT('',(4319.10314878573,-8833.33319670549,0.0));
#992=TRIMMED_CURVE('',#990,(#986,PARAMETER_VALUE(0.0)),(#991,PARAMETER_VALUE(
83.5842600581006)),.T.,.PARAMETER.);
#993=DIRECTION('',(0.991139629808463,-0.132824072453537,0.0));
#994=VECTOR('',#993,1.0);
#995=LINE('',#991,#994);
#996=CARTESIAN_POINT('',(4401.92653161421,-8844.43247946123,0.0));
#997=TRIMMED_CURVE('',#995,(#991,PARAMETER_VALUE(0.0)),(#996,PARAMETER_VALUE(
83.5637889330306)),.T.,.PARAMETER.);
#998=DIRECTION('',(0.992095895111846,-0.125482010273288,0.0));
#999=VECTOR('',#998,1.0);
#1000=LINE('',#996,#999);
#1001=CARTESIAN_POINT('',(4484.81415414187,-8854.91624978302,0.0));
#1002=TRIMMED_CURVE('',#1000,(#996,PARAMETER_VALUE(0.0)),(#1001,PARAMETER_VALUE(
83.5479946404924)),.T.,.PARAMETER.);
#1003=DIRECTION('',(0.99299778761138,-0.118132949674951,0.0));
#1004=VECTOR('',#1003,1.0);
#1005=LINE('',#1001,#1004);
#1006=CARTESIAN_POINT('',(4567.76596993596,-8864.78469340183,0.0));
#1007=TRIMMED_CURVE('',#1005,(#1001,PARAMETER_VALUE(0.0)),(#1006,PARAMETER_VALUE
(83.5367579152779)),.T.,.PARAMETER.);
#1008=DIRECTION('',(0.993845910577305,-0.110771413409628,0.0));
#1009=VECTOR('',#1008,1.0);
#1010=LINE('',#1006,#1009);
#1011=CARTESIAN_POINT('',(4650.78200221287,-8874.03743885573,0.0));
#1012=TRIMMED_CURVE('',#1010,(#1006,PARAMETER_VALUE(0.0)),(#1011,PARAMETER_VALUE
(83.5300838826085)),.T.,.PARAMETER.);
#1013=DIRECTION('',(0.994639076974724,-0.103407478234749,0.0));
#1014=VECTOR('',#1013,1.0);
#1015=LINE('',#1011,#1014);
#1016=CARTESIAN_POINT('',(4733.86220453985,-8882.67485760666,0.0));
#1017=TRIMMED_CURVE('',#1015,(#1011,PARAMETER_VALUE(0.0)),(#1016,PARAMETER_VALUE
(83.5279894488704)),.T.,.PARAMETER.);
#1018=DIRECTION('',(0.995377884876133,-0.0960357553180846,0.0));
#1019=VECTOR('',#1018,1.0);
#1020=LINE('',#1016,#1019);
#1021=CARTESIAN_POINT('',(4817.00653048416,-8890.69676392364,0.0));
#1022=TRIMMED_CURVE('',#1020,(#1016,PARAMETER_VALUE(0.0)),(#1021,PARAMETER_VALUE
(83.5304131301366)),.T.,.PARAMETER.);
#1023=DIRECTION('',(0.996061992916526,-0.0886594962040624,0.0));
#1024=VECTOR('',#1023,1.0);
#1025=LINE('',#1021,#1024);
#1026=CARTESIAN_POINT('',(4900.21507291127,-8898.10315780668,0.0));
#1027=TRIMMED_CURVE('',#1025,(#1021,PARAMETER_VALUE(0.0)),(#1026,PARAMETER_VALUE
(83.5375137479908)),.T.,.PARAMETER.);
#1028=DIRECTION('',(0.996691128064998,-0.0812821950769128,0.0));
#1029=VECTOR('',#1028,1.0);
#1030=LINE('',#1026,#1029);
#1031=CARTESIAN_POINT('',(4983.48787825394,-8904.89422498675,0.0));
#1032=TRIMMED_CURVE('',#1030,(#1026,PARAMETER_VALUE(0.0)),(#1031,PARAMETER_VALUE
(83.5492591414332)),.T.,.PARAMETER.);
#1033=DIRECTION('',(0.997265758924099,-0.0738986202681771,0.0));
#1034=VECTOR('',#1033,1.0);
#1035=LINE('',#1031,#1034);
#1036=CARTESIAN_POINT('',(5066.82480721394,-8911.0695940019,0.0));
#1037=TRIMMED_CURVE('',#1035,(#1031,PARAMETER_VALUE(0.0)),(#1036,PARAMETER_VALUE
(83.5654169555606)),.T.,.PARAMETER.);
#1038=DIRECTION('',(0.99778518735243,-0.0665185680849762,0.0));
#1039=VECTOR('',#1038,1.0);
#1040=LINE('',#1036,#1039);
#1041=CARTESIAN_POINT('',(5150.22599908949,-8916.62963631407,0.0));
#1042=TRIMMED_CURVE('',#1040,(#1036,PARAMETER_VALUE(0.0)),(#1041,PARAMETER_VALUE
(83.586319914059)),.T.,.PARAMETER.);
#1043=DIRECTION('',(0.998249882710807,-0.0591368892305052,0.0));
#1044=VECTOR('',#1043,1.0);
#1045=LINE('',#1041,#1044);
#1046=CARTESIAN_POINT('',(5233.69126814962,-8921.5741661923,0.0));
#1047=TRIMMED_CURVE('',#1045,(#1041,PARAMETER_VALUE(0.0)),(#1046,PARAMETER_VALUE
(83.6115991654098)),.T.,.PARAMETER.);
#1048=DIRECTION('',(0.99865972232398,-0.051756729106382,0.0));
#1049=VECTOR('',#1048,1.0);
#1050=LINE('',#1046,#1049);
#1051=CARTESIAN_POINT('',(5317.22080012531,-8925.90318363659,0.0));
#1052=TRIMMED_CURVE('',#1050,(#1046,PARAMETER_VALUE(0.0)),(#1051,PARAMETER_VALUE
(83.6416349918524)),.T.,.PARAMETER.);
#1053=DIRECTION('',(0.999014648633013,-0.0443816608145576,0.0));
#1054=VECTOR('',#1053,1.0);
#1055=LINE('',#1051,#1054);
#1056=CARTESIAN_POINT('',(5400.81459501655,-8929.6168743779,0.0));
#1057=TRIMMED_CURVE('',#1055,(#1051,PARAMETER_VALUE(0.0)),(#1056,PARAMETER_VALUE
(83.676245394024)),.T.,.PARAMETER.);
#1058=DIRECTION('',(0.999315031299528,-0.0370063267404808,0.0));
#1059=VECTOR('',#1058,1.0);
#1060=LINE('',#1056,#1059);
#1061=CARTESIAN_POINT('',(5484.47246709237,-8932.7148669543,0.0));
#1062=TRIMMED_CURVE('',#1060,(#1056,PARAMETER_VALUE(0.0)),(#1061,PARAMETER_VALUE
(83.7152143774262)),.T.,.PARAMETER.);
#1063=CARTESIAN_POINT('',(8798.14522504705,-6647.22647014102,0.0));
#1064=DIRECTION('',(-0.126923360762171,0.991912526633693,0.0));
#1065=VECTOR('',#1064,1.0);
#1066=LINE('',#1063,#1065);
#1067=CARTESIAN_POINT('',(8776.5108344332,-6478.15260598313,0.0));
#1068=TRIMMED_CURVE('',#1066,(#1063,PARAMETER_VALUE(0.0)),(#1067,PARAMETER_VALUE
(170.452393349325)),.T.,.PARAMETER.);
#1069=DIRECTION('',(-0.250558751504832,0.968101395538887,0.0));
#1070=VECTOR('',#1069,1.0);
#1071=LINE('',#1067,#1070);
#1072=CARTESIAN_POINT('',(8736.02199850007,-6321.71305503871,0.0));
#1073=TRIMMED_CURVE('',#1071,(#1067,PARAMETER_VALUE(0.0)),(#1072,PARAMETER_VALUE
(161.594179768061)),.T.,.PARAMETER.);
#1074=DIRECTION('',(-0.372613492753212,0.927986629762655,0.0));
#1075=VECTOR('',#1074,1.0);
#1076=LINE('',#1072,#1075);
#1077=CARTESIAN_POINT('',(8678.11644758194,-6177.50041087488,0.0));
#1078=TRIMMED_CURVE('',#1076,(#1072,PARAMETER_VALUE(0.0)),(#1077,PARAMETER_VALUE
(155.40379520416)),.T.,.PARAMETER.);
#1079=DIRECTION('',(-0.487341271553459,0.873211592365022,0.0));
#1080=VECTOR('',#1079,1.0);
#1081=LINE('',#1077,#1080);
#1082=CARTESIAN_POINT('',(8604.22784129396,-6045.10779132781,0.0));
#1083=TRIMMED_CURVE('',#1081,(#1077,PARAMETER_VALUE(0.0)),(#1082,PARAMETER_VALUE
(151.615737473771)),.T.,.PARAMETER.);
#1084=DIRECTION('',(-0.590126965524188,0.807310451165606,0.0));
#1085=VECTOR('',#1084,1.0);
#1086=LINE('',#1082,#1085);
#1087=CARTESIAN_POINT('',(8515.79404495307,-5924.12784600565,0.0));
#1088=TRIMMED_CURVE('',#1086,(#1082,PARAMETER_VALUE(0.0)),(#1087,PARAMETER_VALUE
(149.855542124459)),.T.,.PARAMETER.);
#1089=DIRECTION('',(-0.678384018771025,0.734707508520277,0.0));
#1090=VECTOR('',#1089,1.0);
#1091=LINE('',#1087,#1090);
#1092=CARTESIAN_POINT('',(8414.25045947203,-5814.15350605857,0.0));
#1093=TRIMMED_CURVE('',#1091,(#1087,PARAMETER_VALUE(0.0)),(#1092,PARAMETER_VALUE
(149.684518902728)),.T.,.PARAMETER.);
#1094=DIRECTION('',(-0.751554849166368,0.659670606207764,0.0));
#1095=VECTOR('',#1094,1.0);
#1096=LINE('',#1092,#1095);
#1097=CARTESIAN_POINT('',(8301.03264043382,-5714.77756909096,0.0));
#1098=TRIMMED_CURVE('',#1096,(#1092,PARAMETER_VALUE(0.0)),(#1097,PARAMETER_VALUE
(150.64478549209)),.T.,.PARAMETER.);
#1099=DIRECTION('',(-0.810606174949622,0.585591691482676,0.0));
#1100=VECTOR('',#1099,1.0);
#1101=LINE('',#1097,#1100);
#1102=CARTESIAN_POINT('',(8177.57815350432,-5625.59255661969,0.0));
#1103=TRIMMED_CURVE('',#1101,(#1097,PARAMETER_VALUE(0.0)),(#1102,PARAMETER_VALUE
(152.298971738251)),.T.,.PARAMETER.);
#1104=DIRECTION('',(-0.857358608833644,0.514719550686428,0.0));
#1105=VECTOR('',#1104,1.0);
#1106=LINE('',#1102,#1105);
#1107=CARTESIAN_POINT('',(8045.32169410395,-5546.19172637603,0.0));
#1108=TRIMMED_CURVE('',#1106,(#1102,PARAMETER_VALUE(0.0)),(#1107,PARAMETER_VALUE
(154.260373707907)),.T.,.PARAMETER.);
#1109=DIRECTION('',(-0.893882758428965,0.448300807698832,0.0));
#1110=VECTOR('',#1109,1.0);
#1111=LINE('',#1107,#1110);
#1112=CARTESIAN_POINT('',(7905.69888634836,-5476.16798232259,0.0));
#1113=TRIMMED_CURVE('',#1111,(#1107,PARAMETER_VALUE(0.0)),(#1112,PARAMETER_VALUE
(156.198121553415)),.T.,.PARAMETER.);
#1114=DIRECTION('',(-0.922157432133416,0.386814775262146,0.0));
#1115=VECTOR('',#1114,1.0);
#1116=LINE('',#1112,#1115);
#1117=CARTESIAN_POINT('',(7760.14710251192,-5415.1137863775,0.0));
#1118=TRIMMED_CURVE('',#1116,(#1112,PARAMETER_VALUE(0.0)),(#1117,PARAMETER_VALUE
(157.83832430836)),.T.,.PARAMETER.);
#1119=DIRECTION('',(-0.943905981819794,0.330214320532607,0.0));
#1120=VECTOR('',#1119,1.0);
#1121=LINE('',#1117,#1120);
#1122=CARTESIAN_POINT('',(7610.101608946,-5362.62214879796,0.0));
#1123=TRIMMED_CURVE('',#1121,(#1117,PARAMETER_VALUE(0.0)),(#1122,PARAMETER_VALUE
(158.962329358954)),.T.,.PARAMETER.);
#1124=DIRECTION('',(-0.96053580672852,0.278156366082806,0.0));
#1125=VECTOR('',#1124,1.0);
#1126=LINE('',#1122,#1125);
#1127=CARTESIAN_POINT('',(7456.99836959163,-5318.28581027106,0.0));
#1128=TRIMMED_CURVE('',#1126,(#1122,PARAMETER_VALUE(0.0)),(#1127,PARAMETER_VALUE
(159.393578336055)),.T.,.PARAMETER.);
#1129=DIRECTION('',(-0.973160851865094,0.230125957677972,0.0));
#1130=VECTOR('',#1129,1.0);
#1131=LINE('',#1127,#1130);
#1132=CARTESIAN_POINT('',(7302.27392269426,-5281.6977051801,0.0));
#1133=TRIMMED_CURVE('',#1131,(#1127,PARAMETER_VALUE(0.0)),(#1132,PARAMETER_VALUE
(158.991647270677)),.T.,.PARAMETER.);
#1134=DIRECTION('',(-0.982639888800804,0.18552317628141,0.0));
#1135=VECTOR('',#1134,1.0);
#1136=LINE('',#1132,#1135);
#1137=CARTESIAN_POINT('',(7147.36386389128,-5252.45056543479,0.0));
#1138=TRIMMED_CURVE('',#1136,(#1132,PARAMETER_VALUE(0.0)),(#1137,PARAMETER_VALUE
(157.646825218985)),.T.,.PARAMETER.);
#1139=DIRECTION('',(-0.98962034725518,0.143706535336907,0.0));
#1140=VECTOR('',#1139,1.0);
#1141=LINE('',#1137,#1140);
#1142=CARTESIAN_POINT('',(6993.70475881671,-5230.13714223722,0.0));
#1143=TRIMMED_CURVE('',#1141,(#1137,PARAMETER_VALUE(0.0)),(#1142,PARAMETER_VALUE
(155.270761662048)),.T.,.PARAMETER.);
#1144=DIRECTION('',(-0.994577603751577,0.103997067822949,0.0));
#1145=VECTOR('',#1144,1.0);
#1146=LINE('',#1142,#1145);
#1147=CARTESIAN_POINT('',(6842.73170865837,-5214.35078783156,0.0));
#1148=TRIMMED_CURVE('',#1146,(#1142,PARAMETER_VALUE(0.0)),(#1147,PARAMETER_VALUE
(151.796149027352)),.T.,.PARAMETER.);
#1149=DIRECTION('',(-0.997840258541941,0.0656872775577701,0.0));
#1150=VECTOR('',#1149,1.0);
#1151=LINE('',#1147,#1150);
#1152=CARTESIAN_POINT('',(6695.88144089808,-5204.68371515612,0.0));
#1153=TRIMMED_CURVE('',#1151,(#1147,PARAMETER_VALUE(0.0)),(#1152,PARAMETER_VALUE
(147.168112834884)),.T.,.PARAMETER.);
#1154=DIRECTION('',(-0.999608492238436,0.027979675566396,0.0));
#1155=VECTOR('',#1154,1.0);
#1156=LINE('',#1152,#1155);
#1157=TRIMMED_CURVE('',#1156,(#1152,PARAMETER_VALUE(0.0)),(#778,PARAMETER_VALUE(
141.34663412569)),.T.,.PARAMETER.);
#1158=CARTESIAN_POINT('',(7084.31845880265,-8932.7148669543,0.0));
#1159=DIRECTION('',(0.996901938715123,0.0786544632301917,0.0));
#1160=VECTOR('',#1159,1.0);
#1161=LINE('',#1158,#1160);
#1162=CARTESIAN_POINT('',(7227.13909223421,-8921.44647652943,0.0));
#1163=TRIMMED_CURVE('',#1161,(#1158,PARAMETER_VALUE(0.0)),(#1162,PARAMETER_VALUE
(143.264475556779)),.T.,.PARAMETER.);
#1164=DIRECTION('',(0.986313873809207,0.164878568441975,0.0));
#1165=VECTOR('',#1164,1.0);
#1166=LINE('',#1162,#1165);
#1167=CARTESIAN_POINT('',(7368.73441293947,-8897.77649236323,0.0));
#1168=TRIMMED_CURVE('',#1166,(#1162,PARAMETER_VALUE(0.0)),(#1167,PARAMETER_VALUE
(143.560102382424)),.T.,.PARAMETER.);
#1169=DIRECTION('',(0.969099784636728,0.246669024032302,0.0));
#1170=VECTOR('',#1169,1.0);
#1171=LINE('',#1167,#1170);
#1172=CARTESIAN_POINT('',(7508.28994050486,-8862.25483986821,0.0));
#1173=TRIMMED_CURVE('',#1171,(#1167,PARAMETER_VALUE(0.0)),(#1172,PARAMETER_VALUE
(144.005323061452)),.T.,.PARAMETER.);
#1174=DIRECTION('',(0.946037472123309,0.324057250094085,0.0));
#1175=VECTOR('',#1174,1.0);
#1176=LINE('',#1172,#1175);
#1177=CARTESIAN_POINT('',(7644.98862749158,-8815.4298441342,0.0));
#1178=TRIMMED_CURVE('',#1176,(#1172,PARAMETER_VALUE(0.0)),(#1177,PARAMETER_VALUE
(144.496059632726)),.T.,.PARAMETER.);
#1179=DIRECTION('',(0.91772374924608,0.397219234264553,0.0));
#1180=VECTOR('',#1179,1.0);
#1181=LINE('',#1177,#1180);
#1182=CARTESIAN_POINT('',(7778.01596001623,-8757.8514985753,0.0));
#1183=TRIMMED_CURVE('',#1181,(#1177,PARAMETER_VALUE(0.0)),(#1182,PARAMETER_VALUE
(144.953568689852)),.T.,.PARAMETER.);
#1184=DIRECTION('',(0.884549052690887,0.466447181772657,0.0));
#1185=VECTOR('',#1184,1.0);
#1186=LINE('',#1182,#1185);
#1187=CARTESIAN_POINT('',(7906.5559119514,-8690.06882655394,0.0));
#1188=TRIMMED_CURVE('',#1186,(#1182,PARAMETER_VALUE(0.0)),(#1187,PARAMETER_VALUE
(145.316929054563)),.T.,.PARAMETER.);
#1189=DIRECTION('',(0.846714614279093,0.532047330569571,0.0));
#1190=VECTOR('',#1189,1.0);
#1191=LINE('',#1187,#1190);
#1192=CARTESIAN_POINT('',(8029.79278516549,-8612.63087010963,0.0));
#1193=TRIMMED_CURVE('',#1191,(#1187,PARAMETER_VALUE(0.0)),(#1192,PARAMETER_VALUE
(145.547119579393)),.T.,.PARAMETER.);
#1194=DIRECTION('',(0.804251823318153,0.594288654350246,0.0));
#1195=VECTOR('',#1194,1.0);
#1196=LINE('',#1192,#1195);
#1197=CARTESIAN_POINT('',(8146.91208981092,-8526.08748663429,0.0));
#1198=TRIMMED_CURVE('',#1196,(#1192,PARAMETER_VALUE(0.0)),(#1197,PARAMETER_VALUE
(145.625165215319)),.T.,.PARAMETER.);
#1199=DIRECTION('',(0.757025753977108,0.653385037948827,0.0));
#1200=VECTOR('',#1199,1.0);
#1201=LINE('',#1197,#1200);
#1202=CARTESIAN_POINT('',(8257.09697972107,-8430.98747438621,0.0));
#1203=TRIMMED_CURVE('',#1201,(#1197,PARAMETER_VALUE(0.0)),(#1202,PARAMETER_VALUE
(145.549724472761)),.T.,.PARAMETER.);
#1204=DIRECTION('',(0.704788228096585,0.709417756710724,0.0));
#1205=VECTOR('',#1204,1.0);
#1206=LINE('',#1202,#1205);
#1207=CARTESIAN_POINT('',(8359.53169625533,-8327.87989693804,0.0));
#1208=TRIMMED_CURVE('',#1206,(#1202,PARAMETER_VALUE(0.0)),(#1207,PARAMETER_VALUE
(145.341128654909)),.T.,.PARAMETER.);
#1209=DIRECTION('',(0.647205748340298,0.762315367361354,0.0));
#1210=VECTOR('',#1209,1.0);
#1211=LINE('',#1207,#1210);
#1212=CARTESIAN_POINT('',(8453.40167074108,-8217.31455621322,0.0));
#1213=TRIMMED_CURVE('',#1211,(#1207,PARAMETER_VALUE(0.0)),(#1212,PARAMETER_VALUE
(145.038845415812)),.T.,.PARAMETER.);
#1214=DIRECTION('',(0.583884732911255,0.811836571406556,0.0));
#1215=VECTOR('',#1214,1.0);
#1216=LINE('',#1212,#1215);
#1217=CARTESIAN_POINT('',(8537.89079060412,-8099.84041530056,0.0));
#1218=TRIMMED_CURVE('',#1216,(#1212,PARAMETER_VALUE(0.0)),(#1217,PARAMETER_VALUE
(144.701710972611)),.T.,.PARAMETER.);
#1219=DIRECTION('',(0.5144580589141,0.857515542493742,0.0));
#1220=VECTOR('',#1219,1.0);
#1221=LINE('',#1217,#1220);
#1222=CARTESIAN_POINT('',(8612.18367442739,-7976.00660325064,0.0));
#1223=TRIMMED_CURVE('',#1221,(#1217,PARAMETER_VALUE(0.0)),(#1222,PARAMETER_VALUE
(144.409991321898)),.T.,.PARAMETER.);
#1224=DIRECTION('',(0.43864759126828,0.898659162683237,0.0));
#1225=VECTOR('',#1224,1.0);
#1226=LINE('',#1222,#1225);
#1227=CARTESIAN_POINT('',(8675.46456945665,-7846.36276780539,0.0));
#1228=TRIMMED_CURVE('',#1226,(#1222,PARAMETER_VALUE(0.0)),(#1227,PARAMETER_VALUE
(144.263632786154)),.T.,.PARAMETER.);
#1229=DIRECTION('',(0.356365062258939,0.934346799856018,0.0));
#1230=VECTOR('',#1229,1.0);
#1231=LINE('',#1227,#1230);
#1232=CARTESIAN_POINT('',(8726.91806755437,-7711.45781673004,0.0));
#1233=TRIMMED_CURVE('',#1231,(#1227,PARAMETER_VALUE(0.0)),(#1232,PARAMETER_VALUE
(144.384238375022)),.T.,.PARAMETER.);
#1234=DIRECTION('',(0.267825760234927,0.963467364343279,0.0));
#1235=VECTOR('',#1234,1.0);
#1236=LINE('',#1232,#1235);
#1237=CARTESIAN_POINT('',(8765.72881830481,-7571.8413298734,0.0));
#1238=TRIMMED_CURVE('',#1236,(#1232,PARAMETER_VALUE(0.0)),(#1237,PARAMETER_VALUE
(144.910447435661)),.T.,.PARAMETER.);
#1239=DIRECTION('',(0.173641681034663,0.984808898521666,0.0));
#1240=VECTOR('',#1239,1.0);
#1241=LINE('',#1237,#1240);
#1242=CARTESIAN_POINT('',(8791.07995585212,-7428.06233801224,0.0));
#1243=TRIMMED_CURVE('',#1241,(#1237,PARAMETER_VALUE(0.0)),(#1242,PARAMETER_VALUE
(145.996844745202)),.T.,.PARAMETER.);
#1244=DIRECTION('',(0.0749447024903819,0.997187691244045,0.0));
#1245=VECTOR('',#1244,1.0);
#1246=LINE('',#1242,#1245);
#1247=CARTESIAN_POINT('',(8802.15738028006,-7280.67004845521,0.0));
#1248=TRIMMED_CURVE('',#1246,(#1242,PARAMETER_VALUE(0.0)),(#1247,PARAMETER_VALUE
(147.807971208661)),.T.,.PARAMETER.);
#1249=DIRECTION('',(-0.0266571511789461,0.999644635003371,0.0));
#1250=VECTOR('',#1249,1.0);
#1251=LINE('',#1247,#1250);
#1252=CARTESIAN_POINT('',(8798.14522504705,-7130.2140066015,0.0));
#1253=TRIMMED_CURVE('',#1251,(#1247,PARAMETER_VALUE(0.0)),(#1252,PARAMETER_VALUE
(150.509527671505)),.T.,.PARAMETER.);
#1254=CARTESIAN_POINT('',(4529.32298875978,-8347.93798139334,0.0));
#1255=DIRECTION('',(-0.998868421504393,0.0475591896621678,0.0));
#1256=VECTOR('',#1255,1.0);
#1257=LINE('',#1254,#1256);
#1258=CARTESIAN_POINT('',(3220.41820426502,-8285.61700942613,0.0));
#1259=TRIMMED_CURVE('',#1257,(#1254,PARAMETER_VALUE(0.0)),(#1258,PARAMETER_VALUE
(1310.38759091355)),.T.,.PARAMETER.);
#1260=CARTESIAN_POINT('',(3905.94889590431,-5948.58056065585,0.0));
#1261=VECTOR('',#7,1.0);
#1262=LINE('',#1260,#1261);
#1263=CARTESIAN_POINT('',(4529.32298875978,-5948.58056065585,0.0));
#1264=TRIMMED_CURVE('',#1262,(#1260,PARAMETER_VALUE(0.0)),(#1263,PARAMETER_VALUE
(623.374092855478)),.T.,.PARAMETER.);
#1265=DIRECTION('',(0.0,-1.0,0.0));
#1266=VECTOR('',#1265,1.0);
#1267=LINE('',#1263,#1266);
#1268=CARTESIAN_POINT('',(4529.32298875978,-6836.65441118856,0.0));
#1269=TRIMMED_CURVE('',#1267,(#1263,PARAMETER_VALUE(0.0)),(#1268,PARAMETER_VALUE
(888.073850532708)),.T.,.PARAMETER.);
#1270=CARTESIAN_POINT('',(4155.23278377314,-7132.67902803279,0.0));
#1271=DIRECTION('',(0.784178557347313,-0.62053524492706,0.0));
#1272=VECTOR('',#1271,1.0);
#1273=LINE('',#1270,#1272);
#1274=CARTESIAN_POINT('',(4529.32298875978,-7428.70364487703,0.0));
#1275=TRIMMED_CURVE('',#1273,(#1270,PARAMETER_VALUE(0.0)),(#1274,PARAMETER_VALUE
(477.047225382067)),.T.,.PARAMETER.);
#1276=VECTOR('',#1265,1.0);
#1277=LINE('',#1274,#1276);
#1278=TRIMMED_CURVE('',#1277,(#1274,PARAMETER_VALUE(0.0)),(#1254,PARAMETER_VALUE
(919.234336516312)),.T.,.PARAMETER.);
#1279=CARTESIAN_POINT('',(4529.32298875978,-6836.65441118856,0.0));
#1280=DIRECTION('',(-0.784178557347312,-0.620535244927062,0.0));
#1281=VECTOR('',#1280,1.0);
#1282=LINE('',#1279,#1281);
#1283=TRIMMED_CURVE('',#1282,(#1279,PARAMETER_VALUE(0.0)),(#1270,PARAMETER_VALUE
(477.047225382068)),.T.,.PARAMETER.);
#1284=CARTESIAN_POINT('',(5484.47246771173,-8932.71494281432,0.0));
#1285=VECTOR('',#7,1.0);
#1286=LINE('',#1284,#1285);
#1287=CARTESIAN_POINT('',(7084.31846623189,-8932.71494281432,0.0));
#1288=TRIMMED_CURVE('',#1286,(#1284,PARAMETER_VALUE(0.0)),(#1287,PARAMETER_VALUE
(1599.84599852016)),.T.,.PARAMETER.);
#1289=CARTESIAN_POINT('',(8798.1451953301,-7130.2140066015,0.0));
#1290=DIRECTION('',(0.0,1.0,0.0));
#1291=VECTOR('',#1290,1.0);
#1292=LINE('',#1289,#1291);
#1293=CARTESIAN_POINT('',(8798.1451953301,-6647.22647385564,0.0));
#1294=TRIMMED_CURVE('',#1292,(#1289,PARAMETER_VALUE(0.0)),(#1293,PARAMETER_VALUE
(482.987532745859)),.T.,.PARAMETER.);
#1295=GEOMETRIC_CURVE_SET('',(#21,#26,#31,#36,#41,#46,#51,#56,#61,#66,#71,#76,
#81,#86,#91,#96,#101,#106,#111,#116,#121,#126,#131,#136,#141,#146,#151,#156,#161
,#166,#171,#176,#181,#186,#191,#196,#201,#206,#212,#217,#222,#227,#232,#237,#242
,#247,#252,#257,#262,#267,#272,#277,#282,#287,#292,#297,#301,#306,#311,#316,#321
,#326,#331,#336,#341,#346,#351,#356,#361,#366,#371,#376,#381,#386,#391,#395,#401
,#406,#411,#416,#421,#426,#431,#436,#441,#446,#451,#456,#461,#466,#471,#476,#481
,#486,#491,#496,#501,#506,#511,#516,#521,#526,#531,#536,#541,#546,#551,#556,#561
,#566,#571,#576,#581,#586,#592,#597,#602,#607,#612,#617,#622,#627,#632,#637,#642
,#647,#652,#657,#662,#667,#672,#677,#682,#687,#692,#697,#702,#707,#712,#717,#722
,#727,#732,#737,#742,#747,#752,#757,#762,#767,#772,#777,#783,#788,#793,#798,#803
,#808,#813,#818,#823,#828,#833,#838,#843,#848,#853,#858,#863,#868,#873,#878,#883
,#888,#893,#898,#903,#908,#913,#918,#923,#928,#933,#938,#943,#948,#953,#958,#963
,#967,#972,#977,#982,#987,#992,#997,#1002,#1007,#1012,#1017,#1022,#1027,#1032,
#1037,#1042,#1047,#1052,#1057,#1062,#1068,#1073,#1078,#1083,#1088,#1093,#1098,
#1103,#1108,#1113,#1118,#1123,#1128,#1133,#1138,#1143,#1148,#1153,#1157,#1163,
#1168,#1173,#1178,#1183,#1188,#1193,#1198,#1203,#1208,#1213,#1218,#1223,#1228,
#1233,#1238,#1243,#1248,#1253,#1259,#1264,#1269,#1275,#1278,#1283,#1288,#1294));
#1296=GEOMETRICALLY_BOUNDED_WIREFRAME_SHAPE_REPRESENTATION('',(#8,#1295),*);
#1297=SHAPE_DEFINITION_REPRESENTATION(#15,#1296);
ENDSEC;
END-ISO-10303-21;
