$MeshFormat
4 0 8
$EndMeshFormat
$Entities
10 8 1 0
1 0 0 0 0 0 0 0 
2 0.5 0 0 0.5 0 0 0 
3 2.5 0 0 2.5 0 0 0 
4 3 0 0 3 0 0 0 
5 0 1 0 0 1 0 0 
6 0.5 1 0 0.5 1 0 0 
7 2.5 1 0 2.5 1 0 0 
8 3 1 0 3 1 0 0 
9 1.5 0.35 0 1.5 0.35 0 0 
10 1.5 0.65 0 1.5 0.65 0 0 
1 0 0 0 0.5 0 0 0 2 1 -2 
2 0.5 0 0 2.5 0.341838134430727 0 0 2 2 -3 
3 2.5 0 0 3 0 0 0 2 3 -4 
4 3 0 0 3 1 0 0 2 4 -8 
5 2.5 1 0 3 1 0 0 2 8 -7 
6 0.5 0.6581618655692729 0 2.5 1 0 0 2 7 -6 
7 0 1 0 0.5 1 0 0 2 6 -5 
8 0 0 0 0 1 0 0 2 5 -1 
1 0 0 0 3 1 0 0 8 8 1 2 3 4 5 6 7 
$EndEntities
$Nodes
19 1049
1 0 0 1
1 0 0 0
2 0 0 1
2 0.5 0 0
3 0 0 1
3 2.5 0 0
4 0 0 1
4 3 0 0
5 0 0 1
5 0 1 0
6 0 0 1
6 0.5 1 0
7 0 0 1
7 2.5 1 0
8 0 0 1
8 3 1 0
9 0 0 1
9 1.5 0.35 0
10 0 0 1
10 1.5 0.65 0
1 1 0 9
11 0.04999999999990707 0 0
12 0.09999999999977846 0 0
13 0.1499999999996325 0 0
14 0.1999999999994866 0 0
15 0.2499999999993461 0 0
16 0.2999999999994725 0 0
17 0.3499999999996044 0 0
18 0.3999999999997362 0 0
19 0.4499999999998681 0 0
2 1 0 39
20 0.5500696360077068 0.01835787851095785 0
21 0.5996480592066743 0.03800591060665932 0
22 0.6488079278175888 0.05867979400465149 0
23 0.6976303886527019 0.08013920488144843 0
24 0.7462013362224822 0.1021625206237184 0
25 0.794609454716782 0.1245417730233298 0
26 0.8429449102905618 0.147077684393402 0
27 0.8912984195260488 0.1695748001975227 0
28 0.9397605657639581 0.1918367180481709 0
29 0.98842104340601 0.2136612871946731 0
30 1.037367648496293 0.2348357242202531 0
31 1.086684704465972 0.2551315872311433 0
32 1.136450320699136 0.2742995603741384 0
33 1.186733165424974 0.2920646991978014 0
34 1.237586354407676 0.3081218709224213 0
35 1.289039258390322 0.3221329368271473 0
36 1.341088769403031 0.3337275871301902 0
37 1.393684368582906 0.3425084810168684 0
38 1.446715606012662 0.3480654916150468 0
39 1.500000002917648 0.35 0
40 1.55328439918349 0.348065491242914 0
41 1.606315636049496 0.3425084803823512 0
42 1.658911234701046 0.3337275863259541 0
43 1.710960745331581 0.3221329359018251 0
44 1.762413648968028 0.3081218699263351 0
45 1.813266838216595 0.2920646979759435 0
46 1.863549682691233 0.2742995591190481 0
47 1.913315298707339 0.2551315859641342 0
48 1.962632353857456 0.2348357232247227 0
49 2.011578958686841 0.2136612862708636 0
50 2.060239436027258 0.191836717233573 0
51 2.108701582003957 0.1695747994889179 0
52 2.15705509108569 0.1470776837512848 0
53 2.205390546428815 0.1245417724905218 0
54 2.253798664609515 0.1021625202420853 0
55 2.302369611894772 0.08013920463654642 0
56 2.351192072486881 0.05867979387345124 0
57 2.40035194084315 0.03800591058626445 0
58 2.449930364158488 0.0183578784474021 0
3 1 0 9
59 2.55 0 0
60 2.6 0 0
61 2.65 0 0
62 2.7 0 0
63 2.75 0 0
64 2.8 0 0
65 2.85 0 0
66 2.9 0 0
67 2.95 0 0
4 1 0 19
68 3 0.0499999999998994 0
69 3 0.09999999999981414 0
70 3 0.1499999999997029 0
71 3 0.1999999999995569 0
72 3 0.2499999999994109 0
73 3 0.299999999999265 0
74 3 0.3499999999991191 0
75 3 0.3999999999989731 0
76 3 0.4499999999988272 0
77 3 0.4999999999986921 0
78 3 0.5499999999988131 0
79 3 0.599999999998945 0
80 3 0.6499999999990769 0
81 3 0.6999999999992088 0
82 3 0.7499999999993406 0
83 3 0.7999999999994725 0
84 3 0.8499999999996044 0
85 3 0.8999999999997362 0
86 3 0.9499999999998682 0
5 1 0 9
87 2.95 1 0
88 2.9 1 0
89 2.85 1 0
90 2.8 1 0
91 2.75 1 0
92 2.7 1 0
93 2.65 1 0
94 2.6 1 0
95 2.55 1 0
6 1 0 39
96 2.449930363979353 0.9816421214840938 0
97 2.400351940942288 0.9619940894543151 0
98 2.351192072265671 0.9413202060312261 0
99 2.302369611468549 0.9198607951727907 0
100 2.253798663833967 0.8978374794021747 0
101 2.205390545233066 0.8754582269533449 0
102 2.157055089600717 0.8529223155558721 0
103 2.10870158033707 0.8304251997390822 0
104 2.060239434087437 0.8081632818842476 0
105 2.011578956393451 0.786338712716807 0
106 1.962632351287523 0.7651642756883105 0
107 1.913315295255388 0.7448684126576042 0
108 1.863549679028164 0.7257004395249103 0
109 1.81326683416747 0.7079353006654511 0
110 1.762413645065162 0.6918781289220262 0
111 1.710960741157024 0.677867063060316 0
112 1.658911230167694 0.6662724127856887 0
113 1.606315631247707 0.65749151895993 0
114 1.553284394155887 0.6519345083970245 0
115 1.499999997710221 0.65 0
116 1.446715601379956 0.6519345087167336 0
117 1.393684364439983 0.657491519550603 0
118 1.341088765691669 0.6662724135970893 0
119 1.289039255088988 0.6778670639936152 0
120 1.237586351442667 0.6918781299524789 0
121 1.186733162183159 0.7079353018899268 0
122 1.136450317773637 0.7257004407088601 0
123 1.086684701804061 0.7448684138316787 0
124 1.03736764611735 0.765164276785933 0
125 0.9884210412944436 0.7863387137373974 0
126 0.9397605638623624 0.8081632828166246 0
127 0.8912984178288411 0.83042520058852 0
128 0.8429449088267379 0.8529223162895738 0
129 0.7946094535012787 0.8754582275419913 0
130 0.746201335237646 0.8978374798280211 0
131 0.6976303878527687 0.9198607954763862 0
132 0.6488079272217294 0.941320206252113 0
133 0.5996480588573598 0.9619940895363247 0
134 0.5500696358021565 0.9816421215676477 0
7 1 0 9
135 0.4499999999997918 1 0
136 0.4 1 0
137 0.3500000000003469 1 0
138 0.3000000000006937 1 0
139 0.2500000000010297 1 0
140 0.2000000000008325 1 0
141 0.1500000000006244 1 0
142 0.1000000000004163 1 0
143 0.0500000000002081 1 0
8 1 0 19
144 0 0.9499999999997918 0
145 0 0.8999999999995836 0
146 0 0.849999999999653 0
147 0 0.8 0
148 0 0.7500000000003471 0
149 0 0.7000000000006938 0
150 0 0.6500000000010406 0
151 0 0.6000000000013874 0
152 0 0.5500000000017343 0
153 0 0.5000000000020595 0
154 0 0.450000000001873 0
155 0 0.400000000001665 0
156 0 0.3500000000014568 0
157 0 0.3000000000012487 0
158 0 0.2500000000010406 0
159 0 0.2000000000008325 0
160 0 0.1500000000006244 0
161 0 0.1000000000004162 0
162 0 0.0500000000002081 0
1 2 0 887
163 2.956385747211568 0.4758852576638578 0
164 0.03970447589260015 0.5251570992309029 0
165 0.6562356838897676 0.1109359850226393 0
166 2.34407997353324 0.8910200395543508 0
167 2.351994372326456 0.1106644829775838 0
168 0.6546348228773831 0.8883091466943736 0
169 2.625118377217731 0.9563490897027608 0
170 0.372247779013346 0.03805461799754745 0
171 0.8486793874664252 0.1976372731810508 0
172 2.146671715361596 0.801070800885582 0
173 0.3765313958837946 0.9587593623781039 0
174 2.624433565355465 0.04145707830377604 0
175 0.8476092979560911 0.7966323650600623 0
176 2.147322269799557 0.1918184601334424 0
177 2.95390436988708 0.6742959868291685 0
178 0.04483390726326321 0.3243048665319098 0
179 2.00544320124648 0.7333626132002207 0
180 0.9984127809224727 0.2675441881224683 0
181 2.95766694629409 0.3295620587057955 0
182 0.0414804574546108 0.6735782798505852 0
183 2.005443203502947 0.266637385255073 0
184 0.99660275209584 0.7326440835431489 0
185 1.145803386702716 0.3266495038243937 0
186 1.850620925983152 0.6731350674015044 0
187 0.2276715186052331 0.04641198413340493 0
188 2.775832914335114 0.9580154211796237 0
189 0.224905046984973 0.9562019180311235 0
190 2.774873470595661 0.04558720489291858 0
191 1.147074931002933 0.6724275487678175 0
192 1.852925069860546 0.327572453010557 0
193 1.694977082803203 0.6269942778100767 0
194 1.301398914501635 0.3702117329664623 0
195 2.956698729810664 0.8249999999995384 0
196 0.04600677202924564 0.1810925116883427 0
197 0.04636567486284347 0.825880423943435 0
198 2.961269910434552 0.1751283398463178 0
199 1.251178996265068 0.6403135602583436 0
200 1.747482097398612 0.3572665256887429 0
201 1.582486381040638 0.6076119662792069 0
202 1.415387569416389 0.3912124836261701 0
203 1.640217773192076 0.3836663223159291 0
204 1.359782227259245 0.6163336775381053 0
205 0.5146834189807321 0.05338535782922862 0
206 2.490017395246857 0.9466763981428381 0
207 0.5171262873904323 0.9469464234895832 0
208 2.494418753380485 0.04820953404199156 0
209 2.951577265578505 0.5805472070064361 0
210 0.04321628644781501 0.4284030122798924 0
211 2.251263734488812 0.8442528461717048 0
212 0.7510244173550551 0.1552747574788368 0
213 0.7509046312098511 0.8479252676531855 0
214 2.248204195310451 0.149914584525799 0
215 1.527200664777019 0.3922419431527189 0
216 1.471630405950888 0.6035797593958916 0
217 0.1263463141144237 0.03985303729940321 0
218 2.866764185412761 0.9571923410028119 0
219 0.1312222205834542 0.9551088150698714 0
220 2.874692779172205 0.05037178572024338 0
221 2.959372561166314 0.9245847378102829 0
222 0.03882159155031221 0.07579064780511668 0
223 0.04342474060134407 0.918822932937753 0
224 2.957159609065239 0.07620840980633994 0
225 1.526584107104448 0.6044819610048799 0
226 1.557230653456885 0.5600670646300316 0
227 1.614727917730672 0.5643795378559764 0
228 1.588751886434936 0.5178943107853071 0
229 1.644688647924716 0.5204940985565103 0
230 1.533640556972425 0.514776400356641 0
231 1.620100142419775 0.4759510191672297 0
232 1.672156883975131 0.476024978585191 0
233 1.695450857035258 0.5215640154256266 0
234 1.724397563027428 0.477564256852139 0
235 1.748808000844168 0.5216884912731078 0
236 1.778280382894359 0.4804053717039068 0
237 1.802027769706641 0.526756854232917 0
238 1.832062311540989 0.4835468076893505 0
239 1.855354275597158 0.5301702958942821 0
240 1.884580760943898 0.486767607576137 0
241 1.908248127180583 0.5364058167624324 0
242 1.937643200455915 0.4903881326447238 0
243 1.961401394442654 0.540093512011615 0
244 1.990709532147745 0.4959138833405375 0
245 2.014832383765071 0.5399705017805501 0
246 2.04395433831892 0.4988620720505799 0
247 2.070075139647906 0.541490845301565 0
248 2.097399921721179 0.4984634271080255 0
249 2.123652014745657 0.5448400994264918 0
250 2.150609620124884 0.5015237741117506 0
251 2.174941909349736 0.5489229993322422 0
252 2.203821856610466 0.5047256956285535 0
253 2.22773310243197 0.552191369096113 0
254 2.257249609610457 0.5080538523131959 0
255 2.280723784156748 0.5551874831922058 0
256 2.309797771713008 0.5108784176651018 0
257 2.333397614899903 0.5580551567503366 0
258 2.362260782901327 0.5140608494464655 0
259 2.385852784577658 0.560964479482049 0
260 2.414557831548961 0.5172456804855313 0
261 2.437973855515669 0.563887879223664 0
262 2.466576013810565 0.5203447082832561 0
263 2.489900603738971 0.5667287371174823 0
264 2.518384244016298 0.5233301258078398 0
265 2.541633121285322 0.5695838796063837 0
266 2.495173899066894 0.4770195788316566 0
267 2.546896400376733 0.4799733658681116 0
268 2.52369310703958 0.4337675970651773 0
269 2.575327863742481 0.4367326391769955 0
270 2.552160003946783 0.3906085039099068 0
271 2.60369883397669 0.3937244999104935 0
272 2.626798341820706 0.4396767856859103 0
273 2.500446511194276 0.38757601642553 0
274 2.513280101172632 0.6128928914721263 0
275 2.564861545060404 0.6157190466581625 0
276 2.654824713157763 0.3966274316264493 0
277 2.632054495735874 0.3508635988370065 0
278 2.678070722124401 0.4432083609127722 0
279 2.286293968889876 0.4643291102251721 0
280 2.5366269089532 0.6588952329465517 0
281 2.588048374993488 0.6617716668217547 0
282 2.682945282262248 0.3537899729919347 0
283 2.660327806739146 0.3081718172231417 0
284 2.711180068171983 0.3112378222390694 0
285 2.365332056044712 0.6056710318859451 0
286 2.561971676654742 0.7037740115109444 0
287 2.611501051402815 0.707529947711561 0
288 2.639345778050374 0.6648353393658889 0
289 2.662354180947703 0.710550382710083 0
290 2.690312992409498 0.6678790795902065 0
291 2.713237487651531 0.7133435268118545 0
292 2.517453428306857 0.7070853948646679 0
293 2.126370489865652 0.4550276119705056 0
294 2.688356059642235 0.2650208003117727 0
295 2.637288548505612 0.2608094841033005 0
296 2.739092706203516 0.2686791796191096 0
297 2.743063497457868 0.6720702305054294 0
298 2.249119929193894 0.5971305216373153 0
299 2.733362172363402 0.3574120930948466 0
300 2.76004009433491 0.7151287119401695 0
301 2.583071811490488 0.7507058545640236 0
302 2.684990740679382 0.7639893754123812 0
303 2.145131163390851 0.5953880511234905 0
304 2.71634964937629 0.2230172992392694 0
305 2.766724317681593 0.2263503752445247 0
306 2.718592007404537 0.625587106228747 0
307 2.771318979875556 0.6298325008374742 0
308 2.789568231358381 0.2716908132105008 0
309 1.971018689306782 0.4433713304316119 0
310 2.746618515111852 0.5832246489522824 0
311 2.798258225997918 0.5868385773038514 0
312 2.774379741434296 0.5407660026354961 0
313 2.649917109718271 0.4855969850228954 0
314 2.529021849538825 0.344287266111242 0
315 2.477110979218905 0.3412327543330819 0
316 2.50578982751417 0.2977411169906693 0
317 2.453765150331352 0.2946054827686695 0
318 2.482560096305853 0.2511375441986981 0
319 2.424981047304437 0.3382780646661237 0
320 2.40152018130222 0.2914335216158173 0
321 2.372635931996817 0.3352988147053869 0
322 2.349050473209541 0.2882489961101551 0
323 2.32003660432534 0.3322799921531603 0
324 2.817329681311302 0.2295849644230137 0
325 2.825905380290902 0.5443481483817008 0
326 2.802179763650801 0.4984098336602908 0
327 2.821808828035707 0.63313964064905 0
328 2.296369964071026 0.2850687153326398 0
329 2.2672725755178 0.3292378097509796 0
330 2.794536687661579 0.184346218659128 0
331 1.98930577914761 0.5863878056507247 0
332 2.378993654904064 0.2450964129457907 0
333 2.391185990563367 0.4704150469517745 0
334 2.839969990861984 0.2747111829806278 0
335 2.243521155917954 0.281879915847622 0
336 2.214351430189785 0.3261657073058311 0
337 2.845092793945808 0.1875428894129411 0
338 2.822538548502742 0.1427171615332929 0
339 2.771552948598651 0.1377078426850113 0
340 2.695439310543819 0.5799429312332917 0
341 2.852672305849709 0.5013399691660119 0
342 2.829656673229769 0.4551113451752066 0
343 2.534438796829414 0.2542893502750816 0
344 2.511314110229251 0.2077761842221635 0
345 2.562938591835506 0.2108935274311058 0
346 2.539956858322441 0.1646886643292477 0
347 2.591340073060759 0.1677708837125102 0
348 2.488259189396872 0.1613759494830988 0
349 2.593176420962212 0.5724304725469219 0
350 2.812260495952192 0.3168268404897102 0
351 1.860476130386501 0.4385529910487863 0
352 2.779092247298531 0.4519266592277245 0
353 1.769931242992563 0.5725935771616789 0
354 2.343810344750058 0.3790579484976103 0
355 2.238177433819026 0.3731628621513194 0
356 2.568391641999643 0.1223507253683996 0
357 2.185194898239929 0.3699939024434992 0
358 2.161306387592537 0.3229581412434517 0
359 2.871962407603168 0.1458724392321184 0
360 2.862072571899816 0.3194188234537177 0
361 2.892351239310928 0.2762917737558728 0
362 2.13210065332821 0.3672087749633907 0
363 2.106045397555506 0.3179792153498346 0
364 2.078652341767914 0.3615636858410256 0
365 2.619835047511051 0.1259409498172325 0
366 2.834641147199702 0.3631734025258134 0
367 2.882693055194238 0.3640892450517127 0
368 1.876082499966021 0.5821916641184013 0
369 2.642309939053727 0.1707637307826245 0
370 2.670666992757831 0.128605711954991 0
371 2.701080580609443 0.4904762621666477 0
372 2.875166323271225 0.5463250167952628 0
373 2.880190571764289 0.4588928651559792 0
374 2.272677259700421 0.2387053909972545 0
375 2.209101578493954 0.4156256725350196 0
376 1.700762679911227 0.4293567170706123 0
377 2.135401365962247 0.2761225392259623 0
378 2.087901784217032 0.2721003350486345 0
379 2.220345371363035 0.2365184901756663 0
380 2.891912329036691 0.192033464194771 0
381 2.849103889631474 0.09951774220504242 0
382 2.907212830760299 0.0984080055681098 0
383 1.50245916240898 0.5553478592916294 0
384 1.481406208363606 0.5047101815586967 0
385 1.447620087932225 0.5463063242827039 0
386 1.429446950853972 0.4936677183952698 0
387 1.394655535325392 0.5336625842734264 0
388 1.377346897301299 0.481793745756335 0
389 1.340635109228985 0.520328746517817 0
390 1.324902378645629 0.470128060729781 0
391 1.288650720830484 0.5085101422904199 0
392 1.272851950139421 0.4582474297638284 0
393 1.236665172638943 0.4965945833824982 0
394 1.221026232367896 0.4456182236046438 0
395 1.184716194788495 0.4845377224404944 0
396 1.200364754118449 0.5354652168360582 0
397 1.148534528183313 0.5229022498974099 0
398 1.132777730947343 0.4724393549632236 0
399 1.096494810602307 0.5112459142248071 0
400 1.080799525192643 0.4605130298697566 0
401 1.044509758113558 0.499349014108524 0
402 1.028823526412744 0.4485755304283935 0
403 0.9924841518878544 0.4876101057041421 0
404 0.9771156843073877 0.4369183504762902 0
405 0.9405471837705894 0.4757428335616756 0
406 0.9246291594690943 0.4259103717121757 0
407 0.8884397909576549 0.4641780724303939 0
408 0.9041551240418506 0.5148091948414497 0
409 0.8522021097232682 0.5028870138056595 0
410 0.8365322742247085 0.4520505482514069 0
411 0.8002930596196322 0.4908305675432796 0
412 0.7846084587634121 0.440350383077825 0
413 0.7484606329497122 0.4788729035398853 0
414 0.7329154600185037 0.4281869504635291 0
415 0.696770642107882 0.4669117094083455 0
416 0.6813042531402402 0.4163388413601076 0
417 0.645291646519456 0.4549368619754165 0
418 0.6298431980441497 0.4045148291950372 0
419 0.5940216302877093 0.4431206124361508 0
420 0.6092817673944695 0.4933509180815195 0
421 0.5582102562186777 0.4814177602677222 0
422 0.542940964160421 0.4314409025652889 0
423 0.5073327307168901 0.4696175540551256 0
424 0.4921736604394951 0.4197582139068303 0
425 0.5224688770978823 0.5195262354073804 0
426 0.471765618979648 0.5076536377883041 0
427 0.4868160141766258 0.5574774359596685 0
428 0.4362711766718915 0.545651750685703 0
429 0.4510060384434513 0.5950464221004448 0
430 0.4008317587390941 0.5835682649064127 0
431 0.385726662300783 0.5332561436103928 0
432 0.4153672562761916 0.6324964220228622 0
433 0.3656538773970935 0.6212454422595601 0
434 0.5013568106318927 0.6068844394610882 0
435 0.7635548419404152 0.5290987611284678 0
436 0.3803371297971361 0.6701460907205263 0
437 0.3306576022288317 0.6586179615702302 0
438 0.3454405737225096 0.7075983406220339 0
439 0.2958620869626954 0.696039519233884 0
440 0.2811358265959244 0.6459898631136786 0
441 0.3949365477895587 0.7190857513112625 0
442 0.3105515497127699 0.7447018547156443 0
443 0.2611656190838741 0.7331950490313046 0
444 0.8678384051743636 0.5537653458908309 0
445 0.5275673877335105 0.3816826789800289 0
446 0.4769313891547143 0.3700507955329719 0
447 0.5122276517066453 0.3321312882653778 0
448 0.4618190760280025 0.320571815140165 0
449 0.4267384310836149 0.3583564145975846 0
450 0.4116969949257148 0.3091647108300686 0
451 0.3767161558876549 0.3466734081686992 0
452 0.3617012617371946 0.2977868694559748 0
453 0.3269420631447074 0.3351183254493656 0
454 0.3119790723055101 0.286479853838868 0
455 0.2773416415020836 0.3236962371878752 0
456 0.2624978687369336 0.2751437382397213 0
457 0.4969654612615642 0.282558018985088 0
458 0.292197394242074 0.3723183452533179 0
459 0.3964656442139485 0.260342307277265 0
460 0.5474930632837891 0.294164209447632 0
461 0.66572117441178 0.3659013036801949 0
462 0.2969806001178036 0.2380010284068927 0
463 0.2476128418828091 0.2267297386662271 0
464 0.2427402451202308 0.3608556454997355 0
465 0.2575228436384905 0.4094152238883505 0
466 0.7690570108047071 0.3905744132933846 0
467 0.5321435307214571 0.2443927627406801 0
468 0.5829340696339456 0.2559556209286843 0
469 1.008799456320559 0.5361749650414765 0
470 0.275874493329855 0.7816808444427763 0
471 0.2265847619280078 0.7701382497590125 0
472 0.2118667217989503 0.7217752989369084 0
473 0.3251594283596755 0.7932719539266495 0
474 0.213191235323176 0.2637438574392035 0
475 0.2820161630266234 0.189684169933923 0
476 0.1983702535077908 0.2154855333139844 0
477 0.2081523455174877 0.3979678303474272 0
478 0.2228987912550034 0.4464455301925069 0
479 0.1772055429895148 0.7586808540664749 0
480 0.1919935469001357 0.8069520437482672 0
481 0.2905386931401484 0.8301060255350055 0
482 0.1640203604803806 0.2523601505474956 0
483 0.3070002217497692 0.4208701390157784 0
484 0.1735968282327238 0.4349981784986728 0
485 0.1883252479956311 0.4834266200850122 0
486 0.2376737924582598 0.4949058266072949 0
487 0.2030227163645115 0.5318791348133123 0
488 0.1589223738746883 0.386411080278085 0
489 0.1615884268568541 0.709289170144076 0
490 0.5675325969608004 0.2061662400334713 0
491 0.5166687271980158 0.1946111279197389 0
492 0.6185884196739844 0.2177361075504153 0
493 1.013732110752427 0.397959610273339 0
494 0.339709407207495 0.8416946599586668 0
495 0.1263210259269564 0.7458988368423174 0
496 0.30508747442954 0.8784069689984015 0
497 0.5520298758881884 0.1563537261318064 0
498 1.110082086727484 0.5593764325913951 0
499 0.149280469708519 0.2042091085966039 0
500 0.1836211748172646 0.1673239187911558 0
501 0.1150082032857209 0.2410353204152505 0
502 0.252428819446277 0.543408062853679 0
503 0.1537694630248561 0.520374956222917 0
504 0.1683974776311857 0.5687579869823626 0
505 0.1345699580610793 0.1561564355823002 0
506 0.1297160987827884 0.2891032540599178 0
507 0.2568694653449756 0.8666349951316263 0
508 0.3313953336340036 0.2008938897592503 0
509 0.3164010999224035 0.1526274458611299 0
510 0.3653415119530324 0.163992962782187 0
511 0.2671751877968773 0.1414883519054645 0
512 0.9197807278842831 0.5657125250117965 0
513 0.8834482800883769 0.6047238317190711 0
514 0.9334720556637631 0.6172537514265681 0
515 0.8987422021697207 0.6557562175781155 0
516 0.8471259038745447 0.6436907517920195 0
517 0.1969718293158017 0.6716776043221838 0
518 0.1469872800511486 0.6564042276840332 0
519 0.5011690419983428 0.1451101732285714 0
520 0.3915869173133442 0.3957789069616141 0
521 0.3743741443262106 0.8049041086827388 0
522 0.3889989352440911 0.8534452912152626 0
523 0.4239296642088111 0.8164138492530842 0
524 0.4386245601881447 0.8652458670024035 0
525 0.4738671050526005 0.8279780048581649 0
526 0.2868353656395615 0.5064933605523796 0
527 0.466122167217586 0.1831270836083951 0
528 0.4514838904336134 0.1350414287268961 0
529 0.3011150342994419 0.104625434037078 0
530 0.6340635643437167 0.2675000550253266 0
531 0.6699097127333974 0.2293035945064657 0
532 0.4591318553168041 0.778983046969609 0
533 0.509302435152189 0.7904163499365635 0
534 0.4944175750541009 0.7409605494914162 0
535 0.5448795035783288 0.7525391630321754 0
536 0.5241507871509754 0.8399946381172201 0
537 0.68545253807706 0.2795771013057958 0
538 0.529638634254805 0.7031085075773988 0
539 0.5805739775688217 0.7144557581044819 0
540 0.5957289557756653 0.7645115683967187 0
541 0.6316312602108437 0.7262962923564826 0
542 0.616347616524031 0.6760497097638161 0
543 0.6675777449678297 0.6879146562373688 0
544 0.6520609691776922 0.6382470097393044 0
545 0.703292513517401 0.6496151466016002 0
546 0.7190370058028306 0.701612879521286 0
547 0.646921287711661 0.7766259547617193 0
548 0.6878257576464977 0.6006543083791607 0
549 0.600891608448925 0.627669915088471 0
550 0.8627369280695089 0.6946325134703296 0
551 0.7213100962151167 0.2415393543516195 0
552 0.7370169025837352 0.2914255856845121 0
553 0.1684071925301615 0.1211347585350076 0
554 1.117634456321662 0.4198294153789712 0
555 0.7403872370738275 0.613730548103776 0
556 0.3016193372973855 0.5559602866293887 0
557 0.8099379711592616 0.6811812875720028 0
558 0.1203565461496213 0.5582476613120535 0
559 0.6097742732455593 0.8137265984512357 0
560 0.7726338647042759 0.254826257225802 0
561 0.7890296063897348 0.3034284407915357 0
562 0.6142117556463864 0.3545388021672037 0
563 1.305726679920076 0.5547603351284237 0
564 1.464078579195748 0.4579119700692224 0
565 0.479447919859211 0.6924014869496117 0
566 0.1257739085768966 0.4231793770855172 0
567 0.1119172169074215 0.3743616455515164 0
568 0.9146653738858049 0.7066147794013552 0
569 0.12027717141837 0.112893915305412 0
570 0.8245478872530769 0.2661426627937876 0
571 0.8405147295807005 0.315445195498184 0
572 0.8767536753708116 0.2764694969906755 0
573 0.8921463846841213 0.3271135914669868 0
574 0.8563495421322227 0.3652103331300192 0
575 0.1082003481329649 0.5104226367560412 0
576 0.8276014593747654 0.7365479171014245 0
577 0.9258315474561531 0.2869868761378254 0
578 0.9506715803472204 0.3380385924648963 0
579 1.365074338206544 0.431188504754296 0
580 0.6541975330369708 0.1690969458093178 0
581 0.2671919991761758 0.9154283091115425 0
582 0.3180304581286225 0.925676511217592 0
583 0.08126498075429697 0.2808395080874109 0
584 0.3988640776016267 0.909214279718821 0
585 0.4517250653218233 0.9140168620213276 0
586 0.6632598944695516 0.8303077870467768 0
587 0.6978502279327349 0.7865245379324379 0
588 1.410194838031523 0.5966043079876435 0
589 0.5364814334430991 0.1066115051586649 0
590 0.5850594794409185 0.1181702473456767 0
591 0.06793192466464765 0.2326579647477708 0
592 0.1338073240715852 0.6061426773138736 0
593 0.08477047802678218 0.5940820327585797 0
594 0.1827128746353435 0.6184372023784701 0
595 0.7739528280700793 0.7205145108604909 0
596 0.7901922599674429 0.7724510272721101 0
597 0.8833360884081776 0.7463927151584964 0
598 0.250472298175216 0.09408801046535292 0
599 0.2839636464514153 0.04905544717637113 0
600 1.581290043488524 0.3894875982334301 0
601 1.548449014495767 0.4310916861487407 0
602 0.7947853740593818 0.6307508513789667 0
603 2.857112090982492 0.4095535318041451 0
604 2.911185112850226 0.4057859799615871 0
605 2.806381783260919 0.4065113224273538 0
606 0.2665853997166064 0.5949964153206706 0
607 1.63947949373271 0.6161822286110628 0
608 1.472120658574451 0.3902908461693623 0
609 2.755527744346848 0.4057171319590805 0
610 1.260199190986887 0.4079059081414358 0
611 1.206757406696465 0.394569716971337 0
612 0.2194927790366231 0.9012982336550039 0
613 0.1798080833227015 0.931939568508156 0
614 0.1759895260979345 0.8827087107263639 0
615 2.69299999960175 0.1733874669552749 0
616 1.306092294073415 0.6310292575661851 0
617 1.751946336467186 0.6317094371877273 0
618 0.08979082675783562 0.6495620353754982 0
619 0.1121303572512729 0.6993099663468395 0
620 0.08020347833540233 0.7379989487779672 0
621 0.09091935596736034 0.7853692613073605 0
622 1.800273753760442 0.6543242143643271 0
623 1.199141498107338 0.6554707330706091 0
624 1.158295140385288 0.6217707813097111 0
625 1.107788085132104 0.639778273098622 0
626 1.21355733995141 0.5950382041056754 0
627 1.800577591695175 0.3446510709486782 0
628 1.780573942825674 0.3919051001840488 0
629 1.841678455487083 0.3850787464654005 0
630 1.893280734870155 0.3628993309091286 0
631 1.677416036561516 0.5712109595696097 0
632 2.824855520436583 0.05095570770833497 0
633 1.842446587845832 0.6202625463364231 0
634 1.893384096435124 0.640476915079814 0
635 1.931101270402403 0.5969276799596627 0
636 1.968587449807395 0.6357724782339083 0
637 2.021244455249959 0.6252292142041673 0
638 1.933258215642098 0.6816668519025664 0
639 1.998863822777548 0.6812827588148945 0
640 2.056492455144848 0.6644645616364384 0
641 2.065863647237008 0.6217549965066195 0
642 2.109824317640913 0.6439157633152591 0
643 2.092053388401551 0.7041871149247967 0
644 2.144450455886265 0.6918297789956496 0
645 2.132091640392865 0.7487185247944039 0
646 2.182878738638738 0.7314101053310629 0
647 2.197317768138643 0.6834341660127295 0
648 2.232544942965114 0.7219913976789147 0
649 2.218128395379091 0.7683492845923975 0
650 2.267461975197402 0.7590374559570404 0
651 2.283980923867996 0.7108149012200394 0
652 2.319170753582736 0.7501500544563766 0
653 2.335749770180073 0.7009236312303396 0
654 2.370811064659359 0.7397803528922759 0
655 2.387721298676109 0.6922890160776461 0
656 2.354462627540103 0.7895043682690697 0
657 2.405925580978938 0.7789979420570621 0
658 2.300419072006113 0.6610354492494617 0
659 2.391197500402996 0.8271157551347577 0
660 2.441254796722355 0.8179226293626112 0
661 2.424776986903102 0.8680975305126685 0
662 2.476113478329663 0.8570340998508513 0
663 2.49218689874996 0.8075715754864309 0
664 2.526856892158277 0.8461779989923475 0
665 2.546733785100288 0.7905711900780372 0
666 2.577346281530811 0.8354626708063271 0
667 2.561300603875869 0.8838032142144618 0
668 2.611256175782136 0.8727796139897716 0
669 2.62760257561825 0.8274622879146554 0
670 2.661079954425794 0.8630186166907828 0
671 2.676682586480847 0.814620337459884 0
672 2.710521923130641 0.8526550741534754 0
673 2.694841608749513 0.900326416538937 0
674 2.743730362187254 0.8879689898084818 0
675 2.759773097098357 0.8419911682421433 0
676 2.792912567121363 0.8771713321093483 0
677 2.808912072889843 0.8311921168437308 0
678 2.84245114233481 0.8685106189134348 0
679 2.858140253313062 0.8210277560249541 0
680 2.825484884530123 0.7839708857936626 0
681 2.873935108171541 0.7734001714590535 0
682 2.840785849071139 0.7334529598796339 0
683 2.886922132816029 0.7243539187587098 0
684 2.88874084017748 0.8594261388343727 0
685 2.918738641666935 0.7531041598015837 0
686 2.855539112549152 0.6858691385452654 0
687 2.82206232072277 0.9207405113664692 0
688 2.504325866403025 0.7564852419677015 0
689 1.694977087295185 0.3730057209545146 0
690 1.903954010656181 0.3098148897449659 0
691 1.943841779585563 0.3457992367874415 0
692 1.932490836430636 0.3977178789734582 0
693 1.982411594058764 0.3841658618562173 0
694 2.02116778774251 0.4221411646044493 0
695 1.993588582505246 0.3275024863477008 0
696 1.953795871469122 0.289953551220673 0
697 1.096535605849343 0.6910085669896994 0
698 1.05641959696856 0.6547842466260926 0
699 1.070418656527409 0.6001105546264702 0
700 1.016488199307568 0.6173252400821552 0
701 0.999926031787218 0.6749912048708412 0
702 1.045331520339122 0.7100128076858726 0
703 2.672773123035602 0.5323076172671718 0
704 1.095424704429278 0.3081992758281197 0
705 1.105292088398079 0.3648493798196741 0
706 1.046067039985866 0.3511732015650828 0
707 2.665244844734509 0.2171952061491084 0
708 2.720755877897755 0.1314836438901615 0
709 2.698303045356694 0.08655030576123308 0
710 2.748433595786119 0.09052975085347875 0
711 2.079294480491928 0.7521158911422965 0
712 0.08666982278038018 0.1448964992179194 0
713 1.044674321736744 0.2902530909590112 0
714 1.002791366623287 0.3223708623498472 0
715 2.901914876933962 0.6775332195115724 0
716 2.874458179695548 0.6361006612074288 0
717 2.920691584686881 0.6300900560993539 0
718 2.798418934152296 0.6882271180581336 0
719 2.849371109899502 0.5889152911262153 0
720 0.231667843873363 0.6333597420161529 0
721 2.62177413233968 0.5285214624117588 0
722 0.09541462754352321 0.3258117956782413 0
723 0.1411479808554998 0.7950389952785091 0
724 0.1038286257097688 0.8334044103373023 0
725 0.07228268274184546 0.8746616592058571 0
726 0.1235720362274361 0.8760183963671246 0
727 0.144598555678652 0.3374625502739479 0
728 0.9403427807019191 0.7542783520651688 0
729 0.3158522053498144 0.6086758680762016 0
730 2.51011380805252 0.8955961610625641 0
731 2.543832006257349 0.9288826394954504 0
732 0.4815965402927478 0.23285505449568 0
733 0.4313406627550637 0.2218612165249348 0
734 2.585989757047026 0.2575993089036487 0
735 2.557581393837297 0.3011100718213165 0
736 0.2174023515043832 0.1313030936111319 0
737 2.616236233623621 0.6186013294456388 0
738 2.046432538814316 0.3063098669983775 0
739 0.8970752677951297 0.2259902129364034 0
740 2.630395998811684 0.7529402629157351 0
741 2.416444672815365 0.6056390114740596 0
742 2.421364863124329 0.7304050103716364 0
743 2.435055035113266 0.6825777486872623 0
744 0.3507527638893085 0.5701777168414564 0
745 0.4566187158023827 0.4578816208129557 0
746 0.4210796585758692 0.495934818227359 0
747 0.3709122789479239 0.4826493534492935 0
748 0.4064123065560014 0.4454335087727048 0
749 0.7107793607050266 0.5163643015657284 0
750 0.1399178897540347 0.4721878722746947 0
751 0.08752389825806713 0.4597859785979755 0
752 2.738524658846967 0.7580174123636707 0
753 2.580660850116745 0.3476055784970927 0
754 0.2326996620892914 0.1786691343703144 0
755 2.90882452139724 0.5008061262072507 0
756 2.570100116995111 0.5260791423036462 0
757 2.867712827712745 0.2327174787844574 0
758 2.91687859222412 0.2336354593022699 0
759 0.2278749056094151 0.3123236059333583 0
760 0.04211563142012099 0.770708105671605 0
761 2.910108760789605 0.8094037375884078 0
762 0.5729028409122581 0.5310600706940742 0
763 0.6235455402276818 0.5428838225370496 0
764 0.6596657138302935 0.5045424183273268 0
765 2.877095810244523 0.9106639913505394 0
766 0.578543565932657 0.3931608016754808 0
767 0.2422964945022341 0.8182495599480549 0
768 2.249332993803377 0.6744950614255625 0
769 2.455497844692284 0.7691927706996428 0
770 0.3540150190642068 0.8900212044475829 0
771 2.195497325163822 0.5962069643064305 0
772 2.464154738489978 0.6078915180559151 0
773 0.3521292899067241 0.1179279321366159 0
774 0.4466850511667919 0.2712323157929667 0
775 0.8316157303230904 0.5926934983752583 0
776 0.8161380034271957 0.541605392391931 0
777 2.644475097366821 0.5753420718202227 0
778 2.307177379186826 0.6096479396039124 0
779 2.645587687092327 0.9107301078333584 0
780 2.681283302483495 0.9541194853573367 0
781 2.732684145802219 0.9316865532329348 0
782 0.1000194031203405 0.1932382043038908 0
783 0.4417651382557266 0.4079214130621693 0
784 2.743581355828403 0.1797060651377717 0
785 2.108223258118734 0.2259534565080016 0
786 2.338687366298708 0.4671404423350364 0
787 0.193432677988138 0.3493537284756897 0
788 0.3465743224561029 0.2492681048926588 0
789 2.296585858764157 0.8070252812239229 0
790 0.97686755177077 0.5816656623838578 0
791 0.7171747690669763 0.3783566500349982 0
792 2.067134258055792 0.4503742393348327 0
793 2.959594169559904 0.8749505640247275 0
794 0.1763699004804617 0.04186668278019202 0
795 0.565244852314172 0.6656533087992317 0
796 1.065391457843903 0.4071500278892029 0
797 1.156120421641562 0.3809264001148418 0
798 1.16983874046057 0.4329868055789186 0
799 1.252276895151819 0.5474070238327553 0
800 2.95732777593051 0.124957459203332 0
801 2.724435018623078 0.04418907860184954 0
802 0.9467401909782696 0.6661943886293581 0
803 2.960027795986403 0.7270912740251939 0
804 2.614185292372857 0.2141720235137164 0
805 0.9571056992793177 0.5269525477573995 0
806 2.396319824444173 0.3818666129537208 0
807 2.761679018712891 0.3141314274185649 0
808 2.516840798980001 0.1213100288045931 0
809 2.465046775269533 0.1182735225952088 0
810 2.436163173812748 0.1584755119055021 0
811 2.411252824052905 0.1147832138524964 0
812 2.539947805546916 0.07711955227250074 0
813 2.382842663175271 0.1582561966546887 0
814 2.329901215187751 0.1623078399577087 0
815 0.4243034693903502 0.04274803893496453 0
816 0.3870398152272131 0.08020554379051667 0
817 0.8001959886284777 0.1753961664034012 0
818 2.948394983035322 0.2764420729170698 0
819 2.958115581261323 0.3778525287074981 0
820 0.04281471357557337 0.6237037246647753 0
821 0.2174691886112145 0.5818064240607745 0
822 0.2464449879384348 0.6836728461090186 0
823 2.443353827747178 0.4738876735515934 0
824 0.4241962913369882 0.9571162760096243 0
825 2.608983808663617 0.3043599765642511 0
826 2.29104447719655 0.3760625398787657 0
827 0.04136639361277693 0.3784078342539757 0
828 2.775416020836879 0.7940940959007975 0
829 2.199466165170959 0.1826032988315943 0
830 2.598468994165497 0.4827633967448862 0
831 0.1787972772064312 0.3006502827754188 0
832 2.751815392471111 0.4948554794431383 0
833 2.956698729810812 0.5249999999987527 0
834 2.190187047573465 0.2809478594645109 0
835 2.723612843295779 0.5371191216371173 0
836 0.5369967939010603 0.5689420740777149 0
837 0.6825770366057395 0.7382465266316314 0
838 0.3418219026509915 0.3838578934157445 0
839 2.667552200745879 0.6224099233496883 0
840 2.448535326599641 0.3846098323114978 0
841 0.3599075032365242 0.75628514095069 0
842 2.783975393639325 0.3606287029858948 0
843 2.455211401967249 0.9031498691358928 0
844 0.4152739457119208 0.1745791042611935 0
845 2.459484093798654 0.2045467063633621 0
846 2.430616356303017 0.2480182696974395 0
847 2.326471928715026 0.2430889440755135 0
848 0.2722987729335624 0.4579200036705519 0
849 0.7093781910997464 0.188885210065249 0
850 0.3810652367873453 0.2118229309162482 0
851 0.5629693277045005 0.3435114439562566 0
852 0.6029088037104225 0.1678312671721745 0
853 2.484168867068993 0.658284586144973 0
854 0.4864108856358701 0.8753778297676791 0
855 0.5339751238795761 0.8952555293998319 0
856 2.297757097134571 0.8663403228816727 0
857 0.7024445917094539 0.1344157706468682 0
858 2.47190259106257 0.4308001834026596 0
859 0.35651743928112 0.4325466040992873 0
860 0.5596433979304865 0.8021940357769438 0
861 2.95746304629485 0.4259118070123401 0
862 0.7043674959510076 0.868557381088751 0
863 0.3213994701339363 0.4698066260590121 0
864 0.573311731391527 0.8522620655577712 0
865 0.5937284856673213 0.9036889744681293 0
866 0.4094928826236087 0.7676400057618784 0
867 2.408023884818095 0.2024897934968022 0
868 2.399311346846179 0.911007472688447 0
869 0.4859192089843817 0.09373099546064592 0
870 2.200593463964317 0.8162935494991662 0
871 2.798559662258538 0.09450256831301314 0
872 0.04189919949213381 0.4755623712889447 0
873 2.419965962447092 0.4277931258710719 0
874 0.5983469509231406 0.305410913902787 0
875 2.164541138157833 0.6427012751603682 0
876 2.674999999999995 0.04246721010346686 0
877 2.705316399034344 0.3995375571657775 0
878 1.413013809032291 0.4434357244728926 0
879 0.4445079045223586 0.7300645647702033 0
880 1.060365883455216 0.5493842205981191 0
881 0.7987885343618637 0.8236322613967876 0
882 1.198677472936846 0.3427917938289502 0
883 0.6498014408891627 0.316867047122914 0
884 2.367502265697125 0.4246370880532778 0
885 0.429850684250586 0.6812576781417434 0
886 2.44320692168595 0.0720513087706721 0
887 0.7791346919409042 0.5792605454780813 0
888 0.701330725562854 0.3287648724372961 0
889 0.7568988216137968 0.6662342040063538 0
890 0.04150568776224896 0.1250000000005203 0
891 2.315012353837074 0.4215718429831622 0
892 0.7533223366601118 0.3410569979733564 0
893 0.3369159274829464 0.06998681935030382 0
894 0.8047750630387545 0.3531366805412269 0
895 0.7324446930085372 0.7505048389804941 0
896 0.9098223468576871 0.3764218653041871 0
897 2.262194343979994 0.4185873961122957 0
898 0.9616808960992849 0.3896992227709451 0
899 0.8203771526650491 0.4031047025608814 0
900 2.724318171178845 0.8042279105887254 0
901 0.4651424074490034 0.6439316457812135 0
902 0.8723948691299834 0.4148860430662598 0
903 0.3362076463681497 0.5197239145236537 0
904 2.232701907750831 0.4615796887986739 0
905 2.179798745021116 0.4584365071238796 0
906 2.647473403927711 0.0845776458668815 0
907 2.344422958297826 0.8418109191323301 0
908 0.0406762189640485 0.5741076911782758 0
909 0.5147861822527733 0.6550381127673701 0
910 2.728483847647446 0.4476202418125235 0
911 2.596601772585235 0.08244461926058957 0
912 2.594631318954947 0.9188275171723541 0
913 2.155932083625914 0.4125570756843147 0
914 0.1987303636692557 0.08574989634426573 0
915 1.753436168352063 0.4352683613405774 0
916 2.103026136806625 0.4090499850695938 0
917 0.07610098865776783 0.04681976471055452 0
918 2.920384995893218 0.9529141506272198 0
919 0.07566631794993946 0.9583913157744022 0
920 2.923591225809592 0.04250985840518225 0
921 1.82606408468251 0.5722830006619126 0
922 2.900629722105713 0.5867397024199984 0
923 0.7602914319669547 0.2064201423012755 0
924 0.550638503526329 0.6171871511479233 0
925 1.248943099653305 0.3576223266096256 0
926 1.515324135959883 0.4694351583420645 0
927 1.358116227498922 0.3807568776293708 0
928 2.351113726803032 0.653589435820556 0
929 1.913507495354874 0.4452413425885597 0
930 0.9499760997996181 0.2447097128075499 0
931 0.1580749536935094 0.8413512929215347 0
932 2.909762628144157 0.3206052186573909 0
933 1.160651072977245 0.5720443471428729 0
934 0.5864682401781905 0.5796218809746567 0
935 0.6365327223962465 0.5908077239788291 0
936 1.313757166663173 0.4197397523308624 0
937 1.357275643932973 0.5669217821560412 0
938 1.275933337007626 0.5933105916079804 0
939 2.295330928686788 0.1285426800553693 0
940 2.574999999999998 0.0393927747926816 0
941 0.6727790473005806 0.5530172659774587 0
942 2.029804803233924 0.3660553426719426 0
943 0.2779870326783145 0.9609419420900133 0
944 1.722946728356048 0.5906961235943088 0
945 0.7249804719966476 0.5652680141357185 0
946 2.920029367660785 0.1561949578540576 0
947 0.2087285691504867 0.8531856331789037 0
948 0.0989543350205512 0.9155435926069031 0
949 1.650405704444238 0.4327546501178048 0
950 0.7476678721324659 0.7989133343061073 0
951 1.808961014713973 0.4365965437568088 0
952 2.822931884094129 0.9671896547097809 0
953 2.960779079546897 0.2238074754371896 0
954 0.5644230724030708 0.06801974626265343 0
955 2.793009968160268 0.7467625725904397 0
956 0.5589095183193692 0.9379054276923032 0
957 2.356194557248339 0.201597293449689 0
958 2.038985154228356 0.580842140746298 0
959 2.922270480119824 0.8954232637744577 0
960 0.03681774649537843 0.2718369336204856 0
961 2.051799794405858 0.2381789814369495 0
962 2.303232727747111 0.2019682214182856 0
963 2.467929062175099 0.7237742249524147 0
964 2.599780800050149 0.7921065104292968 0
965 0.4024847855032719 0.1257819385715445 0
966 2.045398564653979 0.711857580280896 0
967 2.965234644030494 0.6269866499865961 0
968 2.573214708655283 0.9620052626506871 0
969 1.962702577241807 0.7212689824527192 0
970 2.220692368463108 0.6383910329277237 0
971 2.918898058097042 0.5470006905301785 0
972 2.964597909498237 0.7749999999994057 0
973 0.03913417205675002 0.721915892381826 0
974 0.43857440503468 0.08522237820591463 0
975 0.07736941587747569 0.101255684437402 0
976 0.1489496668160973 0.07928912221959881 0
977 0.6189418415302685 0.8576589144436574 0
978 0.08229416627662578 0.4066338258297506 0
979 0.8106885820518689 0.2234071280220814 0
980 0.07718533602073725 0.5436055773918813 0
981 0.4683692383456011 0.04168167716414363 0
982 0.4711656516725404 0.9570190943495216 0
983 2.105399770134179 0.7880987396891224 0
984 1.798132401149707 0.6102345551424138 0
985 2.253081497011688 0.1971284789083363 0
986 2.922809799903634 0.453456407200203 0
987 2.059957065521353 0.4018368835043689 0
988 0.6122186697055745 0.08590471558788892 0
989 2.166425317824888 0.2385019066236139 0
990 2.399633177153537 0.6469860744341398 0
991 2.246806685558756 0.7989916834888464 0
992 0.3267164144869335 0.9653715004396797 0
993 1.889779335858205 0.406320193404579 0
994 2.773444462033744 0.9151165615393716 0
995 0.9584891173928602 0.7091427052433892 0
996 0.9746988059015177 0.6314860494785561 0
997 1.604086689968558 0.4300857222314095 0
998 1.027596735239231 0.5763602996451479 0
999 0.03130959154005955 0.8747066334902569 0
1000 2.095587733617808 0.587087245999127 0
1001 0.9673451611417889 0.2961678018334776 0
1002 1.731721842188929 0.3973994767984859 0
1003 0.9013108290943845 0.7885851492207087 0
1004 1.495274134692149 0.4271434059974791 0
1005 2.437112359899819 0.9416108264004691 0
1006 1.890908047009362 0.6934872584222204 0
1007 2.535057111003913 0.03711258182571056 0
1008 0.1435231750415219 0.9116908508358913 0
1009 2.527191939060769 0.9678527258591088 0
1010 1.566422299207938 0.4772753163048472 0
1011 2.382454692411887 0.8698597477302074 0
1012 2.389390140310196 0.07812228211111538 0
1013 0.3249999999995384 0.03005194096369373 0
1014 0.03660254037856668 0.03660254037864734 0
1015 2.963397459621468 0.9633974596214283 0
1016 0.0366025403785844 0.9633974596214155 0
1017 2.963397459621624 0.03660254037835366 0
1018 0.7128100243391222 0.8264456616054517 0
1019 2.54271131359108 0.7417243385970749 0
1020 0.8561601781519207 0.2394759848229725 0
1021 2.645779594406843 0.7908042997885376 0
1022 0.1755693123127309 0.9702959998163644 0
1023 2.922841589998575 0.356767133580614 0
1024 2.268345056321079 0.6363782090239364 0
1025 0.02848295750268485 0.2250000000009365 0
1026 2.928434503677507 0.8499999999996043 0
1027 0.1098087113768269 0.0760223047944741 0
1028 1.122898678987692 0.6007933123433028 0
1029 0.07620411084248357 0.359050650567998 0
1030 0.9945604662393033 0.3613658073590883 0
1031 0.6228794288559792 0.1343320016130336 0
1032 0.4914065278845618 0.9151836663606597 0
1033 2.019057710389182 0.4639252938637628 0
1034 2.923427206393833 0.7105586543237647 0
1035 2.930264454757432 0.197477110684857 0
1036 0.07254785837117433 0.6964730245465431 0
1037 1.323805683905752 0.5919049442885651 0
1038 2.037983817433808 0.7572422391200716 0
1039 2.49332456087914 0.08901660181353914 0
1040 0.06940394895840656 0.4996163431154357 0
1041 2.726510241083759 0.9712094368163818 0
1042 1.720462942955769 0.5509723662424519 0
1043 1.93120385372143 0.6427517902059723 0
1044 2.28580227955453 0.1667616582623932 0
1045 0.3557101614156575 0.9261286988947355 0
1046 1.446424898379975 0.4219174800526466 0
1047 2.176809502414198 0.7717676378663825 0
1048 2.442132273468737 0.6421502026593702 0
1049 1.671590811210681 0.4046958526147152 0
$EndNodes
$Elements
19 2102
1 0 15 1
1 1 
2 0 15 1
2 2 
3 0 15 1
3 3 
4 0 15 1
4 4 
5 0 15 1
5 5 
6 0 15 1
6 6 
7 0 15 1
7 7 
8 0 15 1
8 8 
9 0 15 1
9 9 
10 0 15 1
10 10 
1 1 1 10
11 1 11 
12 11 12 
13 12 13 
14 13 14 
15 14 15 
16 15 16 
17 16 17 
18 17 18 
19 18 19 
20 19 2 
2 1 1 40
21 2 20 
22 20 21 
23 21 22 
24 22 23 
25 23 24 
26 24 25 
27 25 26 
28 26 27 
29 27 28 
30 28 29 
31 29 30 
32 30 31 
33 31 32 
34 32 33 
35 33 34 
36 34 35 
37 35 36 
38 36 37 
39 37 38 
40 38 39 
41 39 40 
42 40 41 
43 41 42 
44 42 43 
45 43 44 
46 44 45 
47 45 46 
48 46 47 
49 47 48 
50 48 49 
51 49 50 
52 50 51 
53 51 52 
54 52 53 
55 53 54 
56 54 55 
57 55 56 
58 56 57 
59 57 58 
60 58 3 
3 1 1 10
61 3 59 
62 59 60 
63 60 61 
64 61 62 
65 62 63 
66 63 64 
67 64 65 
68 65 66 
69 66 67 
70 67 4 
4 1 1 20
71 4 68 
72 68 69 
73 69 70 
74 70 71 
75 71 72 
76 72 73 
77 73 74 
78 74 75 
79 75 76 
80 76 77 
81 77 78 
82 78 79 
83 79 80 
84 80 81 
85 81 82 
86 82 83 
87 83 84 
88 84 85 
89 85 86 
90 86 8 
5 1 1 10
91 8 87 
92 87 88 
93 88 89 
94 89 90 
95 90 91 
96 91 92 
97 92 93 
98 93 94 
99 94 95 
100 95 7 
6 1 1 40
101 7 96 
102 96 97 
103 97 98 
104 98 99 
105 99 100 
106 100 101 
107 101 102 
108 102 103 
109 103 104 
110 104 105 
111 105 106 
112 106 107 
113 107 108 
114 108 109 
115 109 110 
116 110 111 
117 111 112 
118 112 113 
119 113 114 
120 114 115 
121 115 116 
122 116 117 
123 117 118 
124 118 119 
125 119 120 
126 120 121 
127 121 122 
128 122 123 
129 123 124 
130 124 125 
131 125 126 
132 126 127 
133 127 128 
134 128 129 
135 129 130 
136 130 131 
137 131 132 
138 132 133 
139 133 134 
140 134 6 
7 1 1 10
141 6 135 
142 135 136 
143 136 137 
144 137 138 
145 138 139 
146 139 140 
147 140 141 
148 141 142 
149 142 143 
150 143 5 
8 1 1 20
151 5 144 
152 144 145 
153 145 146 
154 146 147 
155 147 148 
156 148 149 
157 149 150 
158 150 151 
159 151 152 
160 152 153 
161 153 154 
162 154 155 
163 155 156 
164 156 157 
165 157 158 
166 158 159 
167 159 160 
168 160 161 
169 161 162 
170 162 1 
1 2 2 1932
171 187 15 599 
172 382 220 920 
173 361 818 932 
174 168 132 865 
175 718 682 955 
176 918 765 959 
177 197 621 724 
178 363 364 738 
179 829 379 989 
180 816 773 893 
181 493 706 796 
182 381 220 382 
183 218 765 918 
184 224 382 920 
185 626 396 799 
186 211 789 856 
187 638 636 639 
188 577 572 739 
189 15 16 599 
190 176 829 989 
191 580 165 857 
192 577 739 930 
193 170 816 893 
194 227 229 631 
195 638 639 969 
196 241 243 635 
197 658 778 928 
198 303 642 1000 
199 576 175 596 
200 116 117 588 
201 132 133 865 
202 297 307 718 
203 327 686 718 
204 195 761 972 
205 361 758 818 
206 618 182 820 
207 353 617 944 
208 686 327 716 
209 617 353 984 
210 175 576 597 
211 743 853 963 
212 382 224 800 
213 671 302 900 
214 965 816 974 
215 778 285 928 
216 761 685 972 
217 706 705 796 
218 853 292 963 
219 209 717 922 
220 528 965 974 
221 197 724 725 
222 64 65 632 
223 182 618 1036 
224 738 364 942 
225 117 204 588 
226 300 718 955 
227 686 682 718 
228 642 303 875 
229 598 187 599 
230 167 811 813 
231 387 588 937 
232 717 209 967 
233 849 580 857 
234 188 687 952 
235 396 626 933 
236 385 216 588 
237 591 196 782 
238 818 181 932 
239 706 493 1030 
240 687 188 994 
241 621 197 760 
242 173 584 824 
243 755 163 833 
244 597 568 728 
245 789 211 991 
246 738 183 961 
247 243 331 635 
248 302 752 900 
249 629 351 951 
250 661 843 868 
251 557 595 889 
252 607 227 631 
253 705 554 796 
254 220 381 632 
255 229 233 631 
256 642 641 1000 
257 368 241 635 
258 928 285 990 
259 184 701 702 
260 183 695 696 
261 307 327 718 
262 300 297 718 
263 378 363 738 
264 219 948 1008 
265 216 116 588 
266 626 799 938 
267 489 495 619 
268 581 189 612 
269 710 190 871 
270 387 385 588 
271 309 693 694 
272 285 741 990 
273 194 927 936 
274 218 687 765 
275 595 546 889 
276 202 579 927 
277 92 93 780 
278 378 738 961 
279 628 629 951 
280 588 204 937 
281 230 226 383 
282 383 216 385 
283 868 843 1005 
284 579 202 878 
285 811 167 1012 
286 377 785 989 
287 927 579 936 
288 93 169 780 
289 309 692 693 
290 65 220 632 
291 190 64 632 
292 701 184 995 
293 518 592 594 
294 165 580 1031 
295 828 752 955 
296 517 518 594 
297 618 619 1036 
298 856 789 907 
299 178 583 722 
300 687 218 952 
301 190 632 871 
302 695 183 738 
303 855 207 1032 
304 931 480 947 
305 168 865 977 
306 619 495 620 
307 196 712 782 
308 163 755 986 
309 311 325 719 
310 207 855 956 
311 189 581 943 
312 366 367 603 
313 168 586 862 
314 716 719 922 
315 193 112 607 
316 717 716 922 
317 206 730 731 
318 606 440 720 
319 226 225 383 
320 958 247 1000 
321 576 550 597 
322 550 568 597 
323 593 618 820 
324 606 720 821 
325 596 175 881 
326 592 518 618 
327 107 638 969 
328 797 185 882 
329 205 589 869 
330 604 819 861 
331 609 299 842 
332 634 368 635 
333 752 300 955 
334 377 378 785 
335 597 728 1003 
336 230 383 384 
337 177 715 717 
338 554 705 797 
339 638 107 1006 
340 517 594 720 
341 201 225 226 
342 201 114 225 
343 997 231 1010 
344 518 489 619 
345 382 800 946 
346 785 176 989 
347 112 113 607 
348 633 368 634 
349 342 352 605 
350 366 603 605 
351 583 178 960 
352 603 367 604 
353 210 751 872 
354 435 887 945 
355 41 203 600 
356 584 173 1045 
357 193 607 631 
358 665 301 964 
359 584 585 824 
360 278 877 910 
361 641 958 1000 
362 212 849 857 
363 605 609 842 
364 301 665 1019 
365 819 604 1023 
366 236 915 951 
367 601 997 1010 
368 595 596 895 
369 339 708 710 
370 325 372 719 
371 373 603 604 
372 701 698 702 
373 695 691 696 
374 339 710 871 
375 611 882 925 
376 294 295 707 
377 694 693 942 
378 589 205 954 
379 613 219 1008 
380 602 557 889 
381 725 223 999 
382 223 725 948 
383 639 179 969 
384 327 311 719 
385 219 613 1022 
386 614 931 947 
387 180 713 714 
388 440 606 729 
389 603 342 605 
390 626 624 933 
391 119 199 616 
392 187 598 914 
393 707 295 804 
394 720 594 821 
395 303 771 875 
396 611 797 882 
397 167 813 814 
398 751 210 978 
399 431 744 903 
400 615 304 707 
401 605 352 609 
402 708 339 784 
403 695 738 942 
404 196 591 1025 
405 623 624 626 
406 628 627 629 
407 602 555 887 
408 725 724 726 
409 930 180 1001 
410 304 294 707 
411 222 917 975 
412 606 556 729 
413 729 556 744 
414 169 779 780 
415 714 706 1030 
416 555 602 889 
417 546 595 895 
418 975 917 1027 
419 304 615 784 
420 610 611 925 
421 802 701 995 
422 498 699 880 
423 698 697 702 
424 691 690 696 
425 186 109 622 
426 45 192 627 
427 121 191 623 
428 904 252 905 
429 186 622 633 
430 623 191 624 
431 627 192 629 
432 730 206 843 
433 586 168 977 
434 302 671 1021 
435 612 189 613 
436 48 183 696 
437 124 184 702 
438 600 203 997 
439 177 717 967 
440 194 610 925 
441 614 726 931 
442 577 930 1001 
443 46 47 690 
444 122 123 697 
445 295 734 804 
446 877 609 910 
447 690 47 696 
448 697 123 702 
449 221 918 959 
450 615 708 784 
451 581 582 943 
452 180 30 713 
453 208 812 1039 
454 190 710 801 
455 590 589 954 
456 887 555 945 
457 869 974 981 
458 351 629 993 
459 895 596 950 
460 948 726 1008 
461 865 133 956 
462 635 331 636 
463 113 201 607 
464 299 609 877 
465 620 495 621 
466 30 31 713 
467 716 327 719 
468 703 340 777 
469 875 771 970 
470 737 777 839 
471 205 869 981 
472 618 518 619 
473 39 215 608 
474 114 115 225 
475 330 305 784 
476 812 208 1007 
477 744 556 903 
478 202 38 608 
479 40 41 600 
480 705 185 797 
481 844 733 850 
482 703 371 835 
483 47 48 696 
484 123 124 702 
485 915 628 951 
486 748 520 783 
487 735 734 825 
488 510 844 850 
489 371 832 835 
490 748 747 859 
491 567 722 727 
492 578 714 1030 
493 488 567 727 
494 406 896 898 
495 818 758 953 
496 896 578 898 
497 384 383 385 
498 745 748 783 
499 201 226 227 
500 172 645 1047 
501 203 42 689 
502 118 119 616 
503 340 703 835 
504 459 733 774 
505 610 194 936 
506 720 440 822 
507 620 621 760 
508 219 919 948 
509 859 747 863 
510 777 340 839 
511 734 295 825 
512 479 480 723 
513 517 720 822 
514 7 96 206 
515 2 20 205 
516 43 200 689 
517 111 193 617 
518 634 638 1006 
519 58 3 208 
520 134 6 207 
521 721 349 756 
522 849 212 923 
523 700 790 998 
524 366 605 842 
525 339 330 784 
526 704 185 705 
527 881 213 950 
528 109 110 622 
529 44 45 627 
530 120 121 623 
531 488 727 787 
532 192 46 690 
533 191 122 697 
534 292 688 963 
535 305 304 784 
536 301 740 964 
537 710 709 801 
538 692 309 929 
539 733 732 774 
540 599 16 1013 
541 375 904 905 
542 349 721 777 
543 755 833 971 
544 790 700 996 
545 209 922 971 
546 773 816 965 
547 590 954 988 
548 957 847 962 
549 730 667 731 
550 906 365 911 
551 737 349 777 
552 31 704 713 
553 186 633 634 
554 629 192 630 
555 624 191 625 
556 32 185 704 
557 617 193 944 
558 756 267 830 
559 495 479 723 
560 612 613 614 
561 943 582 992 
562 500 553 736 
563 753 735 825 
564 343 734 735 
565 467 457 732 
566 632 381 871 
567 596 881 950 
568 379 829 985 
569 746 431 747 
570 721 756 830 
571 314 735 753 
572 428 431 746 
573 437 440 729 
574 745 746 748 
575 636 331 637 
576 662 663 664 
577 347 356 365 
578 289 302 740 
579 664 667 730 
580 433 729 744 
581 755 373 986 
582 664 665 666 
583 288 281 737 
584 433 437 729 
585 621 495 723 
586 667 666 668 
587 732 457 774 
588 664 663 665 
589 345 346 347 
590 511 475 754 
591 519 527 528 
592 663 660 769 
593 287 289 740 
594 430 433 744 
595 500 736 754 
596 477 488 787 
597 662 660 663 
598 664 666 667 
599 562 418 766 
600 688 663 769 
601 742 655 743 
602 426 428 746 
603 450 459 774 
604 519 491 527 
605 448 450 774 
606 752 828 900 
607 316 343 735 
608 384 385 386 
609 721 703 777 
610 787 727 831 
611 892 561 894 
612 227 226 228 
613 527 732 733 
614 259 261 741 
615 201 227 607 
616 347 346 356 
617 520 449 783 
618 449 446 783 
619 522 584 770 
620 712 196 890 
621 347 369 804 
622 288 737 839 
623 759 787 831 
624 349 265 756 
625 347 365 369 
626 654 655 742 
627 480 471 767 
628 125 126 728 
629 415 749 764 
630 343 345 734 
631 369 707 804 
632 448 446 449 
633 745 426 746 
634 257 285 778 
635 281 275 737 
636 657 742 769 
637 343 344 345 
638 527 733 844 
639 734 345 804 
640 491 467 732 
641 447 446 448 
642 261 263 772 
643 520 748 859 
644 736 511 754 
645 369 365 370 
646 662 664 730 
647 503 575 750 
648 255 256 257 
649 566 750 751 
650 448 449 450 
651 301 287 740 
652 361 757 758 
653 255 257 778 
654 750 575 751 
655 255 254 256 
656 422 423 424 
657 257 258 259 
658 337 380 757 
659 562 766 851 
660 259 260 261 
661 263 274 772 
662 257 256 258 
663 423 426 745 
664 424 745 783 
665 661 660 662 
666 474 456 759 
667 704 705 706 
668 419 421 422 
669 424 423 745 
670 668 666 669 
671 147 148 760 
672 657 654 742 
673 197 147 760 
674 654 653 655 
675 437 436 438 
676 433 432 436 
677 258 256 786 
678 265 264 756 
679 430 432 433 
680 299 284 807 
681 287 288 289 
682 428 429 430 
683 282 283 284 
684 433 436 437 
685 437 438 439 
686 430 429 432 
687 459 452 788 
688 259 258 260 
689 324 337 757 
690 287 281 288 
691 422 421 423 
692 276 277 282 
693 445 424 446 
694 509 529 773 
695 261 262 263 
696 668 669 670 
697 684 679 761 
698 185 33 882 
699 267 269 830 
700 527 491 732 
701 411 409 776 
702 485 503 750 
703 284 283 294 
704 659 657 660 
705 333 258 786 
706 291 300 752 
707 282 277 283 
708 746 747 748 
709 757 380 758 
710 450 451 452 
711 741 261 772 
712 316 318 343 
713 286 281 287 
714 418 417 419 
715 733 459 850 
716 652 651 653 
717 439 438 442 
718 435 411 776 
719 481 507 767 
720 275 349 737 
721 253 254 255 
722 263 264 265 
723 416 415 417 
724 440 439 822 
725 652 653 654 
726 712 505 782 
727 471 470 767 
728 475 463 754 
729 450 449 451 
730 648 647 768 
731 673 674 781 
732 314 316 735 
733 456 455 759 
734 615 370 708 
735 284 294 296 
736 302 291 752 
737 708 709 710 
738 264 267 756 
739 452 453 454 
740 261 260 262 
741 272 271 276 
742 341 373 755 
743 621 723 724 
744 416 417 418 
745 289 288 290 
746 428 427 429 
747 289 290 291 
748 708 370 709 
749 272 276 278 
750 423 425 426 
751 670 672 673 
752 269 271 272 
753 275 265 349 
754 439 442 443 
755 414 413 415 
756 286 287 301 
757 630 192 690 
758 625 191 697 
759 356 808 812 
760 509 475 511 
761 426 427 428 
762 289 291 302 
763 497 491 519 
764 345 344 346 
765 502 606 821 
766 369 370 615 
767 673 672 674 
768 296 294 304 
769 276 271 277 
770 253 252 254 
771 455 464 759 
772 454 455 456 
773 280 275 281 
774 509 511 529 
775 263 262 264 
776 462 456 463 
777 414 415 416 
778 443 442 470 
779 650 651 652 
780 291 297 300 
781 307 311 327 
782 747 431 903 
783 505 499 782 
784 650 648 651 
785 452 451 453 
786 507 496 581 
787 454 453 455 
788 444 775 776 
789 443 470 471 
790 464 477 787 
791 270 314 753 
792 282 284 299 
793 488 566 567 
794 417 415 764 
795 481 494 496 
796 296 304 305 
797 313 278 371 
798 488 484 566 
799 554 797 798 
800 285 259 741 
801 797 611 798 
802 678 684 765 
803 470 473 481 
804 470 481 767 
805 463 474 476 
806 372 341 755 
807 501 591 782 
808 529 511 598 
809 428 430 431 
810 291 290 297 
811 670 671 672 
812 324 330 337 
813 479 471 480 
814 660 657 769 
815 477 484 488 
816 462 463 475 
817 325 341 372 
818 419 420 421 
819 656 654 657 
820 481 496 507 
821 337 330 338 
822 454 456 462 
823 179 639 966 
824 558 592 593 
825 489 479 495 
826 476 474 482 
827 308 305 324 
828 500 499 505 
829 269 270 271 
830 267 268 269 
831 337 338 359 
832 472 471 479 
833 636 637 639 
834 507 581 612 
835 446 424 783 
836 461 418 562 
837 431 430 744 
838 476 482 499 
839 27 28 739 
840 779 673 780 
841 679 681 761 
842 485 487 503 
843 324 305 330 
844 501 583 591 
845 413 435 749 
846 264 266 267 
847 464 465 477 
848 50 51 785 
849 668 670 779 
850 463 456 474 
851 780 673 781 
852 503 504 558 
853 529 598 599 
854 360 334 361 
855 444 513 775 
856 409 444 776 
857 477 478 484 
858 539 538 795 
859 412 411 413 
860 538 534 565 
861 274 265 275 
862 415 413 749 
863 256 254 279 
864 499 482 501 
865 681 683 685 
866 341 342 373 
867 437 439 440 
868 481 473 494 
869 687 678 765 
870 412 413 414 
871 253 298 771 
872 499 501 782 
873 325 326 341 
874 646 647 648 
875 593 592 618 
876 22 23 165 
877 98 99 166 
878 581 496 582 
879 522 524 584 
880 516 557 602 
881 308 324 334 
882 503 558 575 
883 343 318 344 
884 455 458 464 
885 334 324 757 
886 37 202 927 
887 311 312 325 
888 676 678 687 
889 472 479 489 
890 257 259 285 
891 450 452 459 
892 359 338 381 
893 426 425 427 
894 557 576 595 
895 470 442 473 
896 500 505 553 
897 678 679 684 
898 296 305 308 
899 553 505 569 
900 558 504 592 
901 297 306 307 
902 501 506 583 
903 476 499 500 
904 419 422 766 
905 313 371 703 
906 307 310 311 
907 490 467 491 
908 384 386 564 
909 676 677 678 
910 386 385 387 
911 228 226 230 
912 361 334 757 
913 508 475 509 
914 345 347 804 
915 227 228 229 
916 503 487 504 
917 418 419 766 
918 443 471 472 
919 653 651 658 
920 323 354 826 
921 253 255 298 
922 542 539 795 
923 413 411 435 
924 423 421 425 
925 263 265 274 
926 674 675 676 
927 646 644 647 
928 681 685 761 
929 670 669 671 
930 569 505 712 
931 373 342 603 
932 516 550 557 
933 251 252 253 
934 422 424 445 
935 371 278 910 
936 272 278 313 
937 298 255 778 
938 544 542 549 
939 474 759 831 
940 422 445 766 
941 410 409 411 
942 419 417 420 
943 251 253 771 
944 359 381 382 
945 212 25 817 
946 649 648 650 
947 368 633 921 
948 484 485 750 
949 445 446 447 
950 704 706 713 
951 477 465 478 
952 337 359 380 
953 280 281 286 
954 410 411 412 
955 678 677 679 
956 366 360 367 
957 341 326 342 
958 670 673 779 
959 100 101 211 
960 24 25 212 
961 484 478 485 
962 566 484 750 
963 759 464 787 
964 464 458 465 
965 303 251 771 
966 583 506 722 
967 251 250 252 
968 598 511 736 
969 325 312 326 
970 625 697 698 
971 350 334 360 
972 447 448 457 
973 715 716 717 
974 683 686 715 
975 269 268 270 
976 517 489 518 
977 457 448 774 
978 267 266 268 
979 674 672 675 
980 630 690 691 
981 681 682 683 
982 338 330 339 
983 407 409 410 
984 256 279 786 
985 321 319 806 
986 557 550 576 
987 639 637 640 
988 451 520 838 
989 549 542 795 
990 249 250 251 
991 409 408 444 
992 407 408 409 
993 676 675 677 
994 513 516 775 
995 645 644 646 
996 354 321 806 
997 315 273 840 
998 513 515 516 
999 501 482 506 
1000 643 642 644 
1001 311 310 312 
1002 249 248 250 
1003 656 657 659 
1004 455 453 458 
1005 516 602 775 
1006 297 290 306 
1007 469 790 805 
1008 713 706 714 
1009 229 228 231 
1010 386 387 388 
1011 416 418 461 
1012 652 654 656 
1013 646 648 649 
1014 260 258 333 
1015 25 26 817 
1016 274 275 280 
1017 403 469 805 
1018 264 262 266 
1019 679 680 681 
1020 640 637 641 
1021 625 698 699 
1022 247 248 249 
1023 516 515 550 
1024 171 27 739 
1025 630 691 692 
1026 659 660 661 
1027 451 449 520 
1028 640 641 642 
1029 699 698 700 
1030 412 414 466 
1031 250 248 293 
1032 692 691 693 
1033 595 576 596 
1034 307 306 310 
1035 444 512 513 
1036 131 132 168 
1037 55 56 167 
1038 51 176 785 
1039 247 246 248 
1040 249 251 303 
1041 463 476 754 
1042 651 648 768 
1043 643 644 645 
1044 452 454 788 
1045 406 405 407 
1046 245 246 247 
1047 693 691 695 
1048 184 125 728 
1049 229 231 232 
1050 388 387 389 
1051 407 405 408 
1052 129 130 213 
1053 53 54 214 
1054 444 408 512 
1055 700 698 701 
1056 404 405 406 
1057 404 403 405 
1058 640 642 643 
1059 113 114 201 
1060 37 38 202 
1061 41 42 203 
1062 117 118 204 
1063 42 43 689 
1064 111 112 193 
1065 35 36 194 
1066 110 111 617 
1067 245 244 246 
1068 119 120 199 
1069 43 44 200 
1070 388 390 579 
1071 108 109 186 
1072 32 33 185 
1073 45 46 192 
1074 121 122 191 
1075 31 32 704 
1076 554 400 796 
1077 48 49 183 
1078 105 106 179 
1079 29 30 180 
1080 124 125 184 
1081 388 389 390 
1082 229 232 233 
1083 102 103 172 
1084 51 52 176 
1085 26 27 171 
1086 127 128 175 
1087 115 116 216 
1088 161 162 222 
1089 85 86 221 
1090 39 40 215 
1091 400 402 796 
1092 402 404 493 
1093 398 400 554 
1094 38 39 608 
1095 88 89 218 
1096 12 13 217 
1097 243 245 331 
1098 392 394 610 
1099 398 554 798 
1100 225 216 383 
1101 144 145 223 
1102 68 69 224 
1103 244 242 309 
1104 403 401 469 
1105 402 493 796 
1106 115 216 225 
1107 665 663 688 
1108 239 241 368 
1109 84 85 793 
1110 402 403 404 
1111 235 237 353 
1112 391 563 799 
1113 240 238 351 
1114 243 244 245 
1115 85 221 793 
1116 402 401 403 
1117 399 397 498 
1118 234 232 376 
1119 400 401 402 
1120 243 242 244 
1121 241 242 243 
1122 200 627 628 
1123 199 623 626 
1124 400 399 401 
1125 391 389 563 
1126 398 399 400 
1127 241 240 242 
1128 141 142 219 
1129 65 66 220 
1130 329 323 826 
1131 159 160 196 
1132 83 84 195 
1133 395 393 396 
1134 610 394 611 
1135 395 397 398 
1136 215 600 601 
1137 398 397 399 
1138 239 240 241 
1139 110 617 622 
1140 200 44 627 
1141 199 120 623 
1142 239 238 240 
1143 395 396 397 
1144 393 391 799 
1145 237 238 239 
1146 215 40 600 
1147 204 118 616 
1148 13 14 794 
1149 195 84 793 
1150 233 232 234 
1151 237 236 238 
1152 390 389 391 
1153 392 393 394 
1154 390 391 392 
1155 217 13 794 
1156 235 236 237 
1157 233 234 235 
1158 394 393 395 
1159 69 70 800 
1160 235 234 236 
1161 392 391 393 
1162 611 394 798 
1163 395 398 798 
1164 224 69 800 
1165 396 393 799 
1166 394 395 798 
1167 502 556 606 
1168 90 91 188 
1169 14 15 187 
1170 510 509 773 
1171 146 147 197 
1172 70 71 198 
1173 248 246 792 
1174 14 187 794 
1175 790 512 805 
1176 70 198 800 
1177 405 403 805 
1178 53 214 829 
1179 476 500 754 
1180 512 408 805 
1181 139 140 189 
1182 63 64 190 
1183 52 53 829 
1184 293 248 792 
1185 513 514 515 
1186 80 81 177 
1187 156 157 178 
1188 462 475 508 
1189 513 512 514 
1190 515 514 802 
1191 571 573 574 
1192 568 515 802 
1193 308 334 350 
1194 408 405 805 
1195 514 512 790 
1196 550 515 568 
1197 643 645 711 
1198 336 329 355 
1199 714 578 1001 
1200 350 360 366 
1201 416 461 791 
1202 466 414 791 
1203 299 807 842 
1204 319 315 840 
1205 485 486 487 
1206 81 82 803 
1207 573 577 578 
1208 506 482 831 
1209 438 441 841 
1210 323 321 354 
1211 358 363 377 
1212 497 519 589 
1213 414 416 791 
1214 472 489 517 
1215 592 504 594 
1216 650 652 789 
1217 26 171 817 
1218 363 362 364 
1219 93 94 169 
1220 17 18 170 
1221 421 420 762 
1222 177 81 803 
1223 377 363 378 
1224 438 436 441 
1225 652 656 789 
1226 454 462 788 
1227 73 74 181 
1228 149 150 182 
1229 573 572 577 
1230 715 686 716 
1231 155 156 827 
1232 72 73 818 
1233 271 270 753 
1234 683 682 686 
1235 490 491 497 
1236 439 443 822 
1237 723 480 931 
1238 571 572 573 
1239 357 355 375 
1240 260 333 823 
1241 277 271 753 
1242 420 417 764 
1243 156 178 827 
1244 284 296 807 
1245 681 680 682 
1246 60 61 174 
1247 136 137 173 
1248 622 617 984 
1249 694 942 987 
1250 355 329 826 
1251 788 508 850 
1252 358 362 363 
1253 528 527 844 
1254 62 63 801 
1255 176 52 829 
1256 369 615 707 
1257 150 151 820 
1258 462 508 788 
1259 571 570 572 
1260 74 75 819 
1261 679 677 680 
1262 63 190 801 
1263 762 420 763 
1264 459 788 850 
1265 269 272 830 
1266 154 155 210 
1267 78 79 209 
1268 482 474 831 
1269 494 522 770 
1270 358 377 834 
1271 561 570 571 
1272 727 506 831 
1273 294 283 295 
1274 336 355 357 
1275 73 181 818 
1276 313 703 721 
1277 487 502 821 
1278 543 542 544 
1279 496 494 770 
1280 541 539 542 
1281 270 273 314 
1282 296 308 807 
1283 429 427 434 
1284 308 350 807 
1285 358 357 362 
1286 722 506 727 
1287 545 544 548 
1288 443 472 822 
1289 194 36 927 
1290 316 317 318 
1291 425 421 762 
1292 77 78 833 
1293 314 315 316 
1294 658 651 768 
1295 182 150 820 
1296 328 335 374 
1297 342 326 352 
1298 181 74 819 
1299 472 517 822 
1300 336 357 358 
1301 487 486 502 
1302 561 560 570 
1303 210 155 827 
1304 677 675 828 
1305 552 560 561 
1306 694 792 1033 
1307 277 753 825 
1308 374 335 379 
1309 806 319 840 
1310 335 329 336 
1311 504 487 821 
1312 76 77 163 
1313 152 153 164 
1314 508 509 510 
1315 310 306 340 
1316 582 496 770 
1317 543 544 545 
1318 465 458 483 
1319 485 478 486 
1320 453 451 838 
1321 543 545 546 
1322 545 548 555 
1323 508 510 850 
1324 680 677 828 
1325 272 313 830 
1326 328 329 335 
1327 442 438 841 
1328 283 277 825 
1329 290 288 839 
1330 262 260 823 
1331 266 262 823 
1332 320 322 332 
1333 594 504 821 
1334 541 542 543 
1335 552 551 560 
1336 535 534 538 
1337 537 551 552 
1338 328 323 329 
1339 326 312 832 
1340 763 420 764 
1341 540 559 860 
1342 336 358 834 
1343 78 209 833 
1344 586 547 587 
1345 379 335 834 
1346 335 336 834 
1347 661 662 843 
1348 312 310 835 
1349 502 526 556 
1350 540 547 559 
1351 270 268 273 
1352 584 524 585 
1353 322 321 323 
1354 18 19 815 
1355 313 721 830 
1356 478 465 848 
1357 356 346 808 
1358 427 425 836 
1359 473 442 841 
1360 320 319 321 
1361 460 457 467 
1362 322 323 328 
1363 494 473 521 
1364 530 531 537 
1365 535 538 539 
1366 645 172 983 
1367 502 486 526 
1368 537 531 551 
1369 350 366 842 
1370 425 762 836 
1371 591 583 960 
1372 320 321 322 
1373 458 453 838 
1374 531 492 580 
1375 170 18 815 
1376 346 344 348 
1377 306 290 839 
1378 280 286 292 
1379 352 326 832 
1380 166 99 856 
1381 165 23 857 
1382 494 521 522 
1383 163 77 833 
1384 468 467 490 
1385 772 274 853 
1386 468 492 530 
1387 92 780 1041 
1388 726 724 931 
1389 35 194 925 
1390 314 273 315 
1391 318 317 846 
1392 541 543 837 
1393 540 539 541 
1394 310 340 835 
1395 317 319 320 
1396 540 541 547 
1397 465 483 848 
1398 559 547 586 
1399 832 312 835 
1400 807 350 842 
1401 543 546 837 
1402 328 374 847 
1403 587 547 837 
1404 589 519 869 
1405 535 539 540 
1406 530 492 531 
1407 486 478 848 
1408 533 532 534 
1409 316 315 317 
1410 340 306 839 
1411 317 315 319 
1412 174 906 911 
1413 434 427 836 
1414 320 332 846 
1415 547 541 837 
1416 483 458 838 
1417 135 136 824 
1418 332 322 847 
1419 580 492 852 
1420 199 626 938 
1421 447 457 460 
1422 468 490 492 
1423 819 75 861 
1424 274 280 853 
1425 525 523 532 
1426 295 283 825 
1427 460 467 468 
1428 533 534 535 
1429 322 328 847 
1430 102 172 870 
1431 497 589 590 
1432 381 338 871 
1433 317 320 846 
1434 100 211 856 
1435 24 212 857 
1436 551 531 849 
1437 99 100 856 
1438 23 24 857 
1439 593 820 908 
1440 136 173 824 
1441 766 445 851 
1442 604 367 1023 
1443 344 318 845 
1444 531 580 849 
1445 526 486 848 
1446 278 276 877 
1447 76 163 861 
1448 699 498 1028 
1449 170 815 816 
1450 521 473 841 
1451 848 483 863 
1452 211 101 870 
1453 811 810 813 
1454 266 823 858 
1455 662 730 843 
1456 282 299 877 
1457 268 266 858 
1458 75 76 861 
1459 845 318 846 
1460 435 776 887 
1461 522 523 524 
1462 565 534 879 
1463 840 273 858 
1464 346 348 808 
1465 131 168 862 
1466 525 533 536 
1467 838 520 859 
1468 273 268 858 
1469 130 131 862 
1470 526 848 863 
1471 490 497 852 
1472 644 642 875 
1473 866 441 879 
1474 525 532 533 
1475 445 447 851 
1476 874 530 883 
1477 522 521 523 
1478 348 344 845 
1479 809 810 811 
1480 492 490 852 
1481 860 559 864 
1482 801 709 876 
1483 280 292 853 
1484 213 130 862 
1485 532 866 879 
1486 810 348 845 
1487 809 348 810 
1488 519 528 869 
1489 447 460 851 
1490 154 210 872 
1491 524 523 525 
1492 562 851 874 
1493 497 590 852 
1494 808 348 809 
1495 483 838 859 
1496 174 61 876 
1497 62 801 876 
1498 535 540 860 
1499 388 579 878 
1500 164 153 872 
1501 469 401 880 
1502 399 498 880 
1503 813 810 867 
1504 175 128 881 
1505 779 169 912 
1506 536 860 864 
1507 845 846 867 
1508 841 441 866 
1509 533 535 860 
1510 775 602 887 
1511 858 823 873 
1512 585 524 854 
1513 564 386 878 
1514 854 536 855 
1515 466 892 894 
1516 525 536 854 
1517 731 667 912 
1518 536 533 860 
1519 129 213 881 
1520 468 530 874 
1521 98 166 868 
1522 483 859 863 
1523 97 98 868 
1524 855 864 865 
1525 562 874 883 
1526 101 102 870 
1527 616 199 938 
1528 532 523 866 
1529 524 525 854 
1530 810 845 867 
1531 441 436 885 
1532 964 740 1021 
1533 879 441 885 
1534 846 332 867 
1535 668 779 912 
1536 153 154 872 
1537 773 529 893 
1538 598 736 914 
1539 338 339 871 
1540 521 841 866 
1541 855 536 864 
1542 840 858 873 
1543 851 460 874 
1544 356 812 911 
1545 161 222 890 
1546 196 160 890 
1547 823 333 873 
1548 647 644 875 
1549 565 879 885 
1550 61 62 876 
1551 406 407 902 
1552 561 571 894 
1553 523 521 866 
1554 545 555 889 
1555 672 671 900 
1556 688 292 1019 
1557 375 355 897 
1558 404 406 898 
1559 806 840 873 
1560 573 578 896 
1561 460 468 874 
1562 370 365 906 
1563 739 28 930 
1564 254 252 904 
1565 276 282 877 
1566 412 466 899 
1567 638 634 1043 
1568 252 250 905 
1569 636 638 1043 
1570 175 597 1003 
1571 429 434 901 
1572 386 388 878 
1573 882 34 925 
1574 828 675 900 
1575 197 725 999 
1576 401 399 880 
1577 528 844 965 
1578 968 95 1009 
1579 806 873 884 
1580 873 333 884 
1581 795 909 924 
1582 29 180 930 
1583 461 562 883 
1584 795 538 909 
1585 534 532 879 
1586 436 432 885 
1587 820 151 908 
1588 236 234 915 
1589 87 88 918 
1590 11 12 917 
1591 142 143 919 
1592 66 67 920 
1593 128 129 881 
1594 33 34 882 
1595 239 368 921 
1596 353 237 921 
1597 794 187 914 
1598 57 58 886 
1599 354 884 891 
1600 152 164 908 
1601 357 375 913 
1602 333 786 884 
1603 749 435 945 
1604 354 806 884 
1605 461 883 888 
1606 215 601 1004 
1607 530 537 883 
1608 837 546 895 
1609 653 658 928 
1610 884 786 891 
1611 208 3 1007 
1612 167 814 939 
1613 367 360 932 
1614 776 775 887 
1615 883 537 888 
1616 764 749 941 
1617 309 242 929 
1618 240 351 929 
1619 791 461 888 
1620 210 827 978 
1621 792 694 987 
1622 526 863 903 
1623 863 747 903 
1624 480 767 947 
1625 498 397 933 
1626 537 552 888 
1627 546 545 889 
1628 656 659 907 
1629 551 849 923 
1630 762 763 934 
1631 791 888 892 
1632 548 935 941 
1633 392 610 936 
1634 579 390 936 
1635 548 544 935 
1636 888 552 892 
1637 885 432 901 
1638 826 354 891 
1639 160 161 890 
1640 814 957 962 
1641 466 791 892 
1642 552 561 892 
1643 786 279 891 
1644 563 389 937 
1645 891 279 897 
1646 612 614 947 
1647 609 352 910 
1648 826 891 897 
1649 809 811 886 
1650 529 599 893 
1651 688 769 963 
1652 789 656 907 
1653 901 434 909 
1654 139 189 943 
1655 571 574 894 
1656 352 832 910 
1657 230 384 926 
1658 466 894 899 
1659 507 612 947 
1660 214 54 939 
1661 565 885 901 
1662 174 876 906 
1663 896 406 902 
1664 410 412 899 
1665 206 731 1009 
1666 549 795 924 
1667 778 658 1024 
1668 574 573 896 
1669 832 371 910 
1670 432 429 901 
1671 493 404 898 
1672 410 899 902 
1673 60 174 940 
1674 58 208 886 
1675 675 672 900 
1676 407 410 902 
1677 104 711 983 
1678 899 574 902 
1679 55 167 939 
1680 355 826 897 
1681 587 837 895 
1682 742 743 963 
1683 376 232 949 
1684 50 785 961 
1685 620 760 973 
1686 375 897 904 
1687 771 298 970 
1688 238 236 951 
1689 941 749 945 
1690 556 526 903 
1691 373 604 986 
1692 591 960 1025 
1693 719 372 922 
1694 785 378 961 
1695 218 89 952 
1696 90 188 952 
1697 198 71 953 
1698 200 628 1002 
1699 665 688 1019 
1700 309 694 1033 
1701 934 763 935 
1702 72 818 953 
1703 250 293 905 
1704 279 254 904 
1705 736 553 914 
1706 183 49 961 
1707 909 434 924 
1708 978 827 1029 
1709 106 107 969 
1710 709 370 906 
1711 203 949 997 
1712 151 152 908 
1713 375 905 913 
1714 549 924 934 
1715 365 356 911 
1716 711 104 1038 
1717 538 565 909 
1718 293 792 916 
1719 667 668 912 
1720 666 665 964 
1721 913 293 916 
1722 359 382 946 
1723 685 803 972 
1724 876 709 906 
1725 680 828 955 
1726 174 911 940 
1727 566 751 978 
1728 332 847 957 
1729 166 856 907 
1730 601 926 1004 
1731 637 331 958 
1732 362 357 913 
1733 234 376 915 
1734 814 813 957 
1735 186 634 1006 
1736 362 913 916 
1737 178 157 960 
1738 765 684 959 
1739 364 362 916 
1740 12 217 917 
1741 88 218 918 
1742 219 142 919 
1743 220 66 920 
1744 133 134 956 
1745 331 245 958 
1746 728 126 1003 
1747 237 239 921 
1748 212 817 923 
1749 639 640 966 
1750 643 711 966 
1751 80 177 967 
1752 209 79 967 
1753 205 20 954 
1754 83 195 972 
1755 803 82 972 
1756 560 551 923 
1757 565 901 909 
1758 760 148 973 
1759 107 108 1006 
1760 149 182 973 
1761 894 574 899 
1762 34 35 925 
1763 790 469 998 
1764 862 586 1018 
1765 434 836 924 
1766 384 564 926 
1767 655 653 928 
1768 647 875 970 
1769 574 896 902 
1770 193 631 944 
1771 188 781 994 
1772 94 95 968 
1773 911 812 940 
1774 36 37 927 
1775 575 558 980 
1776 242 240 929 
1777 781 674 994 
1778 28 29 930 
1779 559 586 977 
1780 724 723 931 
1781 2 205 981 
1782 897 279 904 
1783 794 914 976 
1784 360 361 932 
1785 103 104 983 
1786 803 685 1034 
1787 207 6 982 
1788 397 396 933 
1789 924 836 934 
1790 628 915 1002 
1791 613 189 1022 
1792 676 687 994 
1793 836 762 934 
1794 870 172 1047 
1795 19 2 981 
1796 813 867 957 
1797 650 789 991 
1798 6 135 982 
1799 104 105 1038 
1800 173 137 992 
1801 935 763 941 
1802 22 165 988 
1803 514 790 996 
1804 127 175 1003 
1805 905 293 913 
1806 629 630 993 
1807 544 549 935 
1808 740 302 1021 
1809 379 834 989 
1810 731 968 1009 
1811 726 614 1008 
1812 938 563 1037 
1813 247 249 1000 
1814 390 392 936 
1815 223 145 999 
1816 146 197 999 
1817 649 870 1047 
1818 616 938 1037 
1819 685 683 1034 
1820 180 714 1001 
1821 770 584 1045 
1822 799 563 938 
1823 1 11 1014 
1824 162 1 1014 
1825 86 8 1015 
1826 8 87 1015 
1827 143 5 1016 
1828 5 144 1016 
1829 67 4 1017 
1830 4 68 1017 
1831 781 188 1041 
1832 869 528 974 
1833 645 646 1047 
1834 725 726 948 
1835 17 170 1013 
1836 141 219 1022 
1837 389 387 937 
1838 189 140 1022 
1839 231 228 1010 
1840 235 353 1042 
1841 988 165 1031 
1842 59 60 940 
1843 792 246 1033 
1844 244 309 1033 
1845 159 196 1025 
1846 188 91 1041 
1847 575 980 1040 
1848 54 55 939 
1849 865 864 977 
1850 970 298 1024 
1851 549 934 935 
1852 763 764 941 
1853 57 886 1012 
1854 292 286 1019 
1855 693 695 942 
1856 138 139 943 
1857 167 56 1012 
1858 380 359 946 
1859 843 206 1005 
1860 625 699 1028 
1861 829 214 985 
1862 780 781 1041 
1863 812 808 1039 
1864 555 548 945 
1865 97 868 1005 
1866 510 773 965 
1867 3 59 1007 
1868 767 507 947 
1869 206 96 1005 
1870 886 811 1012 
1871 211 870 991 
1872 907 659 1011 
1873 800 198 946 
1874 548 941 945 
1875 173 992 1045 
1876 580 852 1031 
1877 914 553 976 
1878 232 231 949 
1879 923 817 979 
1880 170 893 1013 
1881 854 855 1032 
1882 870 649 991 
1883 351 238 951 
1884 728 568 995 
1885 89 90 952 
1886 587 895 950 
1887 71 72 953 
1888 959 684 1026 
1889 560 923 979 
1890 824 585 982 
1891 886 208 1039 
1892 833 209 971 
1893 20 21 954 
1894 682 680 955 
1895 809 886 1039 
1896 655 928 990 
1897 166 907 1011 
1898 715 177 1034 
1899 898 578 1030 
1900 245 247 958 
1901 353 944 1042 
1902 919 223 948 
1903 372 755 971 
1904 855 865 956 
1905 641 637 958 
1906 134 207 956 
1907 769 742 963 
1908 793 221 959 
1909 178 722 1029 
1910 739 572 1020 
1911 867 332 957 
1912 157 158 960 
1913 217 794 976 
1914 380 946 1035 
1915 49 50 961 
1916 586 587 1018 
1917 731 912 968 
1918 844 510 965 
1919 138 943 992 
1920 376 689 1002 
1921 669 666 964 
1922 169 94 968 
1923 689 376 1049 
1924 847 374 962 
1925 946 198 1035 
1926 608 215 1004 
1927 768 647 970 
1928 640 643 966 
1929 569 712 975 
1930 79 80 967 
1931 498 933 1028 
1932 179 106 969 
1933 177 803 1034 
1934 82 83 972 
1935 701 802 996 
1936 230 926 1010 
1937 962 374 985 
1938 926 601 1010 
1939 633 622 984 
1940 601 600 997 
1941 148 149 973 
1942 202 608 1046 
1943 954 21 988 
1944 817 171 979 
1945 553 569 976 
1946 890 222 975 
1947 567 566 978 
1948 298 778 1024 
1949 980 164 1040 
1950 816 815 974 
1951 558 593 980 
1952 353 921 984 
1953 761 195 1026 
1954 570 560 979 
1955 861 163 986 
1956 172 103 983 
1957 982 585 1032 
1958 631 233 1042 
1959 567 978 1029 
1960 634 635 1043 
1961 700 701 996 
1962 181 819 1023 
1963 962 985 1044 
1964 908 164 980 
1965 590 988 1031 
1966 689 200 1002 
1967 827 178 1029 
1968 604 861 986 
1969 815 19 981 
1970 711 645 983 
1971 1004 564 1046 
1972 712 890 975 
1973 916 792 987 
1974 203 689 1049 
1975 912 169 968 
1976 135 824 982 
1977 864 559 977 
1978 974 815 981 
1979 608 1004 1046 
1980 793 959 1026 
1981 619 620 1036 
1982 374 379 985 
1983 960 158 1025 
1984 699 700 998 
1985 929 351 993 
1986 669 964 1021 
1987 184 728 995 
1988 893 599 1013 
1989 768 970 1024 
1990 684 761 1026 
1991 966 711 1038 
1992 743 655 990 
1993 578 577 1001 
1994 21 22 988 
1995 834 377 989 
1996 7 206 1009 
1997 973 182 1036 
1998 979 171 1020 
1999 635 636 1043 
2000 922 372 971 
2001 933 624 1028 
2002 741 772 1048 
2003 649 650 991 
2004 137 138 992 
2005 570 979 1020 
2006 880 699 998 
2007 630 692 993 
2008 992 582 1045 
2009 674 676 994 
2010 568 802 995 
2011 593 908 980 
2012 802 514 996 
2013 217 976 1027 
2014 942 364 987 
2015 751 575 1040 
2016 921 633 984 
2017 722 567 1029 
2018 87 918 1015 
2019 11 917 1014 
2020 919 143 1016 
2021 920 67 1017 
2022 95 7 1009 
2023 853 743 1048 
2024 932 181 1023 
2025 614 613 1008 
2026 469 880 998 
2027 145 146 999 
2028 96 97 1005 
2029 249 303 1000 
2030 126 127 1003 
2031 108 186 1006 
2032 659 661 1011 
2033 228 230 1010 
2034 772 853 1048 
2035 56 57 1012 
2036 872 751 1040 
2037 16 17 1013 
2038 171 739 1020 
2039 222 162 1014 
2040 221 86 1015 
2041 144 223 1016 
2042 68 224 1017 
2043 661 868 1011 
2044 364 916 987 
2045 367 932 1023 
2046 198 953 1035 
2047 976 569 1027 
2048 207 982 1032 
2049 286 301 1019 
2050 572 570 1020 
2051 692 929 993 
2052 671 669 1021 
2053 140 141 1022 
2054 213 862 1018 
2055 658 768 1024 
2056 868 166 1011 
2057 624 625 1028 
2058 158 159 1025 
2059 587 950 1018 
2060 204 616 1037 
2061 195 793 1026 
2062 563 937 1037 
2063 376 949 1049 
2064 758 380 1035 
2065 683 715 1034 
2066 246 244 1033 
2067 105 179 1038 
2068 233 235 1042 
2069 91 92 1041 
2070 214 939 1044 
2071 582 770 1045 
2072 646 649 1047 
2073 926 564 1004 
2074 808 809 1039 
2075 164 872 1040 
2076 564 878 1046 
2077 918 221 1015 
2078 917 222 1014 
2079 223 919 1016 
2080 224 920 1017 
2081 915 376 1002 
2082 852 590 1031 
2083 585 854 1032 
2084 878 202 1046 
2085 917 217 1027 
2086 950 213 1018 
2087 944 631 1042 
2088 985 214 1044 
2089 949 231 997 
2090 493 898 1030 
2091 59 940 1007 
2092 939 814 1044 
2093 179 966 1038 
2094 940 812 1007 
2095 620 973 1036 
2096 937 204 1037 
2097 990 741 1048 
2098 953 758 1035 
2099 814 962 1044 
2100 949 203 1049 
2101 569 975 1027 
2102 743 990 1048 
$EndElements
